StickNoBills-sinhala-0.ufo
<glyph name="exclam" format="1">
  <advance width="132"/>
  <unicode hex="0021"/>
  <outline>
    <contour>
      <point x="40" y="23" type="curve" smooth="yes"/>
      <point x="40" y="37"/>
      <point x="52" y="49"/>
      <point x="66" y="49" type="curve" smooth="yes"/>
      <point x="80" y="49"/>
      <point x="92" y="37"/>
      <point x="92" y="23" type="curve" smooth="yes"/>
      <point x="92" y="9"/>
      <point x="80" y="-3"/>
      <point x="66" y="-3" type="curve" smooth="yes"/>
      <point x="52" y="-3"/>
      <point x="40" y="9"/>
    </contour>
    <contour>
      <point x="46" y="166" type="line"/>
      <point x="46" y="700" type="line"/>
      <point x="86" y="700" type="line"/>
      <point x="86" y="166" type="line"/>
    </contour>
  </outline>
</glyph>
<glyph name="quotedbl" format="1">
  <advance width="213"/>
  <unicode hex="0022"/>
  <outline>
    <contour>
      <point x="40" y="465" type="line"/>
      <point x="40" y="736" type="line"/>
      <point x="80" y="736" type="line"/>
      <point x="80" y="465" type="line"/>
    </contour>
    <contour>
      <point x="133" y="465" type="line"/>
      <point x="133" y="736" type="line"/>
      <point x="173" y="736" type="line"/>
      <point x="173" y="465" type="line"/>
    </contour>
  </outline>
</glyph>
<glyph name="percent" format="1">
  <advance width="295"/>
  <unicode hex="0025"/>
  <outline>
    <contour>
      <point x="55" y="586" type="curve" smooth="yes"/>
      <point x="55" y="600"/>
      <point x="67" y="612"/>
      <point x="81" y="612" type="curve" smooth="yes"/>
      <point x="95" y="612"/>
      <point x="107" y="600"/>
      <point x="107" y="586" type="curve" smooth="yes"/>
      <point x="107" y="572"/>
      <point x="95" y="560"/>
      <point x="81" y="560" type="curve" smooth="yes"/>
      <point x="67" y="560"/>
      <point x="55" y="572"/>
    </contour>
    <contour>
      <point x="40" y="-13" type="line"/>
      <point x="215" y="726" type="line"/>
      <point x="255" y="726" type="line"/>
      <point x="81" y="-13" type="line"/>
    </contour>
    <contour>
      <point x="186" y="125" type="curve" smooth="yes"/>
      <point x="186" y="139"/>
      <point x="198" y="151"/>
      <point x="212" y="151" type="curve" smooth="yes"/>
      <point x="226" y="151"/>
      <point x="238" y="139"/>
      <point x="238" y="125" type="curve" smooth="yes"/>
      <point x="238" y="111"/>
      <point x="226" y="99"/>
      <point x="212" y="99" type="curve" smooth="yes"/>
      <point x="198" y="99"/>
      <point x="186" y="111"/>
    </contour>
  </outline>
</glyph>
<glyph name="plus" format="1">
  <advance width="455"/>
  <unicode hex="002B"/>
  <outline>
    <contour>
      <point x="40" y="275" type="line"/>
      <point x="40" y="313" type="line"/>
      <point x="206" y="313" type="line"/>
      <point x="206" y="498" type="line"/>
      <point x="246" y="498" type="line"/>
      <point x="246" y="313" type="line"/>
      <point x="415" y="313" type="line"/>
      <point x="415" y="275" type="line"/>
      <point x="246" y="275" type="line"/>
      <point x="246" y="87" type="line"/>
      <point x="206" y="87" type="line"/>
      <point x="206" y="275" type="line"/>
    </contour>
  </outline>
</glyph>
<glyph name="comma" format="1">
  <advance width="156"/>
  <unicode hex="002C"/>
  <outline>
    <contour>
      <point x="40" y="-23" type="line"/>
      <point x="77" y="129" type="line"/>
      <point x="116" y="129" type="line"/>
      <point x="79" y="-23" type="line"/>
    </contour>
  </outline>
</glyph>
<glyph name="seven" format="1">
  <advance width="439"/>
  <unicode hex="0037"/>
  <outline>
    <contour>
      <point x="439" y="661" type="line"/>
      <point x="40" y="660" type="line"/>
      <point x="40" y="700" type="line"/>
      <point x="439" y="700" type="line"/>
    </contour>
    <contour>
      <point x="220" y="0" type="line"/>
      <point x="237" y="158"/>
      <point x="282" y="408"/>
      <point x="391" y="616" type="curve"/>
      <point x="434" y="616" type="line"/>
      <point x="321" y="406"/>
      <point x="279" y="154"/>
      <point x="263" y="0" type="curve"/>
    </contour>
  </outline>
</glyph>
<glyph name="eight" format="1">
  <advance width="519"/>
  <unicode hex="0038"/>
  <outline>
    <contour>
      <point x="232" y="0" type="line"/>
      <point x="110" y="0"/>
      <point x="40" y="97"/>
      <point x="40" y="194" type="curve" smooth="yes"/>
      <point x="40" y="254"/>
      <point x="56" y="310"/>
      <point x="124" y="349" type="curve"/>
      <point x="69" y="385"/>
      <point x="44" y="442"/>
      <point x="44" y="499" type="curve" smooth="yes"/>
      <point x="44" y="598"/>
      <point x="118" y="698"/>
      <point x="235" y="698" type="curve"/>
      <point x="235" y="660" type="line"/>
      <point x="131" y="656"/>
      <point x="85" y="572"/>
      <point x="85" y="501" type="curve" smooth="yes"/>
      <point x="85" y="434"/>
      <point x="128" y="368"/>
      <point x="234" y="368" type="curve"/>
      <point x="234" y="330" type="line"/>
      <point x="169" y="330"/>
      <point x="79" y="308"/>
      <point x="79" y="199" type="curve" smooth="yes"/>
      <point x="79" y="90"/>
      <point x="153" y="42"/>
      <point x="232" y="38" type="curve"/>
    </contour>
    <contour>
      <point x="287" y="0" type="curve"/>
      <point x="287" y="38" type="line"/>
      <point x="366" y="42"/>
      <point x="440" y="90"/>
      <point x="440" y="199" type="curve" smooth="yes"/>
      <point x="440" y="308"/>
      <point x="350" y="330"/>
      <point x="285" y="330" type="curve"/>
      <point x="285" y="368" type="line"/>
      <point x="391" y="368"/>
      <point x="434" y="434"/>
      <point x="434" y="501" type="curve" smooth="yes"/>
      <point x="434" y="572"/>
      <point x="388" y="656"/>
      <point x="284" y="660" type="curve"/>
      <point x="284" y="698" type="line"/>
      <point x="401" y="698"/>
      <point x="475" y="598"/>
      <point x="475" y="499" type="curve" smooth="yes"/>
      <point x="475" y="442"/>
      <point x="450" y="385"/>
      <point x="395" y="349" type="curve"/>
      <point x="463" y="310"/>
      <point x="479" y="254"/>
      <point x="479" y="194" type="curve" smooth="yes"/>
      <point x="479" y="97"/>
      <point x="409" y="0"/>
    </contour>
  </outline>
</glyph>
<glyph name="semicolon" format="1">
  <advance width="199"/>
  <unicode hex="003B"/>
  <outline>
    <contour>
      <point x="50" y="-23" type="line"/>
      <point x="87" y="129" type="line"/>
      <point x="126" y="129" type="line"/>
      <point x="89" y="-23" type="line"/>
    </contour>
    <contour>
      <point x="97" y="311" type="curve" smooth="yes"/>
      <point x="97" y="325"/>
      <point x="109" y="337"/>
      <point x="123" y="337" type="curve" smooth="yes"/>
      <point x="137" y="337"/>
      <point x="149" y="325"/>
      <point x="149" y="311" type="curve" smooth="yes"/>
      <point x="149" y="297"/>
      <point x="137" y="285"/>
      <point x="123" y="285" type="curve" smooth="yes"/>
      <point x="109" y="285"/>
      <point x="97" y="297"/>
    </contour>
  </outline>
</glyph>
<glyph name="equal" format="1">
  <advance width="418"/>
  <unicode hex="003D"/>
  <outline>
    <contour>
      <point x="50" y="218" type="line"/>
      <point x="50" y="258" type="line"/>
      <point x="368" y="258" type="line"/>
      <point x="368" y="218" type="line"/>
    </contour>
    <contour>
      <point x="50" y="325" type="line"/>
      <point x="50" y="365" type="line"/>
      <point x="368" y="365" type="line"/>
      <point x="368" y="325" type="line"/>
    </contour>
  </outline>
</glyph>
<glyph name="greater" format="1">
  <advance width="434"/>
  <unicode hex="003E"/>
  <outline>
    <contour>
      <point x="40" y="79" type="line"/>
      <point x="40" y="119" type="line"/>
      <point x="348" y="292" type="line"/>
      <point x="40" y="460" type="line"/>
      <point x="40" y="500" type="line"/>
      <point x="394" y="308" type="line"/>
      <point x="394" y="276" type="line"/>
    </contour>
  </outline>
</glyph>
<glyph name="B" format="1">
  <advance width="512"/>
  <unicode hex="0042"/>
  <outline>
    <contour>
      <point x="40" y="0" type="line"/>
      <point x="40" y="700" type="line"/>
      <point x="80" y="700" type="line"/>
      <point x="80" y="0" type="line"/>
    </contour>
    <contour>
      <point x="125" y="-1" type="curve"/>
      <point x="125" y="37" type="line"/>
      <point x="149" y="37"/>
      <point x="221" y="37"/>
      <point x="221" y="37" type="curve" smooth="yes"/>
      <point x="384" y="37"/>
      <point x="432" y="132"/>
      <point x="432" y="205" type="curve" smooth="yes"/>
      <point x="432" y="277"/>
      <point x="395" y="333"/>
      <point x="286" y="333" type="curve" smooth="yes"/>
      <point x="286" y="333"/>
      <point x="145" y="333"/>
      <point x="125" y="333" type="curve"/>
      <point x="125" y="371" type="line"/>
      <point x="140" y="371"/>
      <point x="286" y="371"/>
      <point x="286" y="371" type="curve" smooth="yes"/>
      <point x="397" y="371"/>
      <point x="428" y="426"/>
      <point x="428" y="497" type="curve" smooth="yes"/>
      <point x="428" y="567"/>
      <point x="379" y="662"/>
      <point x="254" y="662" type="curve" smooth="yes"/>
      <point x="254" y="662"/>
      <point x="148" y="662"/>
      <point x="125" y="662" type="curve"/>
      <point x="125" y="700" type="line"/>
      <point x="133" y="700"/>
      <point x="256" y="700"/>
      <point x="256" y="700" type="curve" smooth="yes"/>
      <point x="408" y="700"/>
      <point x="468" y="588"/>
      <point x="468" y="497" type="curve" smooth="yes"/>
      <point x="468" y="427"/>
      <point x="434" y="378"/>
      <point x="399" y="352" type="curve"/>
      <point x="437" y="322"/>
      <point x="472" y="289"/>
      <point x="472" y="205" type="curve" smooth="yes"/>
      <point x="472" y="85"/>
      <point x="381" y="-1"/>
      <point x="260" y="-1" type="curve" smooth="yes"/>
      <point x="260" y="-1"/>
      <point x="135" y="-1"/>
    </contour>
  </outline>
</glyph>
<glyph name="C" format="1">
  <advance width="516"/>
  <unicode hex="0043"/>
  <outline>
    <contour>
      <point x="40" y="181" type="curve"/>
      <point x="40" y="518" type="line"/>
      <point x="40" y="578"/>
      <point x="94" y="706"/>
      <point x="241" y="705" type="curve"/>
      <point x="241" y="667" type="line"/>
      <point x="127" y="667"/>
      <point x="80" y="568"/>
      <point x="80" y="518" type="curve"/>
      <point x="80" y="181" type="line"/>
      <point x="80" y="131"/>
      <point x="128" y="33"/>
      <point x="241" y="33" type="curve"/>
      <point x="241" y="-5" type="line"/>
      <point x="93" y="-5"/>
      <point x="40" y="121"/>
    </contour>
    <contour>
      <point x="286" y="-5" type="curve"/>
      <point x="286" y="33" type="line"/>
      <point x="286" y="33"/>
      <point x="402" y="35"/>
      <point x="433" y="139" type="curve" smooth="yes"/>
      <point x="436" y="149"/>
      <point x="438" y="161"/>
      <point x="440" y="171" type="curve" smooth="yes"/>
      <point x="441" y="180"/>
      <point x="442" y="188"/>
      <point x="442" y="190" type="curve"/>
      <point x="476" y="182" type="line"/>
      <point x="476" y="76"/>
      <point x="383" y="-5"/>
    </contour>
    <contour>
      <point x="286" y="667" type="curve"/>
      <point x="286" y="705" type="line"/>
      <point x="383" y="706"/>
      <point x="476" y="612"/>
      <point x="476" y="516" type="curve"/>
      <point x="440" y="507" type="line"/>
      <point x="440" y="512"/>
      <point x="440" y="518"/>
      <point x="439" y="524" type="curve" smooth="yes"/>
      <point x="438" y="532"/>
      <point x="436" y="541"/>
      <point x="433" y="550" type="curve" smooth="yes"/>
      <point x="392" y="666"/>
      <point x="286" y="667"/>
    </contour>
  </outline>
</glyph>
<glyph name="G" format="1">
  <advance width="515"/>
  <unicode hex="0047"/>
  <outline>
    <contour>
      <point x="40" y="192" type="curve"/>
      <point x="40" y="524" type="line"/>
      <point x="40" y="586"/>
      <point x="104" y="706"/>
      <point x="240" y="705" type="curve"/>
      <point x="240" y="667" type="line"/>
      <point x="157" y="667"/>
      <point x="80" y="596"/>
      <point x="80" y="508" type="curve"/>
      <point x="80" y="192" type="line" smooth="yes"/>
      <point x="80" y="77"/>
      <point x="200" y="33"/>
      <point x="240" y="33" type="curve"/>
      <point x="240" y="-5" type="line"/>
      <point x="175" y="-5"/>
      <point x="40" y="48"/>
    </contour>
    <contour>
      <point x="285" y="-5" type="curve"/>
      <point x="285" y="33" type="line"/>
      <point x="338" y="33"/>
      <point x="435" y="102"/>
      <point x="435" y="190" type="curve" smooth="yes"/>
      <point x="435" y="315" type="line"/>
      <point x="285" y="315" type="line"/>
      <point x="285" y="353" type="line"/>
      <point x="475" y="353" type="line"/>
      <point x="475" y="176" type="line" smooth="yes"/>
      <point x="475" y="95"/>
      <point x="372" y="-5"/>
    </contour>
    <contour>
      <point x="285" y="667" type="curve"/>
      <point x="285" y="705" type="line"/>
      <point x="383" y="706"/>
      <point x="475" y="612"/>
      <point x="475" y="516" type="curve"/>
      <point x="436" y="502" type="line"/>
      <point x="436" y="507"/>
      <point x="436" y="513"/>
      <point x="435" y="518" type="curve" smooth="yes"/>
      <point x="426" y="628"/>
      <point x="324" y="667"/>
    </contour>
  </outline>
</glyph>
<glyph name="H" format="1">
  <advance width="474"/>
  <unicode hex="0048"/>
  <outline>
    <contour>
      <point x="40" y="0" type="line"/>
      <point x="40" y="700" type="line"/>
      <point x="80" y="700" type="line"/>
      <point x="80" y="371" type="line"/>
      <point x="214" y="371" type="line"/>
      <point x="214" y="333" type="line"/>
      <point x="80" y="333" type="line"/>
      <point x="80" y="0" type="line"/>
    </contour>
    <contour>
      <point x="260" y="333" type="line"/>
      <point x="260" y="371" type="line"/>
      <point x="394" y="371" type="line"/>
      <point x="394" y="700" type="line"/>
      <point x="434" y="700" type="line"/>
      <point x="434" y="0" type="line"/>
      <point x="394" y="0" type="line"/>
      <point x="394" y="333" type="line"/>
    </contour>
  </outline>
</glyph>
<glyph name="I" format="1">
  <advance width="124"/>
  <unicode hex="0049"/>
  <outline>
    <contour>
      <point x="42" y="0" type="line"/>
      <point x="42" y="700" type="line"/>
      <point x="82" y="700" type="line"/>
      <point x="82" y="0" type="line"/>
    </contour>
  </outline>
</glyph>
<glyph name="N" format="1">
  <advance width="529"/>
  <unicode hex="004E"/>
  <outline>
    <contour>
      <point x="42" y="0" type="line"/>
      <point x="42" y="596" type="line"/>
      <point x="50" y="596" type="line"/>
      <point x="82" y="544" type="line"/>
      <point x="82" y="0" type="line"/>
    </contour>
    <contour>
      <point x="42" y="676" type="line"/>
      <point x="42" y="700" type="line"/>
      <point x="81" y="700" type="line"/>
      <point x="487" y="53" type="line"/>
      <point x="487" y="0" type="line"/>
      <point x="466" y="0" type="line"/>
    </contour>
    <contour>
      <point x="447" y="189" type="line"/>
      <point x="447" y="700" type="line"/>
      <point x="487" y="700" type="line"/>
      <point x="487" y="136" type="line"/>
      <point x="479" y="136" type="line"/>
    </contour>
  </outline>
</glyph>
<glyph name="P" format="1">
  <advance width="484"/>
  <unicode hex="0050"/>
  <outline>
    <contour>
      <point x="42" y="0" type="line"/>
      <point x="42" y="700" type="line"/>
      <point x="82" y="700" type="line"/>
      <point x="82" y="0" type="line"/>
    </contour>
    <contour>
      <point x="127" y="308" type="line"/>
      <point x="127" y="345" type="line"/>
      <point x="277" y="345" type="line" smooth="yes"/>
      <point x="378" y="345"/>
      <point x="423" y="392"/>
      <point x="423" y="508" type="curve" smooth="yes"/>
      <point x="423" y="613"/>
      <point x="383" y="664"/>
      <point x="276" y="664" type="curve" smooth="yes"/>
      <point x="127" y="664" type="line"/>
      <point x="127" y="700" type="line"/>
      <point x="298" y="700" type="line"/>
      <point x="383" y="695"/>
      <point x="464" y="660"/>
      <point x="464" y="505" type="curve" smooth="yes"/>
      <point x="464" y="349"/>
      <point x="385" y="312"/>
      <point x="298" y="308" type="curve"/>
    </contour>
  </outline>
</glyph>
<glyph name="bracketleft" format="1">
  <advance width="180"/>
  <unicode hex="005B"/>
  <outline>
    <contour>
      <point x="50" y="-36" type="line"/>
      <point x="50" y="739" type="line"/>
      <point x="130" y="739" type="line"/>
      <point x="130" y="701" type="line"/>
      <point x="91" y="701" type="line"/>
      <point x="88" y="2" type="line"/>
      <point x="130" y="2" type="line"/>
      <point x="130" y="-36" type="line"/>
    </contour>
  </outline>
</glyph>
<glyph name="a" format="1">
  <advance width="464"/>
  <unicode hex="0061"/>
  <outline>
    <contour>
      <point x="40" y="121" type="curve" smooth="yes"/>
      <point x="40" y="167" type="line" smooth="yes"/>
      <point x="40" y="200"/>
      <point x="46" y="235"/>
      <point x="89" y="257" type="curve" smooth="yes"/>
      <point x="141" y="284"/>
      <point x="357" y="308"/>
      <point x="357" y="347" type="curve"/>
      <point x="357" y="363" type="line" smooth="yes"/>
      <point x="357" y="441"/>
      <point x="290" y="483"/>
      <point x="241" y="483" type="curve"/>
      <point x="241" y="519" type="line"/>
      <point x="348" y="519"/>
      <point x="398" y="432"/>
      <point x="398" y="361" type="curve" smooth="yes"/>
      <point x="398" y="74" type="line" smooth="yes"/>
      <point x="398" y="66"/>
      <point x="401" y="40"/>
      <point x="424" y="40" type="curve"/>
      <point x="424" y="1" type="line"/>
      <point x="385" y="1"/>
      <point x="371" y="19"/>
      <point x="358" y="39" type="curve"/>
      <point x="333" y="14"/>
      <point x="281" y="1"/>
      <point x="241" y="1" type="curve"/>
      <point x="241" y="39" type="line"/>
      <point x="293" y="39"/>
      <point x="358" y="56"/>
      <point x="358" y="149" type="curve" smooth="yes"/>
      <point x="358" y="292" type="line"/>
      <point x="294" y="258"/>
      <point x="126" y="246"/>
      <point x="92" y="210" type="curve" smooth="yes"/>
      <point x="85" y="203"/>
      <point x="81" y="189"/>
      <point x="81" y="171" type="curve" smooth="yes"/>
      <point x="81" y="132" type="line" smooth="yes"/>
      <point x="82" y="64"/>
      <point x="142" y="39"/>
      <point x="196" y="39" type="curve"/>
      <point x="196" y="1" type="line"/>
      <point x="99" y="1"/>
      <point x="40" y="64"/>
    </contour>
    <contour>
      <point x="47" y="389" type="line"/>
      <point x="46" y="463"/>
      <point x="123" y="519"/>
      <point x="196" y="519" type="curve"/>
      <point x="196" y="481" type="line"/>
      <point x="141" y="481"/>
      <point x="84" y="438"/>
      <point x="84" y="375" type="curve"/>
    </contour>
  </outline>
</glyph>
<glyph name="c" format="1">
  <advance width="432"/>
  <unicode hex="0063"/>
  <outline>
    <contour>
      <point x="40" y="141" type="curve" smooth="yes"/>
      <point x="40" y="166"/>
      <point x="40" y="281"/>
      <point x="40" y="372" type="curve" smooth="yes"/>
      <point x="40" y="431"/>
      <point x="93" y="516"/>
      <point x="200" y="516" type="curve"/>
      <point x="200" y="478" type="line"/>
      <point x="129" y="478"/>
      <point x="81" y="414"/>
      <point x="81" y="369" type="curve" smooth="yes"/>
      <point x="81" y="141" type="line" smooth="yes"/>
      <point x="81" y="100"/>
      <point x="129" y="38"/>
      <point x="199" y="38" type="curve"/>
      <point x="199" y="0" type="line"/>
      <point x="78" y="0"/>
      <point x="40" y="94"/>
    </contour>
    <contour>
      <point x="244" y="477" type="curve"/>
      <point x="244" y="516" type="line"/>
      <point x="325" y="516"/>
      <point x="391" y="451"/>
      <point x="391" y="372" type="curve"/>
      <point x="352" y="358" type="line"/>
      <point x="352" y="364"/>
      <point x="352" y="369"/>
      <point x="351" y="374" type="curve" smooth="yes"/>
      <point x="344" y="445"/>
      <point x="288" y="477"/>
    </contour>
    <contour>
      <point x="243" y="-1" type="curve"/>
      <point x="243" y="37" type="line"/>
      <point x="299" y="37"/>
      <point x="355" y="84"/>
      <point x="362" y="145" type="curve" smooth="yes"/>
      <point x="363" y="150"/>
      <point x="363" y="154"/>
      <point x="363" y="159" type="curve"/>
      <point x="402" y="144" type="line"/>
      <point x="402" y="65"/>
      <point x="323" y="-1"/>
    </contour>
  </outline>
</glyph>
<glyph name="f" format="1">
  <advance width="243"/>
  <unicode hex="0066"/>
  <outline>
    <contour>
      <point x="30" y="439" type="line"/>
      <point x="30" y="477" type="line"/>
      <point x="93" y="477" type="line"/>
      <point x="93" y="552" type="line" smooth="yes"/>
      <point x="93" y="597"/>
      <point x="106" y="696"/>
      <point x="212" y="696" type="curve" smooth="yes"/>
      <point x="223" y="696" type="line"/>
      <point x="214" y="658" type="line"/>
      <point x="209" y="658" type="line" smooth="yes"/>
      <point x="143" y="655"/>
      <point x="133" y="600"/>
      <point x="133" y="552" type="curve" smooth="yes"/>
      <point x="133" y="476" type="line"/>
      <point x="196" y="477" type="line"/>
      <point x="196" y="439" type="line"/>
      <point x="133" y="439" type="line"/>
      <point x="133" y="0" type="line"/>
      <point x="93" y="0" type="line"/>
      <point x="93" y="439" type="line"/>
    </contour>
  </outline>
</glyph>
<glyph name="g" format="1">
  <advance width="433"/>
  <unicode hex="0067"/>
  <outline>
    <contour>
      <point x="30" y="-181" type="line"/>
      <point x="41" y="-143" type="line"/>
      <point x="221" y="-143" type="line"/>
      <point x="304" y="-140"/>
      <point x="353" y="-82"/>
      <point x="353" y="-40" type="curve" smooth="yes"/>
      <point x="353" y="54" type="line"/>
      <point x="343" y="39"/>
      <point x="301" y="0"/>
      <point x="238" y="-1" type="curve"/>
      <point x="238" y="34" type="line"/>
      <point x="290" y="34"/>
      <point x="353" y="88"/>
      <point x="353" y="139" type="curve" smooth="yes"/>
      <point x="353" y="374" type="line" smooth="yes"/>
      <point x="353" y="445"/>
      <point x="278" y="478"/>
      <point x="238" y="478" type="curve"/>
      <point x="238" y="516" type="line"/>
      <point x="290" y="516"/>
      <point x="340" y="484"/>
      <point x="353" y="465" type="curve"/>
      <point x="353" y="516" type="line"/>
      <point x="393" y="516" type="line"/>
      <point x="393" y="-40" type="line" smooth="yes"/>
      <point x="393" y="-83"/>
      <point x="343" y="-180"/>
      <point x="240" y="-181" type="curve"/>
    </contour>
    <contour>
      <point x="39" y="139" type="curve" smooth="yes"/>
      <point x="39" y="378" type="line"/>
      <point x="40" y="424"/>
      <point x="87" y="516"/>
      <point x="193" y="516" type="curve"/>
      <point x="193" y="478" type="line"/>
      <point x="129" y="478"/>
      <point x="79" y="415"/>
      <point x="79" y="375" type="curve" smooth="yes"/>
      <point x="79" y="140" type="line" smooth="yes"/>
      <point x="79" y="102"/>
      <point x="126" y="37"/>
      <point x="193" y="37" type="curve"/>
      <point x="193" y="-1" type="line"/>
      <point x="84" y="0"/>
      <point x="39" y="94"/>
    </contour>
  </outline>
</glyph>
<glyph name="x" format="1">
  <advance width="379"/>
  <unicode hex="0078"/>
  <outline>
    <contour>
      <point x="8" y="0" type="line"/>
      <point x="166" y="262" type="line"/>
      <point x="13" y="516" type="line"/>
      <point x="52" y="516" type="line"/>
      <point x="190" y="293" type="line"/>
      <point x="327" y="515" type="line"/>
      <point x="367" y="515" type="line"/>
      <point x="215" y="262" type="line"/>
      <point x="371" y="0" type="line"/>
      <point x="332" y="0" type="line"/>
      <point x="190" y="232" type="line"/>
      <point x="47" y="0" type="line"/>
    </contour>
  </outline>
</glyph>
<glyph name="braceleft" format="1">
  <advance width="219"/>
  <unicode hex="007B"/>
  <outline>
    <contour>
      <point x="15" y="348" type="curve"/>
      <point x="51" y="363"/>
      <point x="76" y="370"/>
      <point x="77" y="408" type="curve" smooth="yes"/>
      <point x="77" y="557" type="line" smooth="yes"/>
      <point x="77" y="706"/>
      <point x="116" y="735"/>
      <point x="199" y="735" type="curve"/>
      <point x="199" y="701" type="line"/>
      <point x="127" y="701"/>
      <point x="117" y="684"/>
      <point x="117" y="469" type="curve"/>
      <point x="117" y="383" type="line" smooth="yes"/>
      <point x="117" y="366"/>
      <point x="111" y="354"/>
      <point x="87" y="348" type="curve"/>
      <point x="112" y="340"/>
      <point x="117" y="325"/>
      <point x="117" y="304" type="curve" smooth="yes"/>
      <point x="117" y="207" type="line"/>
      <point x="117" y="10"/>
      <point x="154" y="-4"/>
      <point x="199" y="-4" type="curve"/>
      <point x="199" y="-38" type="line"/>
      <point x="118" y="-38"/>
      <point x="77" y="5"/>
      <point x="77" y="138" type="curve" smooth="yes"/>
      <point x="77" y="290" type="line" smooth="yes"/>
      <point x="77" y="322"/>
      <point x="51" y="329"/>
    </contour>
  </outline>
</glyph>
<glyph name="bar" format="1">
  <advance width="135"/>
  <unicode hex="007C"/>
  <outline>
    <contour>
      <point x="50" y="-134" type="line"/>
      <point x="50" y="754" type="line"/>
      <point x="85" y="754" type="line"/>
      <point x="85" y="-134" type="line"/>
    </contour>
  </outline>
</glyph>
<glyph name="braceright" format="1">
  <advance width="219"/>
  <unicode hex="007D"/>
  <outline>
    <contour>
      <point x="20" y="-38" type="curve"/>
      <point x="20" y="-4" type="line"/>
      <point x="65" y="-4"/>
      <point x="102" y="10"/>
      <point x="102" y="207" type="curve"/>
      <point x="102" y="304" type="line" smooth="yes"/>
      <point x="102" y="325"/>
      <point x="107" y="340"/>
      <point x="132" y="348" type="curve"/>
      <point x="108" y="354"/>
      <point x="102" y="366"/>
      <point x="102" y="383" type="curve" smooth="yes"/>
      <point x="102" y="469" type="line"/>
      <point x="102" y="684"/>
      <point x="92" y="701"/>
      <point x="20" y="701" type="curve"/>
      <point x="20" y="735" type="line"/>
      <point x="103" y="735"/>
      <point x="142" y="706"/>
      <point x="142" y="557" type="curve" smooth="yes"/>
      <point x="142" y="408" type="line" smooth="yes"/>
      <point x="143" y="370"/>
      <point x="168" y="363"/>
      <point x="204" y="348" type="curve"/>
      <point x="168" y="329"/>
      <point x="142" y="322"/>
      <point x="142" y="290" type="curve" smooth="yes"/>
      <point x="142" y="138" type="line" smooth="yes"/>
      <point x="142" y="5"/>
      <point x="101" y="-38"/>
    </contour>
  </outline>
</glyph>
<glyph name="cent" format="1">
  <advance width="420"/>
  <unicode hex="00A2"/>
  <outline>
    <contour>
      <point x="242" y="24" type="line"/>
      <point x="275" y="24" type="line"/>
      <point x="275" y="-61" type="line"/>
      <point x="242" y="-61" type="line"/>
    </contour>
    <contour>
      <point x="165" y="24" type="line"/>
      <point x="198" y="24" type="line"/>
      <point x="198" y="-61" type="line"/>
      <point x="165" y="-61" type="line"/>
    </contour>
    <contour>
      <point x="242" y="577" type="line"/>
      <point x="275" y="577" type="line"/>
      <point x="275" y="492" type="line"/>
      <point x="242" y="492" type="line"/>
    </contour>
    <contour>
      <point x="165" y="577" type="line"/>
      <point x="198" y="577" type="line"/>
      <point x="198" y="492" type="line"/>
      <point x="165" y="492" type="line"/>
    </contour>
    <contour>
      <point x="38" y="141" type="curve" smooth="yes"/>
      <point x="38" y="166"/>
      <point x="38" y="281"/>
      <point x="38" y="372" type="curve" smooth="yes"/>
      <point x="38" y="431"/>
      <point x="91" y="516"/>
      <point x="198" y="516" type="curve"/>
      <point x="198" y="478" type="line"/>
      <point x="127" y="478"/>
      <point x="79" y="414"/>
      <point x="79" y="369" type="curve" smooth="yes"/>
      <point x="79" y="141" type="line" smooth="yes"/>
      <point x="79" y="100"/>
      <point x="128" y="38"/>
      <point x="198" y="38" type="curve"/>
      <point x="198" y="0" type="line"/>
      <point x="77" y="0"/>
      <point x="38" y="94"/>
    </contour>
    <contour>
      <point x="242" y="477" type="curve"/>
      <point x="242" y="516" type="line"/>
      <point x="323" y="516"/>
      <point x="389" y="451"/>
      <point x="389" y="372" type="curve"/>
      <point x="350" y="358" type="line"/>
      <point x="350" y="362"/>
      <point x="350" y="366"/>
      <point x="350" y="370" type="curve" smooth="yes"/>
      <point x="344" y="444"/>
      <point x="287" y="477"/>
    </contour>
    <contour>
      <point x="242" y="-1" type="curve"/>
      <point x="242" y="37" type="line"/>
      <point x="297" y="37"/>
      <point x="350" y="82"/>
      <point x="360" y="141" type="curve" smooth="yes"/>
      <point x="361" y="147"/>
      <point x="361" y="153"/>
      <point x="361" y="159" type="curve"/>
      <point x="400" y="144" type="line"/>
      <point x="400" y="65"/>
      <point x="322" y="-1"/>
    </contour>
  </outline>
</glyph>
<glyph name="sterling" format="1">
  <advance width="372"/>
  <unicode hex="00A3"/>
  <outline>
    <contour>
      <point x="20" y="322" type="line"/>
      <point x="20" y="360" type="line"/>
      <point x="82" y="360" type="line"/>
      <point x="82" y="553" type="line" smooth="yes"/>
      <point x="82" y="629"/>
      <point x="128" y="704"/>
      <point x="221" y="704" type="curve" smooth="yes"/>
      <point x="223" y="704" type="line" smooth="yes"/>
      <point x="246" y="704"/>
      <point x="264" y="700"/>
      <point x="281" y="693" type="curve"/>
      <point x="315" y="680"/>
      <point x="337" y="655"/>
      <point x="350" y="629" type="curve"/>
      <point x="315" y="612" type="line"/>
      <point x="297" y="639"/>
      <point x="270" y="664"/>
      <point x="227" y="664" type="curve" smooth="yes"/>
      <point x="168" y="664"/>
      <point x="122" y="622"/>
      <point x="122" y="556" type="curve" smooth="yes"/>
      <point x="122" y="362" type="line"/>
      <point x="268" y="362" type="line"/>
      <point x="268" y="324" type="line"/>
      <point x="122" y="324" type="line"/>
      <point x="122" y="38" type="line"/>
      <point x="352" y="38" type="line"/>
      <point x="352" y="0" type="line"/>
      <point x="82" y="0" type="line"/>
      <point x="82" y="322" type="line"/>
    </contour>
  </outline>
</glyph>
<glyph name="yen" format="1">
  <advance width="452"/>
  <unicode hex="00A5"/>
  <outline>
    <contour>
      <point x="21" y="186" type="line"/>
      <point x="436" y="186" type="line"/>
      <point x="436" y="153" type="line"/>
      <point x="21" y="153" type="line"/>
    </contour>
    <contour>
      <point x="21" y="276" type="line"/>
      <point x="436" y="276" type="line"/>
      <point x="436" y="243" type="line"/>
      <point x="21" y="243" type="line"/>
    </contour>
    <contour>
      <point x="207" y="0" type="line"/>
      <point x="207" y="288" type="line"/>
      <point x="57" y="698" type="line"/>
      <point x="98" y="698" type="line"/>
      <point x="227" y="343" type="line"/>
      <point x="355" y="698" type="line"/>
      <point x="396" y="698" type="line"/>
      <point x="247" y="288" type="line"/>
      <point x="247" y="0" type="line"/>
    </contour>
  </outline>
</glyph>
<glyph name="brokenbar" format="1">
  <advance width="132"/>
  <unicode hex="00A6"/>
  <outline>
    <contour>
      <point x="42" y="-134" type="line"/>
      <point x="42" y="221" type="line"/>
      <point x="82" y="221" type="line"/>
      <point x="82" y="-134" type="line"/>
    </contour>
    <contour>
      <point x="42" y="399" type="line"/>
      <point x="42" y="754" type="line"/>
      <point x="82" y="754" type="line"/>
      <point x="82" y="399" type="line"/>
    </contour>
  </outline>
</glyph>
<glyph name="dieresis" format="1">
  <advance width="266"/>
  <unicode hex="00A8"/>
  <outline>
    <contour>
      <point x="55" y="679" type="curve" smooth="yes"/>
      <point x="55" y="694"/>
      <point x="68" y="706"/>
      <point x="83" y="706" type="curve" smooth="yes"/>
      <point x="98" y="706"/>
      <point x="110" y="694"/>
      <point x="110" y="679" type="curve" smooth="yes"/>
      <point x="110" y="664"/>
      <point x="98" y="652"/>
      <point x="83" y="652" type="curve" smooth="yes"/>
      <point x="68" y="652"/>
      <point x="55" y="664"/>
    </contour>
    <contour>
      <point x="156" y="679" type="curve" smooth="yes"/>
      <point x="156" y="694"/>
      <point x="169" y="706"/>
      <point x="184" y="706" type="curve" smooth="yes"/>
      <point x="199" y="706"/>
      <point x="211" y="694"/>
      <point x="211" y="679" type="curve" smooth="yes"/>
      <point x="211" y="664"/>
      <point x="199" y="652"/>
      <point x="184" y="652" type="curve" smooth="yes"/>
      <point x="169" y="652"/>
      <point x="156" y="664"/>
    </contour>
  </outline>
</glyph>
<glyph name="ordfeminine" format="1">
  <advance width="230"/>
  <unicode hex="00AA"/>
  <outline>
    <contour>
      <point x="20" y="393" type="line"/>
      <point x="20" y="410" type="line"/>
      <point x="208" y="410" type="line"/>
      <point x="208" y="393" type="line"/>
    </contour>
    <component base="a" xOffset="3.500" yOffset="446" xScale="0.5" yScale="0.5"/>
  </outline>
</glyph>
<glyph name="logicalnot" format="1">
  <advance width="501"/>
  <unicode hex="00AC"/>
  <outline>
    <contour>
      <point x="40" y="368" type="line"/>
      <point x="40" y="406" type="line"/>
      <point x="451" y="406" type="line"/>
      <point x="451" y="208" type="line"/>
      <point x="411" y="208" type="line"/>
      <point x="411" y="368" type="line"/>
    </contour>
  </outline>
</glyph>
<glyph name="registered" format="1">
  <advance width="384"/>
  <unicode hex="00AE"/>
  <outline>
    <contour>
      <point x="166" y="518" type="curve"/>
      <point x="166" y="537" type="line"/>
      <point x="185" y="537" type="line" smooth="yes"/>
      <point x="217" y="537"/>
      <point x="231" y="551"/>
      <point x="231" y="570" type="curve" smooth="yes"/>
      <point x="231" y="599"/>
      <point x="211" y="608"/>
      <point x="174" y="608" type="curve" smooth="yes"/>
      <point x="166" y="608" type="line"/>
      <point x="166" y="627" type="line"/>
      <point x="199" y="627"/>
      <point x="251" y="627"/>
      <point x="251" y="570" type="curve" smooth="yes"/>
      <point x="251" y="550"/>
      <point x="243" y="535"/>
      <point x="230" y="528" type="curve"/>
      <point x="242" y="523"/>
      <point x="250" y="505"/>
      <point x="251" y="492" type="curve" smooth="yes"/>
      <point x="256" y="432" type="line"/>
      <point x="236" y="432" type="line"/>
      <point x="232" y="481" type="line" smooth="yes"/>
      <point x="229" y="516"/>
      <point x="207" y="518"/>
    </contour>
    <contour>
      <point x="184" y="369" type="line"/>
      <point x="100" y="373"/>
      <point x="33" y="443"/>
      <point x="33" y="528" type="curve" smooth="yes"/>
      <point x="33" y="613"/>
      <point x="100" y="683"/>
      <point x="184" y="687" type="curve"/>
      <point x="184" y="663" type="line"/>
      <point x="113" y="659"/>
      <point x="57" y="600"/>
      <point x="57" y="528" type="curve" smooth="yes"/>
      <point x="57" y="456"/>
      <point x="113" y="397"/>
      <point x="184" y="393" type="curve"/>
    </contour>
    <contour>
      <point x="200" y="369" type="curve"/>
      <point x="200" y="393" type="line"/>
      <point x="271" y="397"/>
      <point x="327" y="456"/>
      <point x="327" y="528" type="curve" smooth="yes"/>
      <point x="327" y="600"/>
      <point x="271" y="659"/>
      <point x="200" y="663" type="curve"/>
      <point x="200" y="687" type="line"/>
      <point x="284" y="683"/>
      <point x="351" y="613"/>
      <point x="351" y="528" type="curve" smooth="yes"/>
      <point x="351" y="443"/>
      <point x="284" y="373"/>
    </contour>
    <contour>
      <point x="133" y="432" type="line"/>
      <point x="133" y="627" type="line"/>
      <point x="154" y="627" type="line"/>
      <point x="154" y="432" type="line"/>
    </contour>
  </outline>
</glyph>
<glyph name="twosuperior" format="1">
  <advance width="231"/>
  <unicode hex="00B2"/>
  <outline>
    <contour>
      <point x="21" y="624" type="line"/>
      <point x="25" y="660"/>
      <point x="55" y="696"/>
      <point x="100" y="700" type="curve"/>
      <point x="100" y="674" type="line"/>
      <point x="100" y="674"/>
      <point x="54" y="672"/>
      <point x="46" y="619" type="curve"/>
    </contour>
    <contour>
      <point x="25" y="387" type="line"/>
      <point x="25" y="413" type="line"/>
      <point x="205" y="413" type="line"/>
      <point x="205" y="387" type="line"/>
    </contour>
    <contour>
      <point x="25" y="432" type="line"/>
      <point x="25" y="511"/>
      <point x="118" y="540"/>
      <point x="134" y="549" type="curve" smooth="yes"/>
      <point x="164" y="565"/>
      <point x="185" y="582"/>
      <point x="185" y="614" type="curve" smooth="yes"/>
      <point x="185" y="635"/>
      <point x="172" y="674"/>
      <point x="120" y="674" type="curve"/>
      <point x="120" y="700" type="line"/>
      <point x="184" y="700"/>
      <point x="211" y="659"/>
      <point x="211" y="613" type="curve" smooth="yes"/>
      <point x="211" y="566"/>
      <point x="178" y="541"/>
      <point x="148" y="525" type="curve" smooth="yes"/>
      <point x="114" y="508"/>
      <point x="55" y="490"/>
      <point x="55" y="432" type="curve"/>
    </contour>
  </outline>
</glyph>
<glyph name="onesuperior" format="1">
  <advance width="102"/>
  <unicode hex="00B9"/>
  <outline>
    <contour>
      <point x="9" y="665" type="line"/>
      <point x="9" y="684" type="line"/>
      <point x="27" y="699" type="line"/>
      <point x="53" y="699" type="line"/>
      <point x="53" y="386" type="line"/>
      <point x="27" y="386" type="line"/>
      <point x="27" y="665" type="line"/>
    </contour>
  </outline>
</glyph>
<glyph name="ordmasculine" format="1">
  <advance width="230"/>
  <unicode hex="00BA"/>
  <outline>
    <contour>
      <point x="26" y="413" type="line"/>
      <point x="26" y="432" type="line"/>
      <point x="204" y="432" type="line"/>
      <point x="204" y="413" type="line"/>
    </contour>
    <component base="o" xOffset="21" yOffset="471" xScale="0.444" yScale="0.444"/>
  </outline>
</glyph>
<glyph name="onequarter" format="1">
  <advance width="498"/>
  <unicode hex="00BC"/>
  <outline>
    <contour>
      <point x="399" y="0" type="line"/>
      <point x="399" y="350" type="line"/>
      <point x="430" y="350" type="line"/>
      <point x="430" y="91" type="line"/>
      <point x="457" y="91" type="line"/>
      <point x="457" y="61" type="line"/>
      <point x="430" y="61" type="line"/>
      <point x="430" y="0" type="line"/>
    </contour>
    <contour>
      <point x="63" y="662" type="line"/>
      <point x="63" y="684" type="line"/>
      <point x="83" y="700" type="line"/>
      <point x="113" y="700" type="line"/>
      <point x="113" y="350" type="line"/>
      <point x="83" y="350" type="line"/>
      <point x="83" y="662" type="line"/>
    </contour>
    <contour>
      <point x="231" y="61" type="line"/>
      <point x="231" y="91" type="line"/>
      <point x="377" y="338" type="line"/>
      <point x="377" y="280" type="line"/>
      <point x="267" y="91" type="line"/>
      <point x="377" y="91" type="line"/>
      <point x="377" y="61" type="line"/>
    </contour>
    <contour>
      <point x="0" y="0" type="line"/>
      <point x="432" y="700" type="line"/>
      <point x="468" y="700" type="line"/>
      <point x="36" y="0" type="line"/>
    </contour>
  </outline>
</glyph>
<glyph name="onehalf" format="1">
  <advance width="554"/>
  <unicode hex="00BD"/>
  <outline>
    <contour>
      <point x="309" y="0" type="line"/>
      <point x="309" y="30" type="line"/>
      <point x="511" y="30" type="line"/>
      <point x="511" y="0" type="line"/>
    </contour>
    <contour>
      <point x="0" y="0" type="line"/>
      <point x="432" y="700" type="line"/>
      <point x="468" y="700" type="line"/>
      <point x="36" y="0" type="line"/>
    </contour>
    <contour>
      <point x="63" y="662" type="line"/>
      <point x="63" y="684" type="line"/>
      <point x="83" y="700" type="line"/>
      <point x="113" y="700" type="line"/>
      <point x="113" y="350" type="line"/>
      <point x="83" y="350" type="line"/>
      <point x="83" y="662" type="line"/>
    </contour>
    <contour>
      <point x="299" y="261" type="line"/>
      <point x="304" y="303"/>
      <point x="334" y="347"/>
      <point x="387" y="351" type="curve"/>
      <point x="387" y="321" type="line" smooth="yes"/>
      <point x="387" y="321"/>
      <point x="336" y="321"/>
      <point x="328" y="254" type="curve"/>
    </contour>
    <contour>
      <point x="309" y="51" type="line"/>
      <point x="309" y="140"/>
      <point x="413" y="165"/>
      <point x="431" y="174" type="curve" smooth="yes"/>
      <point x="459" y="188"/>
      <point x="484" y="205"/>
      <point x="484" y="248" type="curve" smooth="yes"/>
      <point x="484" y="291"/>
      <point x="466" y="321"/>
      <point x="410" y="321" type="curve"/>
      <point x="410" y="351" type="line"/>
      <point x="489" y="351"/>
      <point x="514" y="301"/>
      <point x="514" y="248" type="curve" smooth="yes"/>
      <point x="514" y="198"/>
      <point x="490" y="173"/>
      <point x="456" y="156" type="curve" smooth="yes"/>
      <point x="419" y="137"/>
      <point x="339" y="121"/>
      <point x="339" y="51" type="curve"/>
    </contour>
  </outline>
</glyph>
<glyph name="AE" format="1">
  <advance width="727"/>
  <unicode hex="00C6"/>
  <outline>
    <contour>
      <point x="81" y="0" type="line"/>
      <point x="261" y="700" type="line"/>
      <point x="701" y="700" type="line"/>
      <point x="701" y="661" type="line"/>
      <point x="427" y="661" type="line"/>
      <point x="427" y="367" type="line"/>
      <point x="607" y="367" type="line"/>
      <point x="607" y="329" type="line"/>
      <point x="427" y="329" type="line"/>
      <point x="427" y="38" type="line"/>
      <point x="701" y="38" type="line"/>
      <point x="701" y="0" type="line"/>
      <point x="387" y="0" type="line"/>
      <point x="387" y="188" type="line"/>
      <point x="218" y="188" type="line"/>
      <point x="228" y="228" type="line"/>
      <point x="387" y="228" type="line"/>
      <point x="387" y="661" type="line"/>
      <point x="293" y="661" type="line"/>
      <point x="125" y="0" type="line"/>
    </contour>
  </outline>
</glyph>
<glyph name="oslash" format="1">
  <advance width="420"/>
  <unicode hex="00F8"/>
  <outline>
    <contour>
      <point x="14" y="68" type="line"/>
      <point x="69" y="118" type="line"/>
      <point x="67" y="126"/>
      <point x="66" y="134"/>
      <point x="66" y="141" type="curve" smooth="yes"/>
      <point x="66" y="376" type="line" smooth="yes"/>
      <point x="66" y="425"/>
      <point x="120" y="516"/>
      <point x="230" y="516" type="curve"/>
      <point x="230" y="478" type="line"/>
      <point x="150" y="478"/>
      <point x="106" y="410"/>
      <point x="106" y="363" type="curve" smooth="yes"/>
      <point x="106" y="152" type="line"/>
      <point x="380" y="404" type="line"/>
      <point x="363" y="441"/>
      <point x="325" y="478"/>
      <point x="271" y="478" type="curve"/>
      <point x="271" y="516" type="line"/>
      <point x="343" y="516"/>
      <point x="390" y="476"/>
      <point x="413" y="434" type="curve"/>
      <point x="459" y="475" type="line"/>
      <point x="486" y="446" type="line"/>
      <point x="428" y="393" type="line"/>
      <point x="429" y="387"/>
      <point x="430" y="381"/>
      <point x="430" y="376" type="curve" smooth="yes"/>
      <point x="430" y="141" type="line" smooth="yes"/>
      <point x="430" y="92"/>
      <point x="379" y="-1"/>
      <point x="271" y="-1" type="curve"/>
      <point x="271" y="37" type="line"/>
      <point x="346" y="37"/>
      <point x="390" y="108"/>
      <point x="390" y="152" type="curve" smooth="yes"/>
      <point x="390" y="358" type="line"/>
      <point x="119" y="110" type="line"/>
      <point x="139" y="73"/>
      <point x="179" y="37"/>
      <point x="230" y="37" type="curve"/>
      <point x="230" y="-1" type="line"/>
      <point x="158" y="-1"/>
      <point x="110" y="38"/>
      <point x="86" y="79" type="curve"/>
      <point x="41" y="38" type="line"/>
    </contour>
  </outline>
</glyph>
<glyph name="dcroat" format="1">
  <advance width="414"/>
  <unicode hex="0111"/>
  <outline>
    <contour>
      <point x="26" y="141" type="curve" smooth="yes"/>
      <point x="26" y="377" type="line" smooth="yes"/>
      <point x="26" y="446"/>
      <point x="98" y="516"/>
      <point x="180" y="516" type="curve" smooth="yes"/>
      <point x="299" y="516" type="line"/>
      <point x="299" y="478" type="line"/>
      <point x="181" y="478" type="line" smooth="yes"/>
      <point x="126" y="478"/>
      <point x="66" y="426"/>
      <point x="66" y="373" type="curve" smooth="yes"/>
      <point x="66" y="143" type="line" smooth="yes"/>
      <point x="66" y="86"/>
      <point x="133" y="38"/>
      <point x="181" y="38" type="curve" smooth="yes"/>
      <point x="299" y="38" type="line"/>
      <point x="299" y="0" type="line"/>
      <point x="183" y="0" type="line" smooth="yes"/>
      <point x="77" y="0"/>
      <point x="26" y="92"/>
    </contour>
    <contour>
      <point x="280" y="587" type="line"/>
      <point x="280" y="625" type="line"/>
      <point x="344" y="625" type="line"/>
      <point x="344" y="699" type="line"/>
      <point x="384" y="699" type="line"/>
      <point x="384" y="625" type="line"/>
      <point x="448" y="625" type="line"/>
      <point x="448" y="587" type="line"/>
      <point x="384" y="587" type="line"/>
      <point x="384" y="0" type="line"/>
      <point x="344" y="0" type="line"/>
      <point x="344" y="587" type="line"/>
    </contour>
  </outline>
</glyph>
<glyph name="dotlessi" format="1">
  <advance width="174"/>
  <unicode hex="0131"/>
  <outline>
    <contour>
      <point x="68" y="0" type="line"/>
      <point x="68" y="516" type="line"/>
      <point x="108" y="516" type="line"/>
      <point x="108" y="0" type="line"/>
    </contour>
  </outline>
</glyph>
<glyph name="OE" format="1">
  <advance width="422"/>
  <unicode hex="0152"/>
  <outline>
    <contour>
      <point x="-27" y="197" type="curve" smooth="yes"/>
      <point x="-27" y="503" type="line" smooth="yes"/>
      <point x="-27" y="706"/>
      <point x="104" y="700"/>
      <point x="258" y="700" type="curve"/>
      <point x="258" y="662" type="line"/>
      <point x="122" y="662"/>
      <point x="13" y="669"/>
      <point x="13" y="503" type="curve" smooth="yes"/>
      <point x="13" y="197" type="line" smooth="yes"/>
      <point x="13" y="41"/>
      <point x="115" y="38"/>
      <point x="258" y="38" type="curve"/>
      <point x="258" y="0" type="line"/>
      <point x="98" y="0"/>
      <point x="-27" y="0"/>
    </contour>
    <contour>
      <point x="303" y="0" type="line"/>
      <point x="303" y="38" type="line"/>
      <point x="334" y="38" type="line"/>
      <point x="334" y="662" type="line"/>
      <point x="303" y="662" type="line"/>
      <point x="303" y="700" type="line"/>
      <point x="698" y="700" type="line"/>
      <point x="698" y="662" type="line"/>
      <point x="374" y="662" type="line"/>
      <point x="374" y="368" type="line"/>
      <point x="604" y="368" type="line"/>
      <point x="604" y="330" type="line"/>
      <point x="374" y="330" type="line"/>
      <point x="374" y="38" type="line"/>
      <point x="698" y="38" type="line"/>
      <point x="698" y="0" type="line"/>
    </contour>
  </outline>
</glyph>
<glyph name="oe" format="1">
  <advance width="757"/>
  <unicode hex="0153"/>
  <outline>
    <contour>
      <point x="375" y="79" type="curve"/>
      <point x="351" y="38"/>
      <point x="305" y="-1"/>
      <point x="235" y="-1" type="curve"/>
      <point x="235" y="37" type="line"/>
      <point x="310" y="37"/>
      <point x="354" y="108"/>
      <point x="354" y="152" type="curve" smooth="yes"/>
      <point x="354" y="363" type="line" smooth="yes"/>
      <point x="354" y="408"/>
      <point x="310" y="478"/>
      <point x="235" y="478" type="curve"/>
      <point x="235" y="516" type="line"/>
      <point x="305" y="516"/>
      <point x="351" y="477"/>
      <point x="376" y="438" type="curve"/>
      <point x="401" y="478"/>
      <point x="449" y="516"/>
      <point x="518" y="516" type="curve"/>
      <point x="518" y="478" type="line"/>
      <point x="446" y="478"/>
      <point x="395" y="414"/>
      <point x="395" y="359" type="curve" smooth="yes"/>
      <point x="395" y="334"/>
      <point x="395" y="310"/>
      <point x="395" y="285" type="curve"/>
      <point x="686" y="285" type="line"/>
      <point x="686" y="369" type="line" smooth="yes"/>
      <point x="686" y="428"/>
      <point x="624" y="480"/>
      <point x="563" y="480" type="curve"/>
      <point x="563" y="516" type="line"/>
      <point x="639" y="516"/>
      <point x="726" y="453"/>
      <point x="726" y="378" type="curve" smooth="yes"/>
      <point x="726" y="247" type="line"/>
      <point x="395" y="247" type="line"/>
      <point x="395" y="141" type="line" smooth="yes"/>
      <point x="395" y="82"/>
      <point x="471" y="36"/>
      <point x="543" y="36" type="curve" smooth="yes"/>
      <point x="614" y="36"/>
      <point x="673" y="75"/>
      <point x="690" y="133" type="curve"/>
      <point x="727" y="120" type="line"/>
      <point x="705" y="45"/>
      <point x="644" y="0"/>
      <point x="541" y="0" type="curve" smooth="yes"/>
      <point x="466" y="0"/>
      <point x="401" y="34"/>
    </contour>
    <contour>
      <point x="30" y="141" type="curve" smooth="yes"/>
      <point x="30" y="376" type="line" smooth="yes"/>
      <point x="30" y="425"/>
      <point x="84" y="516"/>
      <point x="194" y="516" type="curve"/>
      <point x="194" y="478" type="line"/>
      <point x="114" y="478"/>
      <point x="70" y="410"/>
      <point x="70" y="363" type="curve" smooth="yes"/>
      <point x="70" y="154" type="line" smooth="yes"/>
      <point x="70" y="111"/>
      <point x="121" y="37"/>
      <point x="194" y="37" type="curve"/>
      <point x="194" y="-1" type="line"/>
      <point x="82" y="-1"/>
      <point x="30" y="93"/>
    </contour>
  </outline>
</glyph>
<glyph name="breve" format="1">
  <advance width="244"/>
  <unicode hex="02D8"/>
  <outline>
    <contour>
      <point x="58" y="526" type="curve"/>
      <point x="90" y="526" type="line"/>
      <point x="90" y="508"/>
      <point x="104" y="494"/>
      <point x="122" y="494" type="curve" smooth="yes"/>
      <point x="140" y="494"/>
      <point x="154" y="508"/>
      <point x="154" y="526" type="curve"/>
      <point x="186" y="526" type="line"/>
      <point x="186" y="505"/>
      <point x="166" y="464"/>
      <point x="122" y="464" type="curve" smooth="yes"/>
      <point x="78" y="464"/>
      <point x="58" y="505"/>
    </contour>
  </outline>
</glyph>
<glyph name="dotaccent" format="1">
  <advance width="202"/>
  <unicode hex="02D9"/>
  <outline>
    <contour>
      <point x="71" y="678" type="curve" smooth="yes"/>
      <point x="71" y="695"/>
      <point x="84" y="709"/>
      <point x="101" y="709" type="curve" smooth="yes"/>
      <point x="118" y="709"/>
      <point x="131" y="695"/>
      <point x="131" y="678" type="curve" smooth="yes"/>
      <point x="131" y="661"/>
      <point x="118" y="648"/>
      <point x="101" y="648" type="curve" smooth="yes"/>
      <point x="84" y="648"/>
      <point x="71" y="661"/>
    </contour>
  </outline>
</glyph>
<glyph name="tml_A" format="1">
  <advance width="975"/>
  <unicode hex="0B85"/>
  <outline>
    <contour>
      <point x="323" y="460" type="curve" smooth="yes"/>
      <point x="323" y="460"/>
      <point x="283" y="460"/>
      <point x="283" y="460" type="curve"/>
      <point x="283" y="460"/>
      <point x="294" y="289"/>
      <point x="473" y="289" type="curve" smooth="yes"/>
      <point x="562" y="289"/>
      <point x="637" y="346"/>
      <point x="642" y="409" type="curve" smooth="yes"/>
      <point x="610" y="443" type="line" smooth="yes"/>
      <point x="610" y="375"/>
      <point x="544" y="329"/>
      <point x="473" y="329" type="curve" smooth="yes"/>
      <point x="393" y="329"/>
      <point x="331" y="376"/>
    </contour>
    <contour>
      <point x="285" y="516" type="curve" smooth="yes"/>
      <point x="325" y="516" type="line"/>
      <point x="325" y="589"/>
      <point x="412" y="655"/>
      <point x="539" y="655" type="curve" smooth="yes"/>
      <point x="653" y="655"/>
      <point x="744" y="583"/>
      <point x="744" y="396" type="curve" smooth="yes"/>
      <point x="744" y="224" type="line"/>
      <point x="784" y="224" type="line"/>
      <point x="784" y="393" type="line"/>
      <point x="784" y="585"/>
      <point x="694" y="695"/>
      <point x="539" y="695" type="curve" smooth="yes"/>
      <point x="310" y="695"/>
      <point x="285" y="552"/>
    </contour>
    <contour>
      <point x="464" y="192" type="line"/>
      <point x="500" y="192"/>
      <point x="708" y="192"/>
      <point x="744" y="192" type="curve"/>
      <point x="744" y="69" type="line"/>
      <point x="744" y="-29"/>
      <point x="693" y="-86"/>
      <point x="629" y="-87" type="curve" smooth="yes"/>
      <point x="466" y="-87" type="line"/>
      <point x="466" y="-127" type="line" smooth="yes"/>
      <point x="628" y="-127" type="line" smooth="yes"/>
      <point x="728" y="-127"/>
      <point x="785" y="-35"/>
      <point x="785" y="67" type="curve"/>
      <point x="784" y="232" type="line"/>
      <point x="711" y="232"/>
      <point x="537" y="232"/>
      <point x="464" y="232" type="curve"/>
    </contour>
    <contour>
      <point x="60" y="72" type="curve" smooth="yes"/>
      <point x="60" y="-47"/>
      <point x="151" y="-127"/>
      <point x="263" y="-127" type="curve" smooth="yes"/>
      <point x="411" y="-127" type="line"/>
      <point x="411" y="-87" type="line"/>
      <point x="261" y="-87" type="line" smooth="yes"/>
      <point x="201" y="-87"/>
      <point x="100" y="-48"/>
      <point x="100" y="72" type="curve" smooth="yes"/>
      <point x="100" y="196"/>
      <point x="232" y="191"/>
      <point x="256" y="191" type="curve" smooth="yes"/>
      <point x="410" y="191" type="line"/>
      <point x="410" y="233" type="line"/>
      <point x="274" y="233" type="line" smooth="yes"/>
      <point x="144" y="233"/>
      <point x="60" y="188"/>
    </contour>
    <contour>
      <point x="743" y="192" type="line"/>
      <point x="877" y="192" type="line"/>
      <point x="877" y="232" type="line"/>
      <point x="743" y="232" type="line"/>
    </contour>
    <contour>
      <point x="875" y="-107" type="line"/>
      <point x="915" y="-107" type="line"/>
      <point x="915" y="578" type="line"/>
      <point x="875" y="578" type="line"/>
    </contour>
  </outline>
</glyph>
<glyph name="tml_I" format="1">
  <advance width="1081"/>
  <unicode hex="0B87"/>
  <outline>
    <contour>
      <point x="502" y="-178" type="line"/>
      <point x="502" y="-138" type="line"/>
      <point x="246" y="-138" type="line" smooth="yes"/>
      <point x="186" y="-138"/>
      <point x="85" y="-99"/>
      <point x="85" y="21" type="curve" smooth="yes"/>
      <point x="85" y="145"/>
      <point x="217" y="140"/>
      <point x="241" y="140" type="curve" smooth="yes"/>
      <point x="501" y="140" type="line"/>
      <point x="501" y="182" type="line"/>
      <point x="259" y="182" type="line" smooth="yes"/>
      <point x="129" y="182"/>
      <point x="45" y="137"/>
      <point x="45" y="21" type="curve" smooth="yes"/>
      <point x="45" y="-98"/>
      <point x="136" y="-178"/>
      <point x="248" y="-178" type="curve" smooth="yes"/>
    </contour>
    <contour>
      <point x="558" y="-178" type="line" smooth="yes"/>
      <point x="677" y="-178" type="line" smooth="yes"/>
      <point x="777" y="-178"/>
      <point x="834" y="-86"/>
      <point x="834" y="16" type="curve"/>
      <point x="833" y="181" type="line"/>
      <point x="770" y="181"/>
      <point x="619" y="181"/>
      <point x="556" y="181" type="curve"/>
      <point x="556" y="141" type="line"/>
      <point x="586" y="141"/>
      <point x="763" y="141"/>
      <point x="793" y="141" type="curve"/>
      <point x="793" y="18" type="line"/>
      <point x="793" y="-80"/>
      <point x="742" y="-137"/>
      <point x="678" y="-138" type="curve" smooth="yes"/>
      <point x="558" y="-138" type="line"/>
    </contour>
    <contour>
      <point x="334" y="466" type="curve" smooth="yes"/>
      <point x="374" y="466" type="line"/>
      <point x="374" y="566"/>
      <point x="461" y="605"/>
      <point x="588" y="605" type="curve" smooth="yes"/>
      <point x="702" y="605"/>
      <point x="793" y="533"/>
      <point x="793" y="346" type="curve" smooth="yes"/>
      <point x="793" y="214" type="line"/>
      <point x="833" y="214" type="line"/>
      <point x="833" y="343" type="line"/>
      <point x="833" y="535"/>
      <point x="743" y="645"/>
      <point x="588" y="645" type="curve" smooth="yes"/>
      <point x="410" y="645"/>
      <point x="334" y="572"/>
    </contour>
    <contour>
      <point x="799" y="-169" type="line"/>
      <point x="956" y="-188"/>
      <point x="1030" y="-66"/>
      <point x="1030" y="2" type="curve"/>
      <point x="1030" y="36" type="line" smooth="yes"/>
      <point x="1030" y="120"/>
      <point x="972" y="181"/>
      <point x="833" y="181" type="curve"/>
      <point x="833" y="141" type="line"/>
      <point x="968" y="141"/>
      <point x="990" y="83"/>
      <point x="990" y="29" type="curve" smooth="yes"/>
      <point x="990" y="-99"/>
      <point x="881" y="-138"/>
      <point x="818" y="-130" type="curve"/>
    </contour>
    <contour>
      <point x="579" y="763" type="curve"/>
      <point x="579" y="803" type="line" smooth="yes"/>
      <point x="334" y="796"/>
      <point x="188" y="633"/>
      <point x="188" y="372" type="curve" smooth="yes"/>
      <point x="188" y="309"/>
      <point x="207" y="212"/>
      <point x="223" y="142" type="curve"/>
      <point x="269" y="146" type="line"/>
      <point x="252" y="210"/>
      <point x="232" y="306"/>
      <point x="232" y="369" type="curve" smooth="yes"/>
      <point x="232" y="570"/>
      <point x="342" y="754"/>
    </contour>
    <contour>
      <point x="332" y="414" type="curve"/>
      <point x="332" y="414"/>
      <point x="343" y="239"/>
      <point x="522" y="239" type="curve" smooth="yes"/>
      <point x="611" y="239"/>
      <point x="686" y="296"/>
      <point x="691" y="359" type="curve" smooth="yes"/>
      <point x="659" y="393" type="line" smooth="yes"/>
      <point x="659" y="325"/>
      <point x="577" y="279"/>
      <point x="522" y="279" type="curve" smooth="yes"/>
      <point x="434" y="279"/>
      <point x="370" y="339"/>
      <point x="370" y="414" type="curve" smooth="yes"/>
      <point x="370" y="414"/>
      <point x="332" y="414"/>
    </contour>
    <contour>
      <point x="230" y="114" type="line"/>
      <point x="263" y="-18"/>
      <point x="348" y="-122"/>
      <point x="455" y="-170" type="curve" smooth="yes"/>
      <point x="495" y="-146" type="line"/>
      <point x="377" y="-95"/>
      <point x="300" y="-2"/>
      <point x="277" y="114" type="curve"/>
    </contour>
    <contour>
      <point x="623" y="761" type="curve"/>
      <point x="882" y="761"/>
      <point x="961" y="528"/>
      <point x="961" y="244" type="curve"/>
      <point x="1001" y="244" type="line"/>
      <point x="1001" y="582"/>
      <point x="903" y="801"/>
      <point x="623" y="801" type="curve"/>
      <point x="623" y="800"/>
      <point x="623" y="761"/>
    </contour>
  </outline>
</glyph>
<glyph name="tml_U" format="1">
  <advance width="987"/>
  <unicode hex="0B89"/>
  <outline>
    <contour>
      <point x="80" y="486" type="curve" smooth="yes"/>
      <point x="86" y="578"/>
      <point x="152" y="656"/>
      <point x="267" y="656" type="curve" smooth="yes"/>
      <point x="380" y="656"/>
      <point x="484" y="603"/>
      <point x="484" y="420" type="curve"/>
      <point x="524" y="420" type="line"/>
      <point x="524" y="610"/>
      <point x="429" y="696"/>
      <point x="267" y="696" type="curve" smooth="yes"/>
      <point x="130" y="696"/>
      <point x="40" y="600"/>
      <point x="40" y="486" type="curve" smooth="yes"/>
      <point x="40" y="486"/>
      <point x="80" y="486"/>
    </contour>
    <contour>
      <point x="260" y="0" type="line"/>
      <point x="963" y="0" type="line"/>
      <point x="963" y="38" type="line"/>
      <point x="260" y="38" type="line"/>
    </contour>
    <contour>
      <point x="58" y="38" type="line"/>
      <point x="58" y="5"/>
      <point x="67" y="0"/>
      <point x="117" y="0" type="curve" smooth="yes"/>
      <point x="206" y="0" type="line"/>
      <point x="206" y="38" type="line"/>
    </contour>
    <contour>
      <point x="58" y="33" type="line" smooth="yes"/>
      <point x="101" y="33" type="line" smooth="yes"/>
      <point x="101" y="33"/>
      <point x="101" y="128"/>
      <point x="101" y="141" type="curve"/>
      <point x="335" y="142" type="line" smooth="yes"/>
      <point x="499" y="142"/>
      <point x="524" y="264"/>
      <point x="524" y="339" type="curve" smooth="yes"/>
      <point x="524" y="376" type="line"/>
      <point x="484" y="376" type="line"/>
      <point x="484" y="339" type="line" smooth="yes"/>
      <point x="484" y="237"/>
      <point x="451" y="184"/>
      <point x="337" y="183" type="curve" smooth="yes"/>
      <point x="112" y="183" type="line" smooth="yes"/>
      <point x="72" y="183"/>
      <point x="58" y="178"/>
      <point x="58" y="137" type="curve" smooth="yes"/>
    </contour>
    <contour>
      <point x="81" y="459" type="curve" smooth="yes"/>
      <point x="81" y="459"/>
      <point x="40" y="459"/>
      <point x="40" y="459" type="curve" smooth="yes"/>
      <point x="40" y="366"/>
      <point x="93" y="278"/>
      <point x="208" y="278" type="curve" smooth="yes"/>
      <point x="299" y="278"/>
      <point x="368" y="333"/>
      <point x="368" y="430" type="curve" smooth="yes"/>
      <point x="328" y="447" type="line" smooth="yes"/>
      <point x="328" y="360"/>
      <point x="293" y="318"/>
      <point x="207" y="318" type="curve" smooth="yes"/>
      <point x="117" y="318"/>
      <point x="83" y="402"/>
    </contour>
  </outline>
</glyph>
<glyph name="tml_Uu" format="1">
  <advance width="1383"/>
  <unicode hex="0B8A"/>
  <outline>
    <contour>
      <point x="793" y="149" type="line"/>
      <point x="887" y="150"/>
      <point x="932" y="228"/>
      <point x="931" y="286" type="curve" smooth="yes"/>
      <point x="930" y="305" type="line" smooth="yes"/>
      <point x="930" y="387"/>
      <point x="880" y="444"/>
      <point x="794" y="444" type="curve" smooth="yes"/>
      <point x="794" y="404" type="line"/>
      <point x="829" y="403"/>
      <point x="889" y="393"/>
      <point x="890" y="297" type="curve" smooth="yes"/>
      <point x="891" y="213"/>
      <point x="832" y="190"/>
      <point x="793" y="190" type="curve" smooth="yes"/>
    </contour>
    <contour>
      <point x="606" y="312" type="curve" smooth="yes"/>
      <point x="606" y="285" type="line" smooth="yes"/>
      <point x="606" y="213"/>
      <point x="659" y="149"/>
      <point x="746" y="149" type="curve" smooth="yes"/>
      <point x="746" y="190" type="line"/>
      <point x="697" y="190"/>
      <point x="646" y="216"/>
      <point x="646" y="297" type="curve" smooth="yes"/>
      <point x="646" y="383"/>
      <point x="714" y="403"/>
      <point x="746" y="404" type="curve" smooth="yes"/>
      <point x="746" y="444" type="line"/>
      <point x="706" y="444"/>
      <point x="605" y="413"/>
    </contour>
    <contour>
      <point x="606" y="316" type="line"/>
      <point x="611" y="341"/>
      <point x="645" y="352"/>
      <point x="645" y="399" type="curve" smooth="yes"/>
      <point x="645" y="497"/>
      <point x="709" y="597"/>
      <point x="814" y="597" type="curve" smooth="yes"/>
      <point x="818" y="597" type="line" smooth="yes"/>
      <point x="818" y="637" type="line"/>
      <point x="816" y="637" type="line" smooth="yes"/>
      <point x="671" y="637"/>
      <point x="606" y="498"/>
      <point x="606" y="415" type="curve"/>
    </contour>
    <contour>
      <point x="864" y="598" type="line"/>
      <point x="866" y="598" type="line" smooth="yes"/>
      <point x="931" y="598"/>
      <point x="992" y="562"/>
      <point x="993" y="440" type="curve"/>
      <point x="994" y="149" type="line"/>
      <point x="1035" y="149" type="line"/>
      <point x="1031" y="441" type="line"/>
      <point x="1030" y="522"/>
      <point x="1002" y="638"/>
      <point x="865" y="638" type="curve" smooth="yes"/>
      <point x="864" y="638" type="line"/>
    </contour>
    <contour>
      <point x="993" y="429" type="curve"/>
      <point x="1031" y="429" type="line"/>
      <point x="1031" y="482"/>
      <point x="1028" y="598"/>
      <point x="1114" y="598" type="curve"/>
      <point x="1114" y="638" type="line"/>
      <point x="1108" y="638" type="line" smooth="yes"/>
      <point x="994" y="638"/>
      <point x="993" y="498"/>
    </contour>
    <contour>
      <point x="1162" y="598" type="line"/>
      <point x="1343" y="598" type="line"/>
      <point x="1343" y="638" type="line"/>
      <point x="1162" y="638" type="line"/>
    </contour>
    <contour>
      <point x="1242" y="149" type="line"/>
      <point x="1283" y="149" type="line"/>
      <point x="1283" y="621" type="line"/>
      <point x="1242" y="621" type="line"/>
    </contour>
    <contour>
      <point x="259" y="0" type="line"/>
      <point x="1328" y="0" type="line"/>
      <point x="1328" y="38" type="line"/>
      <point x="259" y="38" type="line"/>
    </contour>
    <component base="tml_U"/>
  </outline>
</glyph>
<glyph name="tml_O" format="1">
  <advance width="819"/>
  <unicode hex="0B92"/>
  <outline>
    <contour>
      <point x="442" y="655" type="line"/>
      <point x="643" y="655"/>
      <point x="739" y="488"/>
      <point x="739" y="398" type="curve" smooth="yes"/>
      <point x="739" y="164" type="line" smooth="yes"/>
      <point x="733" y="30"/>
      <point x="486" y="47"/>
      <point x="486" y="162" type="curve"/>
      <point x="486" y="350" type="line"/>
      <point x="446" y="350" type="line" smooth="yes"/>
      <point x="446" y="166" type="line" smooth="yes"/>
      <point x="446" y="-16"/>
      <point x="779" y="-17"/>
      <point x="779" y="165" type="curve" smooth="yes"/>
      <point x="779" y="398" type="line" smooth="yes"/>
      <point x="779" y="494"/>
      <point x="679" y="695"/>
      <point x="442" y="695" type="curve"/>
    </contour>
    <contour>
      <point x="40" y="202" type="line" smooth="yes"/>
      <point x="40" y="118"/>
      <point x="104" y="30"/>
      <point x="192" y="30" type="curve" smooth="yes"/>
      <point x="192" y="70" type="line"/>
      <point x="142" y="70"/>
      <point x="79" y="121"/>
      <point x="79" y="211" type="curve" smooth="yes"/>
      <point x="79" y="325"/>
      <point x="155" y="349"/>
      <point x="192" y="349" type="curve" smooth="yes"/>
      <point x="192" y="389" type="line"/>
      <point x="116" y="389"/>
      <point x="40" y="330"/>
      <point x="40" y="226" type="curve" smooth="yes"/>
    </contour>
    <contour>
      <point x="247" y="30" type="line"/>
      <point x="319" y="30"/>
      <point x="384" y="105"/>
      <point x="383" y="203" type="curve" smooth="yes"/>
      <point x="383" y="226" type="line" smooth="yes"/>
      <point x="383" y="322"/>
      <point x="320" y="389"/>
      <point x="247" y="389" type="curve" smooth="yes"/>
      <point x="247" y="349" type="line"/>
      <point x="289" y="349"/>
      <point x="341" y="312"/>
      <point x="341" y="213" type="curve" smooth="yes"/>
      <point x="341" y="118"/>
      <point x="291" y="70"/>
      <point x="247" y="70" type="curve"/>
    </contour>
    <contour>
      <point x="40" y="228" type="line"/>
      <point x="51" y="256"/>
      <point x="55" y="283"/>
      <point x="82" y="332" type="curve"/>
      <point x="90" y="502"/>
      <point x="178" y="655"/>
      <point x="389" y="655" type="curve"/>
      <point x="389" y="695" type="line"/>
      <point x="389" y="695" type="line" smooth="yes"/>
      <point x="117" y="695"/>
      <point x="40" y="467"/>
      <point x="40" y="310" type="curve"/>
    </contour>
    <contour>
      <point x="446" y="25" type="line" smooth="yes"/>
      <point x="446" y="-66"/>
      <point x="552" y="-132"/>
      <point x="715" y="-132" type="curve"/>
      <point x="715" y="-92" type="line" smooth="yes"/>
      <point x="619" y="-94"/>
      <point x="486" y="-61"/>
      <point x="486" y="27" type="curve" smooth="yes"/>
      <point x="486" y="175" type="line" smooth="yes"/>
      <point x="446" y="276" type="line"/>
    </contour>
    <contour>
      <point x="185" y="-124" type="line"/>
      <point x="253" y="-296"/>
      <point x="451" y="-298"/>
      <point x="530" y="-155" type="curve"/>
      <point x="493" y="-134" type="line" smooth="yes"/>
      <point x="429" y="-252"/>
      <point x="281" y="-243"/>
      <point x="226" y="-114" type="curve"/>
    </contour>
  </outline>
</glyph>
<glyph name="tml_Rra" format="1">
  <advance width="654"/>
  <unicode hex="0BB1"/>
  <outline>
    <contour>
      <point x="40" y="-256" type="curve"/>
      <point x="80" y="-256" type="line"/>
      <point x="80" y="-145"/>
      <point x="112" y="-116"/>
      <point x="165" y="-116" type="curve" smooth="yes"/>
      <point x="459" y="-116" type="line" smooth="yes"/>
      <point x="571" y="-114"/>
      <point x="614" y="-22"/>
      <point x="614" y="64" type="curve" smooth="yes"/>
      <point x="614" y="475" type="line" smooth="yes"/>
      <point x="614" y="530"/>
      <point x="575" y="606"/>
      <point x="488" y="606" type="curve"/>
      <point x="488" y="566" type="line"/>
      <point x="503" y="566"/>
      <point x="574" y="560"/>
      <point x="574" y="460" type="curve" smooth="yes"/>
      <point x="574" y="64" type="line" smooth="yes"/>
      <point x="574" y="-20"/>
      <point x="528" y="-76"/>
      <point x="460" y="-76" type="curve" smooth="yes"/>
      <point x="172" y="-76" type="line" smooth="yes"/>
      <point x="113" y="-76"/>
      <point x="40" y="-95"/>
    </contour>
    <contour>
      <point x="70" y="0" type="line"/>
      <point x="112" y="0" type="line"/>
      <point x="110" y="474" type="line" smooth="yes"/>
      <point x="110" y="503"/>
      <point x="122" y="566"/>
      <point x="184" y="566" type="curve"/>
      <point x="184" y="606" type="line"/>
      <point x="101" y="606"/>
      <point x="70" y="529"/>
      <point x="70" y="479" type="curve" smooth="yes"/>
    </contour>
    <contour>
      <point x="237" y="566" type="line"/>
      <point x="289" y="566"/>
      <point x="316" y="542"/>
      <point x="316" y="449" type="curve" smooth="yes"/>
      <point x="318" y="0" type="line"/>
      <point x="358" y="0" type="line"/>
      <point x="356" y="450" type="line" smooth="yes"/>
      <point x="356" y="542"/>
      <point x="392" y="566"/>
      <point x="437" y="566" type="curve"/>
      <point x="437" y="606" type="line"/>
      <point x="398" y="606"/>
      <point x="365" y="597"/>
      <point x="337" y="561" type="curve"/>
      <point x="313" y="594"/>
      <point x="283" y="606"/>
      <point x="237" y="606" type="curve"/>
    </contour>
    <contour>
      <point x="371" y="0" type="move" name="tml_virama"/>
    </contour>
  </outline>
</glyph>
<glyph name="tml_MatraUu" format="1">
  <advance width="700"/>
  <unicode hex="0BC2"/>
  <outline>
    <contour>
      <point x="45" y="615" type="line"/>
      <point x="325" y="615" type="line" smooth="yes"/>
      <point x="422" y="615"/>
      <point x="454" y="584"/>
      <point x="454" y="529" type="curve" smooth="yes"/>
      <point x="454" y="511"/>
      <point x="435" y="457"/>
      <point x="380" y="457" type="curve" smooth="yes"/>
      <point x="321" y="457"/>
      <point x="304" y="510"/>
      <point x="304" y="530" type="curve" smooth="yes"/>
      <point x="264" y="530" type="line"/>
      <point x="264" y="480"/>
      <point x="306" y="417"/>
      <point x="375" y="417" type="curve" smooth="yes"/>
      <point x="387" y="417" type="line" smooth="yes"/>
      <point x="442" y="417"/>
      <point x="494" y="471"/>
      <point x="494" y="530" type="curve" smooth="yes"/>
      <point x="494" y="537" type="line" smooth="yes"/>
      <point x="494" y="604"/>
      <point x="444" y="655"/>
      <point x="329" y="655" type="curve" smooth="yes"/>
      <point x="45" y="655" type="line"/>
    </contour>
    <contour>
      <point x="261" y="652" type="curve" smooth="yes"/>
      <point x="301" y="652" type="line"/>
      <point x="301" y="754"/>
      <point x="346" y="812"/>
      <point x="453" y="812" type="curve" smooth="yes"/>
      <point x="563" y="812"/>
      <point x="605" y="753"/>
      <point x="605" y="696" type="curve" smooth="yes"/>
      <point x="605" y="372" type="line" smooth="yes"/>
      <point x="605" y="290"/>
      <point x="553" y="287"/>
      <point x="507" y="287" type="curve" smooth="yes"/>
      <point x="448" y="287" type="line" smooth="yes"/>
      <point x="448" y="247" type="line" smooth="yes"/>
      <point x="507" y="247" type="line" smooth="yes"/>
      <point x="608" y="247"/>
      <point x="645" y="294"/>
      <point x="645" y="372" type="curve" smooth="yes"/>
      <point x="645" y="696" type="line" smooth="yes"/>
      <point x="645" y="801"/>
      <point x="556" y="852"/>
      <point x="453" y="852" type="curve" smooth="yes"/>
      <point x="338" y="852"/>
      <point x="261" y="794"/>
    </contour>
  </outline>
</glyph>
<glyph name="tml_Om" format="1">
  <advance width="1139"/>
  <unicode hex="0BD0"/>
  <outline>
    <contour>
      <point x="307" y="-513" type="curve" smooth="yes"/>
      <point x="551" y="-513" type="line"/>
      <point x="551" y="-473" type="line"/>
      <point x="303" y="-473" type="line" smooth="yes"/>
      <point x="201" y="-473"/>
      <point x="173" y="-414"/>
      <point x="173" y="-352" type="curve" smooth="yes"/>
      <point x="173" y="-239" type="line" smooth="yes"/>
      <point x="173" y="-176"/>
      <point x="169" y="-104"/>
      <point x="282" y="-104" type="curve"/>
      <point x="282" y="-64" type="line"/>
      <point x="140" y="-64"/>
      <point x="132" y="-159"/>
      <point x="133" y="-246" type="curve"/>
      <point x="133" y="-348" type="line" smooth="yes"/>
      <point x="133" y="-459"/>
      <point x="198" y="-513"/>
    </contour>
    <contour>
      <point x="606" y="-475" type="line"/>
      <point x="606" y="-515" type="line"/>
      <point x="841" y="-515" type="line" smooth="yes"/>
      <point x="976" y="-515"/>
      <point x="1034" y="-432"/>
      <point x="1034" y="-324" type="curve" smooth="yes"/>
      <point x="1034" y="-286" type="line" smooth="yes"/>
      <point x="1034" y="-144"/>
      <point x="950" y="-167"/>
      <point x="865" y="-167" type="curve"/>
      <point x="865" y="-207" type="line" smooth="yes"/>
      <point x="946" y="-207"/>
      <point x="994" y="-181"/>
      <point x="994" y="-286" type="curve" smooth="yes"/>
      <point x="994" y="-324" type="line" smooth="yes"/>
      <point x="994" y="-439"/>
      <point x="920" y="-475"/>
      <point x="841" y="-475" type="curve" smooth="yes"/>
    </contour>
    <contour>
      <point x="495" y="31" type="curve" smooth="yes"/>
      <point x="495" y="47"/>
      <point x="508" y="60"/>
      <point x="524" y="60" type="curve" smooth="yes"/>
      <point x="540" y="60"/>
      <point x="553" y="47"/>
      <point x="553" y="31" type="curve" smooth="yes"/>
      <point x="553" y="15"/>
      <point x="540" y="2"/>
      <point x="524" y="2" type="curve" smooth="yes"/>
      <point x="508" y="2"/>
      <point x="495" y="15"/>
    </contour>
    <contour>
      <point x="633" y="-407" type="line" smooth="yes"/>
      <point x="697" y="-407"/>
      <point x="747" y="-399"/>
      <point x="747" y="-250" type="curve" smooth="yes"/>
      <point x="747" y="-223" type="line" smooth="yes"/>
      <point x="747" y="-88"/>
      <point x="712" y="-52"/>
      <point x="637" y="-52" type="curve"/>
      <point x="637" y="-92" type="line"/>
      <point x="696" y="-92"/>
      <point x="707" y="-123"/>
      <point x="707" y="-223" type="curve" smooth="yes"/>
      <point x="707" y="-251" type="line" smooth="yes"/>
      <point x="707" y="-282"/>
      <point x="715" y="-367"/>
      <point x="633" y="-367" type="curve"/>
    </contour>
    <contour>
      <point x="501" y="-368" type="line" smooth="yes"/>
      <point x="541" y="-368" type="line"/>
      <point x="541" y="-213" type="line" smooth="yes"/>
      <point x="541" y="-127"/>
      <point x="542" y="-92"/>
      <point x="603" y="-92" type="curve"/>
      <point x="603" y="-52" type="line"/>
      <point x="521" y="-52"/>
      <point x="501" y="-101"/>
      <point x="501" y="-213" type="curve" smooth="yes"/>
    </contour>
    <contour>
      <point x="335" y="-383" type="line"/>
      <point x="375" y="-383" type="line"/>
      <point x="375" y="-62" type="line"/>
      <point x="335" y="-62" type="line"/>
    </contour>
    <contour>
      <point x="335" y="-407" type="line"/>
      <point x="599" y="-407" type="line"/>
      <point x="599" y="-367" type="line"/>
      <point x="335" y="-367" type="line"/>
    </contour>
    <contour>
      <point x="263" y="389" type="curve" smooth="yes"/>
      <point x="263" y="349" type="line"/>
      <point x="305" y="349"/>
      <point x="357" y="312"/>
      <point x="357" y="213" type="curve" smooth="yes"/>
      <point x="357" y="118"/>
      <point x="307" y="70"/>
      <point x="263" y="70" type="curve"/>
      <point x="263" y="30" type="line"/>
      <point x="335" y="30"/>
      <point x="400" y="105"/>
      <point x="399" y="203" type="curve" smooth="yes"/>
      <point x="399" y="226" type="line" smooth="yes"/>
      <point x="399" y="322"/>
      <point x="336" y="389"/>
    </contour>
    <contour>
      <point x="208" y="389" type="line"/>
      <point x="132" y="389"/>
      <point x="56" y="330"/>
      <point x="56" y="226" type="curve" smooth="yes"/>
      <point x="56" y="202" type="line" smooth="yes"/>
      <point x="56" y="118"/>
      <point x="120" y="30"/>
      <point x="208" y="30" type="curve" smooth="yes"/>
      <point x="208" y="70" type="line"/>
      <point x="158" y="70"/>
      <point x="95" y="121"/>
      <point x="95" y="211" type="curve" smooth="yes"/>
      <point x="95" y="325"/>
      <point x="171" y="349"/>
      <point x="208" y="349" type="curve" smooth="yes"/>
    </contour>
    <contour>
      <point x="56" y="228" type="line"/>
      <point x="67" y="256"/>
      <point x="71" y="283"/>
      <point x="98" y="332" type="curve"/>
      <point x="98" y="558"/>
      <point x="242" y="647"/>
      <point x="545" y="655" type="curve"/>
      <point x="545" y="695" type="line"/>
      <point x="545" y="695" type="line" smooth="yes"/>
      <point x="128" y="695"/>
      <point x="56" y="531"/>
      <point x="56" y="310" type="curve"/>
    </contour>
    <contour>
      <point x="1085" y="165" type="curve" smooth="yes"/>
      <point x="1085" y="398" type="line" smooth="yes"/>
      <point x="1085" y="536"/>
      <point x="1025" y="695"/>
      <point x="598" y="695" type="curve"/>
      <point x="598" y="655" type="line"/>
      <point x="953" y="655"/>
      <point x="1045" y="533"/>
      <point x="1045" y="398" type="curve" smooth="yes"/>
      <point x="1045" y="164" type="line" smooth="yes"/>
      <point x="1039" y="30"/>
      <point x="792" y="47"/>
      <point x="792" y="162" type="curve"/>
      <point x="792" y="350" type="line"/>
      <point x="752" y="350" type="line" smooth="yes"/>
      <point x="752" y="166" type="line" smooth="yes"/>
      <point x="752" y="-16"/>
      <point x="1085" y="-17"/>
    </contour>
    <contour>
      <point x="1021" y="-132" type="curve"/>
      <point x="1021" y="-92" type="line" smooth="yes"/>
      <point x="925" y="-94"/>
      <point x="792" y="-61"/>
      <point x="792" y="27" type="curve" smooth="yes"/>
      <point x="792" y="175" type="line" smooth="yes"/>
      <point x="752" y="276" type="line"/>
      <point x="752" y="25" type="line" smooth="yes"/>
      <point x="752" y="-66"/>
      <point x="858" y="-132"/>
    </contour>
  </outline>
</glyph>
<glyph name="tml_Zero" format="1">
  <advance width="524"/>
  <unicode hex="0BE6"/>
  <outline>
    <contour>
      <point x="281" y="620" type="curve" smooth="yes"/>
      <point x="281" y="576" type="line" smooth="yes"/>
      <point x="409" y="576"/>
      <point x="434" y="489"/>
      <point x="434" y="302" type="curve" smooth="yes"/>
      <point x="434" y="149"/>
      <point x="389" y="28"/>
      <point x="281" y="28" type="curve" smooth="yes"/>
      <point x="281" y="-11" type="line" smooth="yes"/>
      <point x="396" y="-11"/>
      <point x="480" y="70"/>
      <point x="480" y="302" type="curve" smooth="yes"/>
      <point x="480" y="560"/>
      <point x="414" y="620"/>
    </contour>
    <contour>
      <point x="245" y="620" type="line" smooth="yes"/>
      <point x="112" y="620"/>
      <point x="46" y="560"/>
      <point x="46" y="302" type="curve" smooth="yes"/>
      <point x="46" y="70"/>
      <point x="130" y="-11"/>
      <point x="245" y="-11" type="curve" smooth="yes"/>
      <point x="245" y="28" type="line" smooth="yes"/>
      <point x="137" y="28"/>
      <point x="92" y="149"/>
      <point x="92" y="302" type="curve" smooth="yes"/>
      <point x="92" y="489"/>
      <point x="117" y="576"/>
      <point x="245" y="576" type="curve" smooth="yes"/>
    </contour>
  </outline>
</glyph>
<glyph name="tml_Six" format="1">
  <advance width="1037"/>
  <unicode hex="0BEC"/>
  <outline>
    <contour>
      <point x="40" y="172" type="line" smooth="yes"/>
      <point x="40" y="128"/>
      <point x="57" y="0"/>
      <point x="230" y="-1" type="curve"/>
      <point x="230" y="39" type="line"/>
      <point x="168" y="39"/>
      <point x="80" y="58"/>
      <point x="80" y="188" type="curve" smooth="yes"/>
      <point x="80" y="313"/>
      <point x="184" y="331"/>
      <point x="239" y="331" type="curve" smooth="yes"/>
      <point x="997" y="331" type="line"/>
      <point x="997" y="371" type="line"/>
      <point x="246" y="371" type="line" smooth="yes"/>
      <point x="72" y="371"/>
      <point x="40" y="259"/>
      <point x="40" y="196" type="curve" smooth="yes"/>
    </contour>
    <contour>
      <point x="283" y="-1" type="line"/>
      <point x="420" y="-1"/>
      <point x="463" y="95"/>
      <point x="463" y="191" type="curve" smooth="yes"/>
      <point x="463" y="588" type="line"/>
      <point x="423" y="588" type="line"/>
      <point x="423" y="187" type="line" smooth="yes"/>
      <point x="423" y="98"/>
      <point x="378" y="39"/>
      <point x="283" y="39" type="curve"/>
    </contour>
    <contour>
      <point x="165" y="348" type="line"/>
      <point x="205" y="348" type="line"/>
      <point x="206" y="586" type="line"/>
      <point x="165" y="586" type="line"/>
    </contour>
    <contour>
      <point x="165" y="555" type="line"/>
      <point x="288" y="555" type="line"/>
      <point x="288" y="595" type="line"/>
      <point x="165" y="595" type="line"/>
    </contour>
    <contour>
      <point x="342" y="555" type="line"/>
      <point x="610" y="555" type="line"/>
      <point x="610" y="595" type="line"/>
      <point x="342" y="595" type="line"/>
    </contour>
    <contour>
      <point x="695" y="2" type="line"/>
      <point x="735" y="2" type="line"/>
      <point x="736" y="342" type="line"/>
      <point x="695" y="342" type="line"/>
    </contour>
    <contour>
      <point x="900" y="2" type="line"/>
      <point x="940" y="2" type="line"/>
      <point x="941" y="342" type="line"/>
      <point x="900" y="342" type="line"/>
    </contour>
  </outline>
</glyph>
<glyph name="tml_Nine" format="1">
  <advance width="945"/>
  <unicode hex="0BEF"/>
  <outline>
    <contour>
      <point x="512" y="331" type="line"/>
      <point x="685" y="331" type="line" smooth="yes"/>
      <point x="741" y="331"/>
      <point x="855" y="339"/>
      <point x="855" y="204" type="curve" smooth="yes"/>
      <point x="855" y="108"/>
      <point x="766" y="90"/>
      <point x="743" y="90" type="curve" smooth="yes"/>
      <point x="712" y="90"/>
      <point x="623" y="107"/>
      <point x="623" y="205" type="curve" smooth="yes"/>
      <point x="583" y="205" type="line"/>
      <point x="583" y="120"/>
      <point x="647" y="50"/>
      <point x="737" y="50" type="curve" smooth="yes"/>
      <point x="751" y="50" type="line" smooth="yes"/>
      <point x="806" y="50"/>
      <point x="895" y="100"/>
      <point x="895" y="200" type="curve" smooth="yes"/>
      <point x="895" y="215" type="line" smooth="yes"/>
      <point x="895" y="336"/>
      <point x="799" y="371"/>
      <point x="688" y="371" type="curve" smooth="yes"/>
      <point x="512" y="371" type="line"/>
    </contour>
    <contour>
      <point x="40" y="172" type="line" smooth="yes"/>
      <point x="40" y="128"/>
      <point x="57" y="0"/>
      <point x="230" y="-1" type="curve"/>
      <point x="230" y="39" type="line"/>
      <point x="168" y="39"/>
      <point x="80" y="58"/>
      <point x="80" y="188" type="curve" smooth="yes"/>
      <point x="80" y="313"/>
      <point x="184" y="331"/>
      <point x="239" y="331" type="curve" smooth="yes"/>
      <point x="565" y="331" type="line"/>
      <point x="565" y="371" type="line"/>
      <point x="246" y="371" type="line" smooth="yes"/>
      <point x="72" y="371"/>
      <point x="40" y="259"/>
      <point x="40" y="196" type="curve" smooth="yes"/>
    </contour>
    <contour>
      <point x="283" y="-1" type="line"/>
      <point x="420" y="-1"/>
      <point x="463" y="95"/>
      <point x="463" y="191" type="curve" smooth="yes"/>
      <point x="463" y="588" type="line"/>
      <point x="423" y="588" type="line"/>
      <point x="423" y="187" type="line" smooth="yes"/>
      <point x="423" y="98"/>
      <point x="378" y="39"/>
      <point x="283" y="39" type="curve"/>
    </contour>
    <contour>
      <point x="165" y="348" type="line"/>
      <point x="205" y="348" type="line"/>
      <point x="206" y="586" type="line"/>
      <point x="165" y="586" type="line"/>
    </contour>
    <contour>
      <point x="165" y="555" type="line"/>
      <point x="288" y="555" type="line"/>
      <point x="288" y="595" type="line"/>
      <point x="165" y="595" type="line"/>
    </contour>
    <contour>
      <point x="342" y="555" type="line"/>
      <point x="610" y="555" type="line"/>
      <point x="610" y="595" type="line"/>
      <point x="342" y="595" type="line"/>
    </contour>
  </outline>
</glyph>
<glyph name="tml_Thousand" format="1">
  <advance width="1058"/>
  <unicode hex="0BF2"/>
  <outline>
    <contour>
      <point x="655" y="-61" type="curve" smooth="yes"/>
      <point x="747" y="-61"/>
      <point x="791" y="6"/>
      <point x="791" y="96" type="curve" smooth="yes"/>
      <point x="791" y="350" type="line"/>
      <point x="751" y="350" type="line"/>
      <point x="751" y="100" type="line" smooth="yes"/>
      <point x="751" y="-7"/>
      <point x="691" y="-21"/>
      <point x="654" y="-21" type="curve" smooth="yes"/>
      <point x="640" y="-21"/>
      <point x="569" y="-12"/>
      <point x="569" y="65" type="curve" smooth="yes"/>
      <point x="569" y="139"/>
      <point x="629" y="153"/>
      <point x="655" y="153" type="curve" smooth="yes"/>
      <point x="655" y="193" type="line"/>
      <point x="569" y="193"/>
      <point x="529" y="128"/>
      <point x="529" y="69" type="curve" smooth="yes"/>
      <point x="529" y="-3"/>
      <point x="577" y="-61"/>
    </contour>
    <contour>
      <point x="591" y="-258" type="curve"/>
      <point x="631" y="-258" type="line" smooth="yes"/>
      <point x="633" y="-193"/>
      <point x="641" y="-178"/>
      <point x="700" y="-178" type="curve" smooth="yes"/>
      <point x="821" y="-178" type="line" smooth="yes"/>
      <point x="926" y="-178"/>
      <point x="1018" y="-130"/>
      <point x="1018" y="16" type="curve" smooth="yes"/>
      <point x="1018" y="148"/>
      <point x="927" y="204"/>
      <point x="817" y="204" type="curve" smooth="yes"/>
      <point x="817" y="164" type="line"/>
      <point x="883" y="164"/>
      <point x="978" y="140"/>
      <point x="978" y="16" type="curve" smooth="yes"/>
      <point x="978" y="-121"/>
      <point x="883" y="-138"/>
      <point x="821" y="-138" type="curve" smooth="yes"/>
      <point x="703" y="-138" type="line" smooth="yes"/>
      <point x="625" y="-138"/>
      <point x="591" y="-165"/>
    </contour>
    <contour>
      <point x="40" y="172" type="line" smooth="yes"/>
      <point x="40" y="128"/>
      <point x="57" y="0"/>
      <point x="230" y="-1" type="curve"/>
      <point x="230" y="39" type="line"/>
      <point x="168" y="39"/>
      <point x="80" y="58"/>
      <point x="80" y="188" type="curve" smooth="yes"/>
      <point x="80" y="313"/>
      <point x="184" y="331"/>
      <point x="239" y="331" type="curve" smooth="yes"/>
      <point x="919" y="331" type="line"/>
      <point x="919" y="371" type="line"/>
      <point x="246" y="371" type="line" smooth="yes"/>
      <point x="72" y="371"/>
      <point x="40" y="259"/>
      <point x="40" y="196" type="curve" smooth="yes"/>
    </contour>
    <contour>
      <point x="283" y="-1" type="line"/>
      <point x="420" y="-1"/>
      <point x="463" y="95"/>
      <point x="463" y="191" type="curve" smooth="yes"/>
      <point x="463" y="588" type="line"/>
      <point x="423" y="588" type="line"/>
      <point x="423" y="187" type="line" smooth="yes"/>
      <point x="423" y="98"/>
      <point x="378" y="39"/>
      <point x="283" y="39" type="curve"/>
    </contour>
    <contour>
      <point x="165" y="348" type="line"/>
      <point x="205" y="348" type="line"/>
      <point x="206" y="586" type="line"/>
      <point x="165" y="586" type="line"/>
    </contour>
    <contour>
      <point x="342" y="555" type="line"/>
      <point x="610" y="555" type="line"/>
      <point x="610" y="595" type="line"/>
      <point x="342" y="595" type="line"/>
    </contour>
    <contour>
      <point x="165" y="555" type="line"/>
      <point x="288" y="555" type="line"/>
      <point x="288" y="595" type="line"/>
      <point x="165" y="595" type="line"/>
    </contour>
  </outline>
</glyph>
<glyph name="tml_Month" format="1">
  <advance width="1003"/>
  <unicode hex="0BF4"/>
  <outline>
    <contour>
      <point x="982" y="644" type="curve"/>
      <point x="982" y="684" type="line" smooth="yes"/>
      <point x="917" y="686"/>
      <point x="902" y="694"/>
      <point x="902" y="753" type="curve" smooth="yes"/>
      <point x="902" y="874" type="line" smooth="yes"/>
      <point x="902" y="979"/>
      <point x="854" y="1071"/>
      <point x="708" y="1071" type="curve" smooth="yes"/>
      <point x="576" y="1071"/>
      <point x="520" y="980"/>
      <point x="520" y="870" type="curve" smooth="yes"/>
      <point x="560" y="870" type="line"/>
      <point x="560" y="936"/>
      <point x="584" y="1031"/>
      <point x="708" y="1031" type="curve" smooth="yes"/>
      <point x="845" y="1031"/>
      <point x="862" y="936"/>
      <point x="862" y="874" type="curve" smooth="yes"/>
      <point x="862" y="756" type="line" smooth="yes"/>
      <point x="862" y="678"/>
      <point x="889" y="644"/>
    </contour>
    <contour>
      <point x="785" y="708" type="curve" smooth="yes"/>
      <point x="785" y="800"/>
      <point x="718" y="844"/>
      <point x="628" y="844" type="curve" smooth="yes"/>
      <point x="374" y="844" type="line"/>
      <point x="374" y="804" type="line"/>
      <point x="624" y="804" type="line" smooth="yes"/>
      <point x="731" y="804"/>
      <point x="745" y="744"/>
      <point x="745" y="707" type="curve" smooth="yes"/>
      <point x="745" y="693"/>
      <point x="736" y="622"/>
      <point x="659" y="622" type="curve" smooth="yes"/>
      <point x="585" y="622"/>
      <point x="571" y="682"/>
      <point x="571" y="708" type="curve" smooth="yes"/>
      <point x="531" y="708" type="line"/>
      <point x="531" y="622"/>
      <point x="596" y="582"/>
      <point x="655" y="582" type="curve" smooth="yes"/>
      <point x="727" y="582"/>
      <point x="785" y="630"/>
    </contour>
    <contour>
      <point x="332" y="598" type="line" smooth="yes"/>
      <point x="272" y="663"/>
      <point x="228" y="768"/>
      <point x="349" y="804" type="curve" smooth="yes"/>
      <point x="349" y="843" type="line"/>
      <point x="140" y="816"/>
      <point x="245" y="572"/>
      <point x="325" y="572" type="curve" smooth="yes"/>
    </contour>
    <contour>
      <point x="245" y="39" type="line" smooth="yes"/>
      <point x="285" y="39" type="line"/>
      <point x="285" y="434" type="line" smooth="yes"/>
      <point x="285" y="443"/>
      <point x="279" y="565"/>
      <point x="363" y="565" type="curve"/>
      <point x="363" y="605" type="line"/>
      <point x="307" y="605"/>
      <point x="244" y="567"/>
      <point x="245" y="434" type="curve" smooth="yes"/>
    </contour>
    <contour>
      <point x="417" y="0" type="line" smooth="yes"/>
      <point x="481" y="0"/>
      <point x="541" y="48"/>
      <point x="541" y="197" type="curve" smooth="yes"/>
      <point x="541" y="434" type="line" smooth="yes"/>
      <point x="541" y="569"/>
      <point x="475" y="605"/>
      <point x="417" y="605" type="curve"/>
      <point x="417" y="565" type="line"/>
      <point x="507" y="565"/>
      <point x="501" y="442"/>
      <point x="501" y="434" type="curve" smooth="yes"/>
      <point x="501" y="196" type="line" smooth="yes"/>
      <point x="501" y="165"/>
      <point x="499" y="40"/>
      <point x="417" y="40" type="curve"/>
    </contour>
    <contour>
      <point x="39" y="0" type="line"/>
      <point x="363" y="0" type="line"/>
      <point x="363" y="40" type="line"/>
      <point x="39" y="40" type="line"/>
    </contour>
    <contour>
      <point x="39" y="24" type="line"/>
      <point x="79" y="24" type="line"/>
      <point x="79" y="595" type="line"/>
      <point x="39" y="595" type="line"/>
    </contour>
  </outline>
</glyph>
<glyph name="tml_Debit" format="1">
  <advance width="589"/>
  <unicode hex="0BF6"/>
  <outline>
    <contour>
      <point x="216" y="-218" type="curve"/>
      <point x="216" y="-258" type="line"/>
      <point x="336" y="-258"/>
      <point x="344" y="-159"/>
      <point x="344" y="-81" type="curve" smooth="yes"/>
      <point x="344" y="18" type="line" smooth="yes"/>
      <point x="344" y="239" type="line" smooth="yes"/>
      <point x="304" y="239" type="line"/>
      <point x="304" y="21" type="line"/>
      <point x="304" y="-103" type="line" smooth="yes"/>
      <point x="304" y="-185"/>
      <point x="275" y="-218"/>
    </contour>
    <contour>
      <point x="40" y="-150" type="curve" smooth="yes"/>
      <point x="40" y="-156" type="line" smooth="yes"/>
      <point x="41" y="-238"/>
      <point x="114" y="-258"/>
      <point x="150" y="-258" type="curve" smooth="yes"/>
      <point x="163" y="-258" type="line"/>
      <point x="163" y="-218" type="line"/>
      <point x="150" y="-218" type="line" smooth="yes"/>
      <point x="57" y="-218"/>
      <point x="56" y="-95"/>
      <point x="151" y="-95" type="curve" smooth="yes"/>
      <point x="549" y="-95" type="line"/>
      <point x="549" y="381" type="line" smooth="yes"/>
      <point x="509" y="381" type="line" smooth="yes"/>
      <point x="509" y="-56" type="line"/>
      <point x="151" y="-56" type="line" smooth="yes"/>
      <point x="78" y="-56"/>
      <point x="40" y="-99"/>
    </contour>
    <contour>
      <point x="49" y="146" type="line" smooth="yes"/>
      <point x="49" y="68"/>
      <point x="89" y="0"/>
      <point x="163" y="0" type="curve"/>
      <point x="163" y="40" type="line"/>
      <point x="131" y="40"/>
      <point x="89" y="65"/>
      <point x="89" y="146" type="curve" smooth="yes"/>
      <point x="89" y="595" type="line"/>
      <point x="49" y="595" type="line"/>
    </contour>
    <contour>
      <point x="217" y="0" type="line"/>
      <point x="255" y="0"/>
      <point x="344" y="-15"/>
      <point x="344" y="162" type="curve" smooth="yes"/>
      <point x="344" y="487" type="line"/>
      <point x="304" y="487" type="line"/>
      <point x="304" y="162" type="line" smooth="yes"/>
      <point x="304" y="45"/>
      <point x="259" y="40"/>
      <point x="217" y="40" type="curve"/>
    </contour>
  </outline>
</glyph>
<glyph name="tml_Number" format="1">
  <advance width="976"/>
  <unicode hex="0BFA"/>
  <outline>
    <contour>
      <point x="301" y="591" type="line" smooth="yes"/>
      <point x="241" y="656"/>
      <point x="197" y="761"/>
      <point x="318" y="797" type="curve" smooth="yes"/>
      <point x="318" y="836" type="line"/>
      <point x="109" y="809"/>
      <point x="214" y="565"/>
      <point x="294" y="565" type="curve" smooth="yes"/>
    </contour>
    <contour>
      <point x="754" y="701" type="curve" smooth="yes"/>
      <point x="754" y="793"/>
      <point x="687" y="837"/>
      <point x="597" y="837" type="curve" smooth="yes"/>
      <point x="343" y="837" type="line"/>
      <point x="343" y="797" type="line"/>
      <point x="593" y="797" type="line" smooth="yes"/>
      <point x="700" y="797"/>
      <point x="714" y="737"/>
      <point x="714" y="700" type="curve" smooth="yes"/>
      <point x="714" y="686"/>
      <point x="705" y="615"/>
      <point x="628" y="615" type="curve" smooth="yes"/>
      <point x="554" y="615"/>
      <point x="540" y="675"/>
      <point x="540" y="701" type="curve" smooth="yes"/>
      <point x="500" y="701" type="line"/>
      <point x="500" y="615"/>
      <point x="565" y="575"/>
      <point x="624" y="575" type="curve" smooth="yes"/>
      <point x="696" y="575"/>
      <point x="754" y="623"/>
    </contour>
    <contour>
      <point x="951" y="637" type="curve"/>
      <point x="951" y="677" type="line" smooth="yes"/>
      <point x="886" y="679"/>
      <point x="871" y="687"/>
      <point x="871" y="746" type="curve" smooth="yes"/>
      <point x="871" y="867" type="line" smooth="yes"/>
      <point x="871" y="972"/>
      <point x="823" y="1064"/>
      <point x="677" y="1064" type="curve" smooth="yes"/>
      <point x="545" y="1064"/>
      <point x="489" y="973"/>
      <point x="489" y="863" type="curve" smooth="yes"/>
      <point x="529" y="863" type="line"/>
      <point x="529" y="929"/>
      <point x="553" y="1024"/>
      <point x="677" y="1024" type="curve" smooth="yes"/>
      <point x="814" y="1024"/>
      <point x="831" y="929"/>
      <point x="831" y="867" type="curve" smooth="yes"/>
      <point x="831" y="749" type="line" smooth="yes"/>
      <point x="831" y="671"/>
      <point x="858" y="637"/>
    </contour>
    <component base="tml_Na" xOffset="-37"/>
  </outline>
</glyph>
<glyph name="si_vocalicL" format="1">
  <advance width="884"/>
  <unicode hex="0D8F"/>
  <outline>
    <contour>
      <point x="53.7998" y="69" type="curve" smooth="yes"/>
      <point x="53.7998" y="110.6"/>
      <point x="87.4004" y="144.2"/>
      <point x="129" y="144.2" type="curve" smooth="yes"/>
      <point x="170.6" y="144.2"/>
      <point x="204.2" y="110.6"/>
      <point x="204.2" y="69" type="curve" smooth="yes"/>
      <point x="204.2" y="27.4004"/>
      <point x="170.6" y="-6.2002"/>
      <point x="129" y="-6.2002" type="curve" smooth="yes"/>
      <point x="87.4004" y="-6.2002"/>
      <point x="53.7998" y="27.4004"/>
    </contour>
    <contour>
      <point x="679.8" y="69" type="curve" smooth="yes"/>
      <point x="679.8" y="110.6"/>
      <point x="713.4" y="144.2"/>
      <point x="755" y="144.2" type="curve" smooth="yes"/>
      <point x="796.6" y="144.2"/>
      <point x="830.2" y="110.6"/>
      <point x="830.2" y="69" type="curve" smooth="yes"/>
      <point x="830.2" y="27.4004"/>
      <point x="796.6" y="-6.2002"/>
      <point x="755" y="-6.2002" type="curve" smooth="yes"/>
      <point x="713.4" y="-6.2002"/>
      <point x="679.8" y="27.4004"/>
    </contour>
    <contour>
      <point x="30" y="201.842" type="curve"/>
      <point x="70" y="202" type="line"/>
      <point x="70" y="155.109"/>
      <point x="81.7949" y="94.667"/>
      <point x="96.3535" y="69.2139" type="curve"/>
      <point x="62.9932" y="32.9053" type="line"/>
      <point x="41.3633" y="73.7725"/>
      <point x="30" y="138.929"/>
    </contour>
    <contour>
      <point x="814" y="202" type="curve"/>
      <point x="854" y="201.842" type="line"/>
      <point x="854" y="138.929"/>
      <point x="842.637" y="73.7725"/>
      <point x="821.007" y="32.9053" type="curve"/>
      <point x="787.646" y="69.2139" type="line"/>
      <point x="802.205" y="94.667"/>
      <point x="814" y="155.109"/>
    </contour>
    <contour>
      <point x="202" y="507" type="curve"/>
      <point x="202" y="464" type="line"/>
      <point x="178" y="472" type="line" smooth="yes"/>
      <point x="168.491" y="475.091"/>
      <point x="157.399" y="477.22"/>
      <point x="146.014" y="477.22" type="curve" smooth="yes"/>
      <point x="109.511" y="477.22"/>
      <point x="70" y="455.325"/>
      <point x="70" y="373" type="curve" smooth="yes"/>
      <point x="70" y="251" type="line"/>
      <point x="30" y="251" type="line"/>
      <point x="30" y="371" type="line" smooth="yes"/>
      <point x="30" y="464.676"/>
      <point x="75.3756" y="518.018"/>
      <point x="144.113" y="518.018" type="curve" smooth="yes"/>
      <point x="161.962" y="518.018"/>
      <point x="181.386" y="514.421"/>
    </contour>
    <contour>
      <point x="682" y="507" type="line"/>
      <point x="702.614" y="514.421"/>
      <point x="722.038" y="518.018"/>
      <point x="739.887" y="518.018" type="curve" smooth="yes"/>
      <point x="808.624" y="518.018"/>
      <point x="854" y="464.676"/>
      <point x="854" y="371" type="curve" smooth="yes"/>
      <point x="854" y="251" type="line"/>
      <point x="814" y="251" type="line"/>
      <point x="814" y="373" type="line" smooth="yes"/>
      <point x="814" y="455.325"/>
      <point x="774.489" y="477.22"/>
      <point x="737.986" y="477.22" type="curve" smooth="yes"/>
      <point x="726.601" y="477.22"/>
      <point x="715.509" y="475.091"/>
      <point x="706" y="472" type="curve" smooth="yes"/>
      <point x="682" y="464" type="line"/>
    </contour>
    <component base="si_Pa" xOffset="132"/>
  </outline>
</glyph>
<glyph name="si_Ta" format="1">
  <advance width="760"/>
  <unicode hex="0DAD"/>
  <outline>
    <contour>
      <point x="30" y="196" type="line"/>
      <point x="30" y="246" type="line"/>
      <point x="320" y="494" type="line"/>
      <point x="375.041" y="536.719"/>
      <point x="443.008" y="559.834"/>
      <point x="507.668" y="559.834" type="curve" smooth="yes"/>
      <point x="624.207" y="559.834"/>
      <point x="730" y="484.744"/>
      <point x="730" y="314" type="curve" smooth="yes"/>
      <point x="730" y="192" type="line" smooth="yes"/>
      <point x="729.58" y="65.7373"/>
      <point x="693.296" y="-1"/>
      <point x="554" y="-1" type="curve"/>
      <point x="554" y="39" type="line"/>
      <point x="616.112" y="39"/>
      <point x="690" y="47.959"/>
      <point x="690" y="192" type="curve" smooth="yes"/>
      <point x="690" y="314" type="line" smooth="yes"/>
      <point x="690" y="454.189"/>
      <point x="597.759" y="520.572"/>
      <point x="498.843" y="520.572" type="curve" smooth="yes"/>
      <point x="446.546" y="520.572"/>
      <point x="392.383" y="502.016"/>
      <point x="349" y="466" type="curve"/>
      <point x="69" y="225" type="line"/>
    </contour>
    <contour>
      <point x="30" y="196" type="curve"/>
      <point x="49.7656" y="234.221" type="line"/>
      <point x="53.7686" y="234.969"/>
      <point x="57.6396" y="235.327"/>
      <point x="61.3896" y="235.327" type="curve" smooth="yes"/>
      <point x="148.853" y="235.327"/>
      <point x="100.451" y="36.1543"/>
      <point x="314" y="36.1543" type="curve" smooth="yes"/>
      <point x="417.317" y="36.1543"/>
      <point x="468.056" y="105.088"/>
      <point x="468.056" y="188.818" type="curve" smooth="yes"/>
      <point x="468.056" y="275.191"/>
      <point x="460.403" y="341.519"/>
      <point x="324.777" y="370.904" type="curve"/>
      <point x="362" y="403" type="line"/>
      <point x="493.94" y="373.184"/>
      <point x="508.384" y="280.072"/>
      <point x="508.384" y="188.966" type="curve" smooth="yes"/>
      <point x="508.384" y="81.1544"/>
      <point x="445.63" y="-4.34473"/>
      <point x="314" y="-4.34473" type="curve" smooth="yes"/>
      <point x="193.409" y="-4.34473"/>
      <point x="144.04" y="46.2065"/>
      <point x="115.573" y="96.7576" type="curve" smooth="yes"/>
      <point x="87.1053" y="147.309"/>
      <point x="79.5393" y="197.86"/>
      <point x="42.5547" y="197.86" type="curve" smooth="yes"/>
      <point x="38.4893" y="197.86"/>
      <point x="34.3115" y="197.262"/>
    </contour>
    <contour>
      <point x="65" y="452" type="line"/>
      <point x="96.0312" y="533.159"/>
      <point x="156.235" y="565.088"/>
      <point x="213.841" y="565.088" type="curve" smooth="yes"/>
      <point x="276.9" y="565.088"/>
      <point x="336.845" y="526.827"/>
      <point x="352" y="473" type="curve"/>
      <point x="321" y="445" type="line"/>
      <point x="308.237" y="490.735"/>
      <point x="261.535" y="521.199"/>
      <point x="213.232" y="521.199" type="curve" smooth="yes"/>
      <point x="170.707" y="521.199"/>
      <point x="126.941" y="497.588"/>
      <point x="104" y="440" type="curve"/>
    </contour>
  </outline>
</glyph>
<glyph name="si_La" format="1">
  <advance width="606"/>
  <unicode hex="0DBD"/>
  <outline>
    <contour>
      <point x="276" y="234.5" type="curve" smooth="yes"/>
      <point x="276" y="234.5"/>
      <point x="276" y="292.52"/>
      <point x="276" y="299.5" type="curve"/>
      <point x="319" y="299.5" type="line"/>
      <point x="319" y="234.5" type="line" smooth="yes"/>
      <point x="319" y="171.441"/>
      <point x="367.608" y="138.414"/>
      <point x="418.599" y="138.414" type="curve" smooth="yes"/>
      <point x="474.736" y="138.414"/>
      <point x="533.762" y="178.443"/>
      <point x="534" y="262.5" type="curve" smooth="yes"/>
      <point x="534.195" y="335.5" type="line" smooth="yes"/>
      <point x="533.856" y="493.147"/>
      <point x="443.391" y="530"/>
      <point x="330" y="530" type="curve"/>
      <point x="330" y="570" type="line"/>
      <point x="438.902" y="570"/>
      <point x="576" y="546.216"/>
      <point x="576" y="335.5" type="curve" smooth="yes"/>
      <point x="576" y="262.5" type="line" smooth="yes"/>
      <point x="576" y="148.563"/>
      <point x="496.88" y="94.6728"/>
      <point x="419.904" y="94.6728" type="curve" smooth="yes"/>
      <point x="346.99" y="94.6728"/>
      <point x="276" y="143.026"/>
    </contour>
    <contour>
      <point x="270" y="-169" type="line"/>
      <point x="163.82" y="-169"/>
      <point x="30" y="-125.216"/>
      <point x="30" y="75.5" type="curve" smooth="yes"/>
      <point x="30" y="325.5" type="line" smooth="yes"/>
      <point x="30" y="526.216"/>
      <point x="163.82" y="570"/>
      <point x="270" y="570" type="curve"/>
      <point x="270" y="530" type="line"/>
      <point x="160.614" y="530"/>
      <point x="73.1318" y="473.147"/>
      <point x="72.8047" y="325.5" type="curve" smooth="yes"/>
      <point x="72.8047" y="75.5" type="line" smooth="yes"/>
      <point x="73.1318" y="-72.1475"/>
      <point x="160.614" y="-129"/>
      <point x="270" y="-129" type="curve"/>
    </contour>
    <contour>
      <point x="203" y="290.5" type="line"/>
      <point x="203" y="330.5" type="line"/>
      <point x="393" y="330.5" type="line"/>
      <point x="393" y="290.5" type="line"/>
    </contour>
    <contour>
      <point x="330" y="-129.1" type="curve"/>
      <point x="330" y="-169.1" type="line"/>
      <point x="427.035" y="-169.1"/>
      <point x="519.201" y="-137.797"/>
      <point x="563" y="-10.875" type="curve"/>
      <point x="524" y="0" type="line"/>
      <point x="490.998" y="-90.0127"/>
      <point x="428.963" y="-129.1"/>
    </contour>
  </outline>
</glyph>
<glyph name="si_Halant" format="1">
  <advance width="100"/>
  <unicode hex="0DCA"/>
  <outline>
    <contour>
      <point x="30.001" y="619" type="line"/>
      <point x="30.001" y="819" type="line"/>
      <point x="70.001" y="819" type="line"/>
      <point x="70.001" y="619" type="line"/>
    </contour>
  </outline>
</glyph>
<glyph name="si_MatraAae" format="1">
  <advance width="277"/>
  <unicode hex="0DD1"/>
  <outline>
    <contour>
      <point x="49.9893" y="206.358" type="line" smooth="yes"/>
      <point x="49.9893" y="269.528"/>
      <point x="64" y="304"/>
      <point x="179" y="383" type="curve"/>
      <point x="247" y="383" type="line"/>
      <point x="92" y="275"/>
      <point x="90" y="251.229"/>
      <point x="90" y="206" type="curve" smooth="yes"/>
      <point x="90" y="160" type="line" smooth="yes"/>
      <point x="90" y="111"/>
      <point x="92.8037" y="40"/>
      <point x="215" y="40" type="curve" smooth="yes"/>
      <point x="223.854" y="40"/>
      <point x="242.681" y="40"/>
      <point x="247" y="40" type="curve"/>
      <point x="247" y="0" type="line"/>
      <point x="239.533" y="-0.00195312"/>
      <point x="223.229" y="-0.00292969"/>
      <point x="216.19" y="-0.00292969" type="curve" smooth="yes"/>
      <point x="119.365" y="-0.00292969"/>
      <point x="50" y="33"/>
      <point x="50" y="160" type="curve" smooth="yes"/>
    </contour>
    <contour>
      <point x="50" y="423" type="line"/>
      <point x="184" y="534" type="line"/>
      <point x="247" y="534" type="line"/>
      <point x="112" y="423" type="line"/>
    </contour>
    <contour>
      <point x="50" y="534" type="line"/>
      <point x="50" y="574" type="line"/>
      <point x="247" y="574" type="line"/>
      <point x="247" y="534" type="line"/>
    </contour>
    <contour>
      <point x="50" y="383" type="line"/>
      <point x="50" y="423" type="line"/>
      <point x="247" y="423" type="line"/>
      <point x="247" y="383" type="line"/>
    </contour>
  </outline>
</glyph>
<glyph name="zwj" format="1">
  <advance width="0"/>
  <unicode hex="200D"/>
  <outline>
    <contour>
      <point x="-20" y="9" type="line"/>
      <point x="-20" y="629" type="line"/>
      <point x="20" y="629" type="line"/>
      <point x="20" y="9" type="line"/>
    </contour>
    <contour>
      <point x="-144.522" y="488.881" type="line"/>
      <point x="-167.255" y="521.794" type="line"/>
      <point x="156.471" y="744.62" type="line"/>
      <point x="179.201" y="711.707" type="line"/>
    </contour>
    <contour>
      <point x="168.051" y="521.844" type="line"/>
      <point x="145.394" y="488.881" type="line"/>
      <point x="-178.129" y="712" type="line"/>
      <point x="-155.472" y="744.964" type="line"/>
    </contour>
  </outline>
</glyph>
<glyph name="endash" format="1">
  <advance width="532"/>
  <unicode hex="2013"/>
  <outline>
    <contour>
      <point x="26" y="275" type="line"/>
      <point x="26" y="313" type="line"/>
      <point x="506" y="313" type="line"/>
      <point x="506" y="275" type="line"/>
    </contour>
  </outline>
</glyph>
<glyph name="daggerdbl" format="1">
  <advance width="453"/>
  <unicode hex="2021"/>
  <outline>
    <contour>
      <point x="26" y="174" type="line"/>
      <point x="26" y="212" type="line"/>
      <point x="207" y="212" type="line"/>
      <point x="207" y="496" type="line"/>
      <point x="26" y="496" type="line"/>
      <point x="26" y="534" type="line"/>
      <point x="207" y="534" type="line"/>
      <point x="207" y="764" type="line"/>
      <point x="247" y="764" type="line"/>
      <point x="247" y="534" type="line"/>
      <point x="427" y="534" type="line"/>
      <point x="427" y="496" type="line"/>
      <point x="247" y="496" type="line"/>
      <point x="247" y="212" type="line"/>
      <point x="427" y="212" type="line"/>
      <point x="427" y="174" type="line"/>
      <point x="247" y="174" type="line"/>
      <point x="247" y="-56" type="line"/>
      <point x="207" y="-56" type="line"/>
      <point x="207" y="174" type="line"/>
    </contour>
  </outline>
</glyph>
<glyph name="perthousand" format="1">
  <advance width="897"/>
  <unicode hex="2030"/>
  <outline>
    <contour>
      <point x="120" y="352" type="line"/>
      <point x="87" y="354"/>
      <point x="19" y="378"/>
      <point x="19" y="529" type="curve" smooth="yes"/>
      <point x="19" y="660"/>
      <point x="76" y="699"/>
      <point x="121" y="701" type="curve"/>
      <point x="121" y="672" type="line"/>
      <point x="95" y="672"/>
      <point x="51" y="641"/>
      <point x="50" y="551" type="curve" smooth="yes"/>
      <point x="49" y="537"/>
      <point x="50" y="532"/>
      <point x="50" y="522" type="curve" smooth="yes"/>
      <point x="50" y="401"/>
      <point x="100" y="382"/>
      <point x="120" y="381" type="curve"/>
    </contour>
    <contour>
      <point x="151" y="352" type="curve"/>
      <point x="151" y="381" type="line"/>
      <point x="172" y="382"/>
      <point x="222" y="401"/>
      <point x="222" y="522" type="curve" smooth="yes"/>
      <point x="222" y="532"/>
      <point x="222" y="537"/>
      <point x="222" y="551" type="curve" smooth="yes"/>
      <point x="221" y="641"/>
      <point x="176" y="672"/>
      <point x="151" y="672" type="curve"/>
      <point x="151" y="701" type="line"/>
      <point x="195" y="699"/>
      <point x="252" y="660"/>
      <point x="252" y="529" type="curve" smooth="yes"/>
      <point x="252" y="378"/>
      <point x="184" y="354"/>
    </contour>
    <contour>
      <point x="487" y="0" type="line"/>
      <point x="454" y="2"/>
      <point x="386" y="26"/>
      <point x="386" y="177" type="curve" smooth="yes"/>
      <point x="386" y="308"/>
      <point x="443" y="347"/>
      <point x="488" y="349" type="curve"/>
      <point x="488" y="320" type="line"/>
      <point x="462" y="320"/>
      <point x="418" y="289"/>
      <point x="417" y="199" type="curve" smooth="yes"/>
      <point x="416" y="185"/>
      <point x="417" y="180"/>
      <point x="417" y="170" type="curve" smooth="yes"/>
      <point x="417" y="49"/>
      <point x="467" y="30"/>
      <point x="487" y="29" type="curve"/>
    </contour>
    <contour>
      <point x="518" y="0" type="curve"/>
      <point x="518" y="29" type="line"/>
      <point x="539" y="30"/>
      <point x="589" y="49"/>
      <point x="589" y="170" type="curve" smooth="yes"/>
      <point x="589" y="180"/>
      <point x="589" y="185"/>
      <point x="589" y="199" type="curve" smooth="yes"/>
      <point x="588" y="289"/>
      <point x="543" y="320"/>
      <point x="518" y="320" type="curve"/>
      <point x="518" y="349" type="line"/>
      <point x="562" y="347"/>
      <point x="619" y="308"/>
      <point x="619" y="177" type="curve" smooth="yes"/>
      <point x="619" y="26"/>
      <point x="551" y="2"/>
    </contour>
    <contour>
      <point x="746" y="0" type="line"/>
      <point x="713" y="2"/>
      <point x="645" y="26"/>
      <point x="645" y="177" type="curve" smooth="yes"/>
      <point x="645" y="308"/>
      <point x="702" y="347"/>
      <point x="747" y="349" type="curve"/>
      <point x="747" y="320" type="line"/>
      <point x="721" y="320"/>
      <point x="677" y="289"/>
      <point x="676" y="199" type="curve" smooth="yes"/>
      <point x="675" y="185"/>
      <point x="676" y="180"/>
      <point x="676" y="170" type="curve" smooth="yes"/>
      <point x="676" y="49"/>
      <point x="726" y="30"/>
      <point x="746" y="29" type="curve"/>
    </contour>
    <contour>
      <point x="777" y="0" type="curve"/>
      <point x="777" y="29" type="line"/>
      <point x="798" y="30"/>
      <point x="848" y="49"/>
      <point x="848" y="170" type="curve" smooth="yes"/>
      <point x="848" y="180"/>
      <point x="848" y="185"/>
      <point x="848" y="199" type="curve" smooth="yes"/>
      <point x="847" y="289"/>
      <point x="802" y="320"/>
      <point x="777" y="320" type="curve"/>
      <point x="777" y="349" type="line"/>
      <point x="821" y="347"/>
      <point x="878" y="308"/>
      <point x="878" y="177" type="curve" smooth="yes"/>
      <point x="878" y="26"/>
      <point x="810" y="2"/>
    </contour>
    <contour>
      <point x="89" y="0" type="line"/>
      <point x="521" y="700" type="line"/>
      <point x="557" y="700" type="line"/>
      <point x="125" y="0" type="line"/>
    </contour>
  </outline>
</glyph>
<glyph name="guilsinglleft" format="1">
  <advance width="338"/>
  <unicode hex="2039"/>
  <outline>
    <contour>
      <point x="76" y="292" type="line"/>
      <point x="207" y="500" type="line"/>
      <point x="257" y="500" type="line"/>
      <point x="126" y="292" type="line"/>
      <point x="257" y="79" type="line"/>
      <point x="207" y="79" type="line"/>
    </contour>
  </outline>
</glyph>
<glyph name="guilsinglright" format="1">
  <advance width="338"/>
  <unicode hex="203A"/>
  <outline>
    <contour>
      <point x="78" y="79" type="line"/>
      <point x="209" y="292" type="line"/>
      <point x="78" y="500" type="line"/>
      <point x="128" y="500" type="line"/>
      <point x="259" y="292" type="line"/>
      <point x="128" y="79" type="line"/>
    </contour>
  </outline>
</glyph>
<glyph name="trademark" format="1">
  <advance width="463"/>
  <unicode hex="2122"/>
  <outline>
    <contour>
      <point x="26" y="679" type="line"/>
      <point x="26" y="699" type="line"/>
      <point x="158" y="699" type="line"/>
      <point x="158" y="679" type="line"/>
      <point x="103" y="679" type="line"/>
      <point x="103" y="485" type="line"/>
      <point x="81" y="485" type="line"/>
      <point x="81" y="679" type="line"/>
    </contour>
    <contour>
      <point x="180" y="485" type="line"/>
      <point x="180" y="644" type="line"/>
      <point x="185" y="644" type="line"/>
      <point x="202" y="604" type="line"/>
      <point x="202" y="485" type="line"/>
    </contour>
    <contour>
      <point x="181" y="692" type="line"/>
      <point x="181" y="699" type="line"/>
      <point x="202" y="699" type="line"/>
      <point x="273" y="527" type="line"/>
      <point x="335" y="663" type="line"/>
      <point x="342" y="663" type="line"/>
      <point x="342" y="629" type="line"/>
      <point x="279" y="485" type="line"/>
      <point x="267" y="485" type="line"/>
    </contour>
    <contour>
      <point x="355" y="485" type="line"/>
      <point x="355" y="699" type="line"/>
      <point x="377" y="699" type="line"/>
      <point x="377" y="485" type="line"/>
    </contour>
  </outline>
</glyph>
<glyph name="integral" format="1">
  <advance width="285"/>
  <unicode hex="222B"/>
  <outline>
    <contour>
      <point x="1" y="-144" type="line"/>
      <point x="48" y="-157"/>
      <point x="127" y="-148"/>
      <point x="127" y="-3" type="curve"/>
      <point x="127" y="625" type="line" smooth="yes"/>
      <point x="127" y="769"/>
      <point x="222" y="815"/>
      <point x="282" y="795" type="curve"/>
      <point x="282" y="768" type="line"/>
      <point x="232" y="786"/>
      <point x="159" y="757"/>
      <point x="159" y="625" type="curve" smooth="yes"/>
      <point x="159" y="-3" type="line" smooth="yes"/>
      <point x="159" y="-147"/>
      <point x="68" y="-191"/>
      <point x="1" y="-171" type="curve"/>
    </contour>
  </outline>
</glyph>
<glyph name="lozenge" format="1">
  <advance width="427"/>
  <unicode hex="25CA"/>
  <outline>
    <contour>
      <point x="-3" y="352" type="line"/>
      <point x="194" y="706" type="line"/>
      <point x="226" y="706" type="line"/>
      <point x="418" y="352" type="line"/>
      <point x="221" y="-2" type="line"/>
      <point x="189" y="-2" type="line"/>
    </contour>
    <contour>
      <point x="37" y="352" type="line"/>
      <point x="205" y="44" type="line"/>
      <point x="378" y="352" type="line"/>
      <point x="210" y="660" type="line"/>
    </contour>
  </outline>
</glyph>
<glyph name="uni5713" format="1">
  <advance width="843"/>
  <unicode hex="5713"/>
  <outline>
    <contour>
      <point x="50" y="488" type="line"/>
      <point x="50" y="698" type="line"/>
      <point x="80" y="698" type="line"/>
      <point x="80" y="608" type="line"/>
      <point x="101" y="608" type="line"/>
      <point x="101" y="578" type="line"/>
      <point x="80" y="578" type="line"/>
      <point x="80" y="488" type="line"/>
    </contour>
    <contour>
      <point x="117" y="578" type="line"/>
      <point x="117" y="608" type="line"/>
      <point x="139" y="608" type="line"/>
      <point x="139" y="698" type="line"/>
      <point x="169" y="698" type="line"/>
      <point x="169" y="488" type="line"/>
      <point x="139" y="488" type="line"/>
      <point x="139" y="578" type="line"/>
    </contour>
    <contour>
      <point x="198" y="488" type="line"/>
      <point x="198" y="698" type="line"/>
      <point x="228" y="698" type="line"/>
      <point x="228" y="488" type="line"/>
    </contour>
    <contour>
      <point x="240" y="601" type="line"/>
      <point x="293" y="698" type="line"/>
      <point x="324" y="698" type="line"/>
      <point x="271" y="601" type="line"/>
      <point x="325" y="488" type="line"/>
      <point x="294" y="488" type="line"/>
    </contour>
    <component base="dollar" xOffset="322"/>
  </outline>
</glyph>
<glyph name="si_Ya.post.MatraI" format="1">
  <advance width="498"/>
  <outline>
    <contour>
      <point x="27" y="602" type="line"/>
      <point x="27" y="630" type="line"/>
      <point x="27" y="723"/>
      <point x="102.741" y="789"/>
      <point x="203" y="789" type="curve"/>
      <point x="282" y="789" type="line"/>
      <point x="382.259" y="789"/>
      <point x="458" y="723"/>
      <point x="458" y="630" type="curve"/>
      <point x="458" y="602" type="line"/>
      <point x="418" y="602" type="line"/>
      <point x="418" y="654.112"/>
      <point x="408.857" y="749"/>
      <point x="266" y="749" type="curve"/>
      <point x="219" y="749" type="line"/>
      <point x="76.1426" y="749"/>
      <point x="67" y="654.112"/>
      <point x="67" y="602" type="curve"/>
    </contour>
    <component base="si_Ya.post"/>
  </outline>
</glyph>
<glyph name="quotedbl.alt" format="1">
  <advance width="213"/>
  <outline>
    <contour>
      <point x="40" y="476" type="line"/>
      <point x="40" y="700" type="line"/>
      <point x="80" y="700" type="line"/>
      <point x="80" y="476" type="line"/>
    </contour>
    <contour>
      <point x="133" y="476" type="line"/>
      <point x="133" y="700" type="line"/>
      <point x="173" y="700" type="line"/>
      <point x="173" y="476" type="line"/>
    </contour>
  </outline>
</glyph>
<glyph name="si_BhRI" format="1">
  <advance width="743"/>
  <outline>
    <contour>
      <point x="429.115" y="-193.947" type="line"/>
      <point x="440.115" y="-193.947" type="line" smooth="yes"/>
      <point x="588.115" y="-193.947"/>
      <point x="713" y="-60"/>
      <point x="652" y="66" type="curve"/>
      <point x="686" y="89" type="line"/>
      <point x="757.992" y="-37.9238"/>
      <point x="651" y="-234"/>
      <point x="441" y="-234" type="curve" smooth="yes"/>
      <point x="429.115" y="-233.947" type="line"/>
    </contour>
    <contour>
      <point x="374.115" y="-233.947" type="line"/>
      <point x="356" y="-234" type="line" smooth="yes"/>
      <point x="231" y="-234"/>
      <point x="86.833" y="-165.25"/>
      <point x="86.833" y="-37.0908" type="curve"/>
      <point x="126.833" y="-37.0908" type="line"/>
      <point x="126.833" y="-155.59"/>
      <point x="291" y="-194"/>
      <point x="355" y="-194" type="curve" smooth="yes"/>
      <point x="374" y="-194" type="line"/>
    </contour>
    <component base="si_BhI"/>
  </outline>
</glyph>
<glyph name="si_BhUu" format="1">
  <advance width="743"/>
  <outline>
    <contour>
      <point x="685" y="-205.003" type="line" smooth="yes"/>
      <point x="628.875" y="-205.003"/>
      <point x="587" y="-162.81"/>
      <point x="587" y="-105" type="curve" smooth="yes"/>
      <point x="586.945" y="-64" type="line" smooth="yes"/>
      <point x="586.945" y="-28.1055"/>
      <point x="607.889" y="-5.99219"/>
      <point x="620" y="0" type="curve"/>
      <point x="569" y="0" type="line"/>
      <point x="569" y="35" type="line"/>
      <point x="698" y="115" type="line"/>
      <point x="569" y="115" type="line"/>
      <point x="569" y="150" type="line"/>
      <point x="766" y="150" type="line"/>
      <point x="766" y="115" type="line"/>
      <point x="637" y="35" type="line"/>
      <point x="766" y="35" type="line"/>
      <point x="766" y="0" type="line"/>
      <point x="712" y="0" type="line" smooth="yes"/>
      <point x="655.47" y="0"/>
      <point x="627" y="-28.6729"/>
      <point x="627" y="-64" type="curve" smooth="yes"/>
      <point x="627" y="-105" type="line" smooth="yes"/>
      <point x="627.12" y="-134.833"/>
      <point x="642.775" y="-165"/>
      <point x="685" y="-165" type="curve" smooth="yes"/>
      <point x="766" y="-165" type="line"/>
      <point x="766" y="-205" type="line"/>
    </contour>
    <contour>
      <point x="614" y="150" type="line"/>
      <point x="654.584" y="150"/>
      <point x="672.883" y="165.196"/>
      <point x="673" y="197" type="curve" smooth="yes"/>
      <point x="673" y="340" type="line" smooth="yes"/>
      <point x="673" y="458"/>
      <point x="622.112" y="524"/>
      <point x="527" y="524" type="curve"/>
      <point x="527" y="564" type="line"/>
      <point x="646.296" y="564"/>
      <point x="713" y="476"/>
      <point x="712.921" y="340" type="curve" smooth="yes"/>
      <point x="712.921" y="198" type="line" smooth="yes"/>
      <point x="713.021" y="185.393"/>
      <point x="709.555" y="162"/>
      <point x="700" y="150" type="curve"/>
    </contour>
    <contour>
      <point x="333" y="311" type="line"/>
      <point x="448.232" y="311"/>
      <point x="479" y="233"/>
      <point x="479" y="164" type="curve" smooth="yes"/>
      <point x="479" y="145" type="line" smooth="yes"/>
      <point x="479" y="42.873"/>
      <point x="411.866" y="-8"/>
      <point x="312" y="-8" type="curve"/>
      <point x="312" y="32" type="line"/>
      <point x="391.817" y="32"/>
      <point x="439.126" y="66.249"/>
      <point x="439.126" y="152.124" type="curve" smooth="yes"/>
      <point x="439.126" y="199.586"/>
      <point x="431.498" y="271"/>
      <point x="346" y="271" type="curve" smooth="yes"/>
      <point x="292" y="271" type="line"/>
      <point x="292" y="360" type="line" smooth="yes"/>
      <point x="292" y="478.007"/>
      <point x="349.062" y="564"/>
      <point x="471" y="564" type="curve"/>
      <point x="471" y="524" type="line"/>
      <point x="364.192" y="524"/>
      <point x="333" y="443"/>
      <point x="333" y="361" type="curve" smooth="yes"/>
    </contour>
    <contour>
      <point x="256" y="-8" type="line"/>
      <point x="136.704" y="-8"/>
      <point x="70.4199" y="79.7373"/>
      <point x="70.0791" y="196" type="curve" smooth="yes"/>
      <point x="70.0791" y="250" type="line" smooth="yes"/>
      <point x="70.2588" y="316.462"/>
      <point x="88.709" y="363.938"/>
      <point x="123.545" y="394" type="curve"/>
      <point x="30.0254" y="394" type="line"/>
      <point x="30" y="434" type="line"/>
      <point x="295" y="434" type="line"/>
      <point x="294.714" y="492.658"/>
      <point x="245.87" y="523.116"/>
      <point x="198.351" y="523.116" type="curve" smooth="yes"/>
      <point x="163.821" y="523.116"/>
      <point x="129.99" y="507.033"/>
      <point x="116" y="474" type="curve"/>
      <point x="77" y="484" type="line"/>
      <point x="90.7598" y="536.927"/>
      <point x="144.095" y="563.996"/>
      <point x="198.724" y="563.996" type="curve" smooth="yes"/>
      <point x="265.887" y="563.996"/>
      <point x="335.004" y="523.08"/>
      <point x="334.932" y="439" type="curve" smooth="yes"/>
      <point x="325" y="394" type="line"/>
      <point x="256" y="394" type="line" smooth="yes"/>
      <point x="160.888" y="394"/>
      <point x="110" y="357.857"/>
      <point x="110" y="250" type="curve" smooth="yes"/>
      <point x="110" y="196" type="line" smooth="yes"/>
      <point x="110" y="98.1426"/>
      <point x="163.888" y="32"/>
      <point x="256" y="32" type="curve"/>
    </contour>
  </outline>
</glyph>
<glyph name="si_DI" format="1">
  <advance width="537"/>
  <outline>
    <contour>
      <point x="30" y="602" type="line"/>
      <point x="30" y="630" type="line"/>
      <point x="30" y="723"/>
      <point x="105.741" y="789"/>
      <point x="206" y="789" type="curve"/>
      <point x="292" y="789" type="line"/>
      <point x="392.259" y="789"/>
      <point x="468" y="723"/>
      <point x="468" y="630" type="curve"/>
      <point x="468" y="602" type="line"/>
      <point x="428" y="602" type="line"/>
      <point x="428" y="654.112"/>
      <point x="418.857" y="749"/>
      <point x="276" y="749" type="curve"/>
      <point x="222" y="749" type="line"/>
      <point x="79.1426" y="749"/>
      <point x="70" y="654.112"/>
      <point x="70" y="602" type="curve"/>
    </contour>
    <component base="si_Da" xOffset="5"/>
  </outline>
</glyph>
<glyph name="si_DIi" format="1">
  <advance width="542"/>
  <outline>
    <contour>
      <point x="408.96" y="573.56" type="curve" smooth="yes"/>
      <point x="359.04" y="573.56"/>
      <point x="318.72" y="613.88"/>
      <point x="318.72" y="663.8" type="curve" smooth="yes"/>
      <point x="318.72" y="713.72"/>
      <point x="359.04" y="754.04"/>
      <point x="408.96" y="754.04" type="curve" smooth="yes"/>
      <point x="458.88" y="754.04"/>
      <point x="499.2" y="713.72"/>
      <point x="499.2" y="663.8" type="curve" smooth="yes"/>
      <point x="499.2" y="613.88"/>
      <point x="458.88" y="573.56"/>
    </contour>
    <contour>
      <point x="30" y="602" type="line"/>
      <point x="30" y="630" type="line"/>
      <point x="30" y="723"/>
      <point x="105.741" y="789"/>
      <point x="206" y="789" type="curve"/>
      <point x="337" y="789" type="line"/>
      <point x="422.222" y="789"/>
      <point x="499.174" y="759.785"/>
      <point x="499.2" y="663.8" type="curve"/>
      <point x="454" y="663" type="line"/>
      <point x="454" y="741"/>
      <point x="367.783" y="749"/>
      <point x="321" y="749" type="curve"/>
      <point x="222" y="749" type="line"/>
      <point x="79.1426" y="749"/>
      <point x="70" y="654.112"/>
      <point x="70" y="602" type="curve"/>
    </contour>
    <component base="si_Da" xOffset="10"/>
  </outline>
</glyph>
<glyph name="si_DRa" format="1">
  <advance width="532"/>
  <outline>
    <contour>
      <point x="30" y="199" type="curve" smooth="yes"/>
      <point x="30" y="335.29"/>
      <point x="125.045" y="402"/>
      <point x="256" y="402" type="curve" smooth="yes"/>
      <point x="392" y="402" type="line"/>
      <point x="392" y="493.372"/>
      <point x="320.287" y="537.564"/>
      <point x="242.646" y="537.564" type="curve" smooth="yes"/>
      <point x="181.683" y="537.564"/>
      <point x="123.614" y="504.852"/>
      <point x="107" y="443" type="curve"/>
      <point x="68" y="456" type="line"/>
      <point x="89.4072" y="536.278"/>
      <point x="163.421" y="579.363"/>
      <point x="240.706" y="579.363" type="curve" smooth="yes"/>
      <point x="339.016" y="579.363"/>
      <point x="432" y="518.503"/>
      <point x="432" y="389" type="curve" smooth="yes"/>
      <point x="432" y="362" type="line"/>
      <point x="246" y="362" type="line" smooth="yes"/>
      <point x="130.019" y="362"/>
      <point x="71.624" y="293.457"/>
      <point x="71.624" y="199" type="curve" smooth="yes"/>
      <point x="71.624" y="108.484"/>
      <point x="133.124" y="40"/>
      <point x="257" y="40" type="curve"/>
      <point x="296" y="40" type="line"/>
      <point x="367" y="40"/>
      <point x="424.998" y="71.5439"/>
      <point x="458" y="138" type="curve"/>
      <point x="498" y="138" type="line"/>
      <point x="456.009" y="22.3047"/>
      <point x="353" y="0"/>
      <point x="296" y="0" type="curve"/>
      <point x="257" y="0" type="line" smooth="yes"/>
      <point x="137" y="0"/>
      <point x="30" y="60.3916"/>
    </contour>
    <contour>
      <point x="299" y="-194" type="line"/>
      <point x="413.222" y="-194"/>
      <point x="458" y="-107.057"/>
      <point x="458" y="-19" type="curve" smooth="yes"/>
      <point x="458" y="138" type="line"/>
      <point x="498" y="138" type="line"/>
      <point x="498" y="2" type="line" smooth="yes"/>
      <point x="498" y="-139.824"/>
      <point x="444.29" y="-234"/>
      <point x="299" y="-234" type="curve"/>
    </contour>
    <contour>
      <point x="243.333" y="-234.038" type="line"/>
      <point x="140.333" y="-234.091"/>
      <point x="33.333" y="-173.326"/>
      <point x="33.333" y="-57.0908" type="curve" smooth="yes"/>
      <point x="33.333" y="-47.0908" type="line"/>
      <point x="73.333" y="-47.0908" type="line"/>
      <point x="73.333" y="-172.396"/>
      <point x="196.333" y="-194.091"/>
      <point x="243.333" y="-194" type="curve"/>
    </contour>
  </outline>
</glyph>
<glyph name="si_DdR.halant" format="1">
  <advance width="624"/>
  <outline>
    <contour>
      <point x="356" y="-225" type="curve"/>
      <point x="356" y="-185" type="line"/>
      <point x="481.492" y="-185"/>
      <point x="550.786" y="-120.229"/>
      <point x="550.786" y="-47.0527" type="curve" smooth="yes"/>
      <point x="550.786" y="-14.9844"/>
      <point x="539.611" y="11.9023"/>
      <point x="516.704" y="32.124" type="curve"/>
      <point x="547.454" y="60.8232" type="line"/>
      <point x="577.936" y="33.0381"/>
      <point x="592.003" y="-4.1416"/>
      <point x="592.003" y="-47.0527" type="curve" smooth="yes"/>
      <point x="592.003" y="-161.31"/>
      <point x="492" y="-225.053"/>
    </contour>
    <contour>
      <point x="299.833" y="-225.091" type="line"/>
      <point x="187.746" y="-225.148"/>
      <point x="67.833" y="-161.891"/>
      <point x="67.833" y="-48.1436" type="curve"/>
      <point x="107.833" y="-48.1436" type="line"/>
      <point x="107.833" y="-160.449"/>
      <point x="258.833" y="-185.182"/>
      <point x="299.833" y="-185.091" type="curve"/>
    </contour>
    <component base="si_Dd.halant"/>
  </outline>
</glyph>
<glyph name="si_DdhI" format="1">
  <advance width="624"/>
  <outline>
    <contour>
      <point x="272" y="922" type="curve" smooth="yes"/>
      <point x="439" y="922" type="line" smooth="yes"/>
      <point x="545" y="922"/>
      <point x="588.333" y="853.602"/>
      <point x="588.333" y="776" type="curve"/>
      <point x="548.333" y="776" type="line"/>
      <point x="548.333" y="854.182"/>
      <point x="491.614" y="881.917"/>
      <point x="438.849" y="882" type="curve" smooth="yes"/>
      <point x="272" y="882" type="line" smooth="yes"/>
      <point x="226.505" y="882"/>
      <point x="203.848" y="850.335"/>
      <point x="203.848" y="818.627" type="curve" smooth="yes"/>
      <point x="203.848" y="786.835"/>
      <point x="226.626" y="755"/>
      <point x="272" y="755" type="curve"/>
      <point x="272" y="715" type="line"/>
      <point x="196.542" y="715"/>
      <point x="158.765" y="766.793"/>
      <point x="158.765" y="818.565" type="curve" smooth="yes"/>
      <point x="158.765" y="870.293"/>
      <point x="196.479" y="922"/>
    </contour>
    <component base="si_Ddha"/>
  </outline>
</glyph>
<glyph name="si_FRI" format="1">
  <advance width="630"/>
  <outline>
    <contour>
      <point x="344.115" y="-193.947" type="line"/>
      <point x="508.148" y="-193.947"/>
      <point x="606.99" y="-62.1113"/>
      <point x="541" y="66" type="curve"/>
      <point x="575" y="89" type="line"/>
      <point x="649.297" y="-41.9863"/>
      <point x="563" y="-234"/>
      <point x="344.115" y="-233.947" type="curve"/>
    </contour>
    <contour>
      <point x="289" y="-234" type="line"/>
      <point x="158.885" y="-234.053"/>
      <point x="35.833" y="-168.776"/>
      <point x="35.833" y="-37.0908" type="curve"/>
      <point x="75.833" y="-37.0908" type="line"/>
      <point x="75.833" y="-163.737"/>
      <point x="208" y="-194"/>
      <point x="289" y="-194" type="curve"/>
    </contour>
    <component base="si_FI"/>
  </outline>
</glyph>
<glyph name="si_FU" format="1">
  <advance width="630"/>
  <outline>
    <contour>
      <point x="45" y="-165" type="line"/>
      <point x="288" y="-165" type="line"/>
      <point x="288" y="-205" type="line"/>
      <point x="45" y="-205" type="line"/>
    </contour>
    <contour>
      <point x="344" y="-205" type="line"/>
      <point x="344" y="-165" type="line"/>
      <point x="543" y="-165" type="line"/>
      <point x="543" y="-205" type="line"/>
    </contour>
    <contour>
      <point x="529" y="-205" type="line"/>
      <point x="529" y="51" type="line"/>
      <point x="569" y="111" type="line"/>
      <point x="569" y="-205" type="line"/>
    </contour>
    <component base="si_Fa"/>
  </outline>
</glyph>
<glyph name="si_HUu" format="1">
  <advance width="703"/>
  <outline>
    <contour>
      <point x="81" y="-122" type="line"/>
      <point x="117.512" y="-153.982"/>
      <point x="146.53" y="-164.643"/>
      <point x="172.712" y="-164.643" type="curve" smooth="yes"/>
      <point x="225.074" y="-164.643"/>
      <point x="266.088" y="-122"/>
      <point x="333" y="-122" type="curve"/>
      <point x="333" y="-164" type="line"/>
      <point x="266.021" y="-164"/>
      <point x="224.538" y="-204.871"/>
      <point x="172.197" y="-204.871" type="curve" smooth="yes"/>
      <point x="146.027" y="-204.871"/>
      <point x="117.143" y="-194.653"/>
      <point x="81" y="-164" type="curve"/>
    </contour>
    <contour>
      <point x="583" y="51" type="line"/>
      <point x="623" y="111" type="line"/>
      <point x="623" y="-205" type="line"/>
      <point x="583" y="-205" type="line"/>
    </contour>
    <contour>
      <point x="388" y="-122" type="line"/>
      <point x="417.143" y="-122"/>
      <point x="453.825" y="-121.922"/>
      <point x="583" y="-161" type="curve"/>
      <point x="583" y="-205" type="line"/>
      <point x="436.841" y="-158.509"/>
      <point x="396.06" y="-164"/>
      <point x="388" y="-164" type="curve"/>
    </contour>
    <component base="si_Ha"/>
  </outline>
</glyph>
<glyph name="si_Ja.reph" format="1">
  <advance width="620"/>
  <outline>
    <contour>
      <point x="230" y="587.853" type="curve" smooth="yes"/>
      <point x="160.198" y="587.853"/>
      <point x="121.863" y="642.178"/>
      <point x="121.863" y="698.155" type="curve" smooth="yes"/>
      <point x="121.863" y="757.645"/>
      <point x="165.16" y="819"/>
      <point x="260" y="819" type="curve" smooth="yes"/>
      <point x="320" y="819" type="line" smooth="yes"/>
      <point x="400.645" y="819"/>
      <point x="460" y="771.21"/>
      <point x="460" y="699.75" type="curve" smooth="yes"/>
      <point x="460.047" y="667.75" type="line"/>
      <point x="420.047" y="617.853" type="line"/>
      <point x="420.047" y="701.853" type="line"/>
      <point x="420.047" y="770.937"/>
      <point x="351.703" y="778.853"/>
      <point x="320" y="778.853" type="curve" smooth="yes"/>
      <point x="260" y="778.853" type="line" smooth="yes"/>
      <point x="190.464" y="778.853"/>
      <point x="159.96" y="737.664"/>
      <point x="159.96" y="698.311" type="curve" smooth="yes"/>
      <point x="159.96" y="662.313"/>
      <point x="185.481" y="627.853"/>
      <point x="230" y="627.853" type="curve" smooth="yes"/>
      <point x="294" y="627.853"/>
      <point x="295.047" y="683.853"/>
      <point x="295.047" y="696.853" type="curve"/>
      <point x="335.047" y="696.853" type="line"/>
      <point x="335.047" y="646.985"/>
      <point x="314.963" y="587.853"/>
    </contour>
    <component base="si_Ja"/>
  </outline>
</glyph>
<glyph name="si_JnyU" format="1">
  <advance width="1051"/>
  <outline>
    <contour>
      <point x="865" y="0" type="line"/>
      <point x="776" y="0" type="line" smooth="yes"/>
      <point x="656" y="0"/>
      <point x="549" y="60.3916"/>
      <point x="549" y="199" type="curve" smooth="yes"/>
      <point x="549" y="335.29"/>
      <point x="644.045" y="389"/>
      <point x="775" y="389" type="curve" smooth="yes"/>
      <point x="911" y="389" type="line"/>
      <point x="911" y="516.372"/>
      <point x="769.581" y="533.201"/>
      <point x="691.94" y="533.201" type="curve" smooth="yes"/>
      <point x="692" y="574" type="line" smooth="yes"/>
      <point x="790.31" y="574"/>
      <point x="951" y="555.503"/>
      <point x="951" y="376" type="curve" smooth="yes"/>
      <point x="951" y="349" type="line"/>
      <point x="765" y="349" type="line" smooth="yes"/>
      <point x="649.019" y="349"/>
      <point x="590.624" y="293.457"/>
      <point x="590.624" y="199" type="curve" smooth="yes"/>
      <point x="590.624" y="108.484"/>
      <point x="652.124" y="40"/>
      <point x="776" y="40" type="curve"/>
      <point x="865" y="40" type="line"/>
    </contour>
    <contour>
      <point x="30" y="208" type="curve" smooth="yes"/>
      <point x="30" y="287" type="line" smooth="yes"/>
      <point x="30" y="452"/>
      <point x="60.9932" y="564.245"/>
      <point x="265.051" y="564.245" type="curve" smooth="yes"/>
      <point x="316.372" y="564.245"/>
      <point x="304.684" y="564.082"/>
      <point x="356" y="564" type="curve"/>
      <point x="356" y="524" type="line"/>
      <point x="238" y="524" type="line" smooth="yes"/>
      <point x="68.46" y="524"/>
      <point x="70" y="376"/>
      <point x="70" y="287" type="curve" smooth="yes"/>
      <point x="70" y="208" type="line" smooth="yes"/>
      <point x="70" y="127.436"/>
      <point x="71.5576" y="83.5967"/>
      <point x="136" y="7" type="curve"/>
      <point x="94" y="-9" type="line"/>
      <point x="34.3584" y="68.1836"/>
      <point x="30" y="117.444"/>
    </contour>
    <contour>
      <point x="409" y="271" type="line"/>
      <point x="409" y="311" type="line"/>
      <point x="446" y="311" type="line" smooth="yes"/>
      <point x="548.232" y="311"/>
      <point x="579" y="233"/>
      <point x="579" y="164" type="curve" smooth="yes"/>
      <point x="579" y="145" type="line" smooth="yes"/>
      <point x="579" y="42.873"/>
      <point x="511.866" y="-8"/>
      <point x="412" y="-8" type="curve"/>
      <point x="412" y="32" type="line"/>
      <point x="491.817" y="32"/>
      <point x="539.126" y="66.249"/>
      <point x="539.126" y="152.124" type="curve" smooth="yes"/>
      <point x="539.126" y="199.586"/>
      <point x="531.498" y="271"/>
      <point x="446" y="271" type="curve" smooth="yes"/>
    </contour>
    <contour>
      <point x="356" y="-8" type="line"/>
      <point x="236.704" y="-8"/>
      <point x="170.42" y="79.7373"/>
      <point x="170.079" y="216" type="curve" smooth="yes"/>
      <point x="170.079" y="340" type="line" smooth="yes"/>
      <point x="170.42" y="476.263"/>
      <point x="236.704" y="564"/>
      <point x="356" y="564" type="curve"/>
      <point x="356" y="524" type="line"/>
      <point x="260.888" y="524"/>
      <point x="210" y="457.857"/>
      <point x="210" y="340" type="curve" smooth="yes"/>
      <point x="210" y="216" type="line" smooth="yes"/>
      <point x="210" y="98.1426"/>
      <point x="263.888" y="32"/>
      <point x="356" y="32" type="curve"/>
    </contour>
    <contour>
      <point x="392" y="271" type="line" smooth="yes"/>
      <point x="392" y="360" type="line" smooth="yes"/>
      <point x="392" y="515.643"/>
      <point x="510.436" y="572.301"/>
      <point x="630.527" y="573.962" type="curve" smooth="yes"/>
      <point x="632.351" y="573.987"/>
      <point x="634.175" y="574"/>
      <point x="636" y="574" type="curve"/>
      <point x="636" y="534" type="line"/>
      <point x="634.248" y="534"/>
      <point x="632.5" y="533.986"/>
      <point x="630.754" y="533.959" type="curve" smooth="yes"/>
      <point x="526.063" y="532.308"/>
      <point x="433" y="480.999"/>
      <point x="433" y="361" type="curve" smooth="yes"/>
      <point x="433" y="271" type="line"/>
    </contour>
    <contour>
      <point x="554" y="-206" type="line"/>
      <point x="554" y="-166" type="line"/>
      <point x="866" y="-166" type="line"/>
      <point x="866" y="-206" type="line"/>
    </contour>
    <contour>
      <point x="921" y="-206" type="line"/>
      <point x="921" y="40" type="line"/>
      <point x="962" y="40" type="line"/>
      <point x="962" y="-206" type="line"/>
    </contour>
  </outline>
</glyph>
<glyph name="si_KVa" format="1">
  <advance width="1091"/>
  <outline>
    <contour>
      <point x="591.715" y="643.683" type="line"/>
      <point x="629.123" y="711.087"/>
      <point x="709.293" y="755"/>
      <point x="780" y="755" type="curve"/>
      <point x="780" y="715" type="line"/>
      <point x="721.617" y="715"/>
      <point x="662.452" y="681.164"/>
      <point x="631.461" y="630.188" type="curve"/>
    </contour>
    <contour>
      <point x="836" y="0" type="curve"/>
      <point x="836" y="40" type="line"/>
      <point x="949.056" y="40"/>
      <point x="1020" y="95.2852"/>
      <point x="1020" y="241" type="curve" smooth="yes"/>
      <point x="1020" y="514" type="line" smooth="yes"/>
      <point x="1020" y="661.715"/>
      <point x="949.056" y="715"/>
      <point x="836" y="715" type="curve"/>
      <point x="836" y="755" type="line"/>
      <point x="995.37" y="755"/>
      <point x="1061" y="671.037"/>
      <point x="1061" y="514" type="curve" smooth="yes"/>
      <point x="1061" y="241" type="line" smooth="yes"/>
      <point x="1061" y="83.9629"/>
      <point x="995.37" y="0"/>
    </contour>
    <contour>
      <point x="33" y="452" type="line"/>
      <point x="64.0312" y="533.159"/>
      <point x="124.235" y="565.088"/>
      <point x="181.841" y="565.088" type="curve" smooth="yes"/>
      <point x="244.9" y="565.088"/>
      <point x="304.845" y="526.827"/>
      <point x="320" y="473" type="curve"/>
      <point x="289" y="445" type="line"/>
      <point x="276.237" y="490.735"/>
      <point x="229.535" y="521.199"/>
      <point x="181.232" y="521.199" type="curve" smooth="yes"/>
      <point x="138.707" y="521.199"/>
      <point x="94.9414" y="497.588"/>
      <point x="72" y="440" type="curve"/>
    </contour>
    <contour>
      <point x="30" y="196" type="curve"/>
      <point x="30" y="246" type="line"/>
      <point x="100" y="237"/>
      <point x="105.981" y="184.713"/>
      <point x="106" y="166" type="curve"/>
      <point x="106" y="114" type="line" smooth="yes"/>
      <point x="106" y="65.1681"/>
      <point x="146.371" y="37.5337"/>
      <point x="185.225" y="37.5337" type="curve" smooth="yes"/>
      <point x="221.265" y="37.5337"/>
      <point x="256" y="61.31"/>
      <point x="256" y="114" type="curve" smooth="yes"/>
      <point x="256" y="192" type="line"/>
      <point x="295.88" y="192" type="line"/>
      <point x="296" y="114" type="line" smooth="yes"/>
      <point x="296.081" y="61.336"/>
      <point x="334.791" y="37.5447"/>
      <point x="374.917" y="37.5447" type="curve" smooth="yes"/>
      <point x="418.136" y="37.5447"/>
      <point x="462.998" y="65.1464"/>
      <point x="463" y="114" type="curve" smooth="yes"/>
      <point x="463.004" y="240" type="line" smooth="yes"/>
      <point x="463.004" y="331.199"/>
      <point x="426" y="355"/>
      <point x="326.776" y="369.904" type="curve"/>
      <point x="365" y="403" type="line"/>
      <point x="441" y="391"/>
      <point x="503" y="361.827"/>
      <point x="503" y="240" type="curve" smooth="yes"/>
      <point x="503" y="114" type="line" smooth="yes"/>
      <point x="503" y="35.0935"/>
      <point x="445.06" y="-3.77233"/>
      <point x="381.868" y="-3.77233" type="curve" smooth="yes"/>
      <point x="344.851" y="-3.77233"/>
      <point x="306.032" y="9.56382"/>
      <point x="276" y="36" type="curve"/>
      <point x="250.392" y="8.16971"/>
      <point x="216.603" y="-4.77248"/>
      <point x="183.589" y="-4.77248" type="curve" smooth="yes"/>
      <point x="122.991" y="-4.77248"/>
      <point x="65.0029" y="38.8293"/>
      <point x="65.0029" y="114" type="curve" smooth="yes"/>
      <point x="65.0488" y="146.19" type="line" smooth="yes"/>
      <point x="65.0488" y="167.92"/>
      <point x="63.5771" y="199"/>
      <point x="44" y="199" type="curve" smooth="yes"/>
      <point x="40.7168" y="199"/>
      <point x="34.2529" y="197.3"/>
    </contour>
    <contour>
      <point x="30" y="246" type="line"/>
      <point x="294" y="471" type="line" smooth="yes"/>
      <point x="371.578" y="537.118"/>
      <point x="469.312" y="566.684"/>
      <point x="561.324" y="566.684" type="curve" smooth="yes"/>
      <point x="715.702" y="566.684"/>
      <point x="853.974" y="483.457"/>
      <point x="853.932" y="350" type="curve"/>
      <point x="854" y="309" type="line"/>
      <point x="805" y="309" type="line" smooth="yes"/>
      <point x="667.373" y="309"/>
      <point x="613" y="285.762"/>
      <point x="613" y="181" type="curve" smooth="yes"/>
      <point x="613" y="111.89"/>
      <point x="672.708" y="40"/>
      <point x="780" y="40" type="curve"/>
      <point x="780" y="0" type="line"/>
      <point x="660.896" y="0"/>
      <point x="573" y="85.7334"/>
      <point x="573" y="181" type="curve" smooth="yes"/>
      <point x="573" y="230.761"/>
      <point x="584.247" y="268.244"/>
      <point x="610" y="296" type="curve" smooth="yes"/>
      <point x="652.614" y="341.928"/>
      <point x="718.439" y="349"/>
      <point x="813" y="349" type="curve"/>
      <point x="813" y="449.276"/>
      <point x="689.223" y="525.129"/>
      <point x="551.169" y="525.129" type="curve" smooth="yes"/>
      <point x="473.074" y="525.129"/>
      <point x="390.41" y="500.856"/>
      <point x="323" y="443" type="curve" smooth="yes"/>
      <point x="69" y="225" type="line"/>
      <point x="30" y="196" type="line"/>
    </contour>
  </outline>
</glyph>
<glyph name="si_KhRa" format="1">
  <advance width="586"/>
  <outline>
    <contour>
      <point x="320" y="-225" type="curve"/>
      <point x="320" y="-185" type="line"/>
      <point x="445.493" y="-185"/>
      <point x="514.786" y="-120.23"/>
      <point x="514.786" y="-47.0527" type="curve" smooth="yes"/>
      <point x="514.786" y="-14.9844"/>
      <point x="503.611" y="11.9023"/>
      <point x="480.704" y="32.124" type="curve"/>
      <point x="511.454" y="60.8232" type="line"/>
      <point x="541.936" y="33.0381"/>
      <point x="556.003" y="-4.1416"/>
      <point x="556.003" y="-47.0527" type="curve" smooth="yes"/>
      <point x="556.003" y="-161.31"/>
      <point x="456" y="-225.053"/>
    </contour>
    <contour>
      <point x="263.833" y="-225.091" type="line"/>
      <point x="121.746" y="-225.148"/>
      <point x="31.833" y="-161.891"/>
      <point x="31.833" y="-48.1436" type="curve"/>
      <point x="71.833" y="-48.1436" type="line"/>
      <point x="71.833" y="-160.449"/>
      <point x="192.833" y="-185.182"/>
      <point x="263.833" y="-185.091" type="curve"/>
    </contour>
    <component base="si_Kha"/>
  </outline>
</glyph>
<glyph name="si_LlI" format="1">
  <advance width="609"/>
  <outline>
    <contour>
      <point x="130" y="602" type="line"/>
      <point x="130" y="630" type="line"/>
      <point x="130" y="713"/>
      <point x="185.741" y="789"/>
      <point x="286" y="789" type="curve"/>
      <point x="377" y="789" type="line"/>
      <point x="477.259" y="789"/>
      <point x="533" y="713"/>
      <point x="533" y="630" type="curve"/>
      <point x="533" y="602" type="line"/>
      <point x="493" y="602" type="line"/>
      <point x="493" y="654.112"/>
      <point x="483.857" y="749"/>
      <point x="361" y="749" type="curve"/>
      <point x="302" y="749" type="line"/>
      <point x="179.143" y="749"/>
      <point x="170" y="654.112"/>
      <point x="170" y="602" type="curve"/>
    </contour>
    <component base="si_Lla"/>
  </outline>
</glyph>
<glyph name="si_NDhIi" format="1">
  <advance width="1097"/>
  <outline>
    <contour>
      <point x="688" y="0" type="curve" smooth="yes"/>
      <point x="605.107" y="0"/>
      <point x="547" y="52.25"/>
      <point x="547" y="133" type="curve" smooth="yes"/>
      <point x="547" y="307" type="line" smooth="yes"/>
      <point x="547" y="387.75"/>
      <point x="595.107" y="480"/>
      <point x="727.667" y="480" type="curve" smooth="yes"/>
      <point x="747" y="480" type="line"/>
      <point x="767" y="440" type="line"/>
      <point x="727.667" y="440" type="line" smooth="yes"/>
      <point x="601.846" y="440"/>
      <point x="589" y="335.941"/>
      <point x="589" y="301" type="curve" smooth="yes"/>
      <point x="589" y="139" type="line" smooth="yes"/>
      <point x="589" y="104.059"/>
      <point x="611.846" y="40"/>
      <point x="688" y="40" type="curve" smooth="yes"/>
      <point x="763.154" y="40"/>
      <point x="786" y="104.059"/>
      <point x="786" y="139" type="curve" smooth="yes"/>
      <point x="786" y="192" type="line"/>
      <point x="828" y="192" type="line"/>
      <point x="828" y="139" type="line" smooth="yes"/>
      <point x="828" y="104.059"/>
      <point x="850.846" y="40"/>
      <point x="926" y="40" type="curve" smooth="yes"/>
      <point x="1002.15" y="40"/>
      <point x="1025" y="104.059"/>
      <point x="1025" y="139" type="curve" smooth="yes"/>
      <point x="1025" y="242" type="line"/>
      <point x="1067" y="242" type="line"/>
      <point x="1067" y="133" type="line" smooth="yes"/>
      <point x="1067" y="52.25"/>
      <point x="1008.89" y="0"/>
      <point x="926" y="0" type="curve" smooth="yes"/>
      <point x="873.595" y="0"/>
      <point x="830.931" y="21.3961"/>
      <point x="807" y="57.9649" type="curve"/>
      <point x="783.069" y="21.3961"/>
      <point x="740.405" y="3.55271e-15"/>
    </contour>
    <contour>
      <point x="50" y="214" type="curve"/>
      <point x="50" y="258" type="line" smooth="yes"/>
      <point x="54.3891" y="256.664"/>
      <point x="58.9252" y="256.041"/>
      <point x="63.5673" y="256.041" type="curve" smooth="yes"/>
      <point x="112.157" y="256.041"/>
      <point x="172.354" y="324.252"/>
      <point x="196.999" y="356.2" type="curve" smooth="yes"/>
      <point x="294.013" y="485" type="line" smooth="yes"/>
      <point x="346.701" y="554.952"/>
      <point x="440.485" y="589.47"/>
      <point x="531.046" y="589.47" type="curve" smooth="yes"/>
      <point x="640.433" y="589.47"/>
      <point x="745.117" y="539.109"/>
      <point x="767" y="440" type="curve"/>
      <point x="727" y="440" type="line"/>
      <point x="704.323" y="500.212"/>
      <point x="615.7" y="545.915"/>
      <point x="521.724" y="545.915" type="curve" smooth="yes"/>
      <point x="449.935" y="545.915"/>
      <point x="375.024" y="519.245"/>
      <point x="324" y="452" type="curve" smooth="yes"/>
      <point x="245.998" y="349.2" type="line" smooth="yes"/>
      <point x="197.26" y="285.26"/>
      <point x="135.828" y="212.587"/>
      <point x="66.6181" y="212.587" type="curve" smooth="yes"/>
      <point x="61.1269" y="212.587"/>
      <point x="55.5867" y="213.044"/>
    </contour>
    <contour>
      <point x="30" y="256" type="curve" smooth="yes"/>
      <point x="30" y="344" type="line"/>
      <point x="71" y="344" type="line"/>
      <point x="71" y="313"/>
      <point x="71" y="301"/>
      <point x="71" y="270" type="curve" smooth="yes"/>
      <point x="71" y="111.066"/>
      <point x="175.557" y="37.2843"/>
      <point x="274.531" y="37.2843" type="curve" smooth="yes"/>
      <point x="363.473" y="37.2843"/>
      <point x="447.907" y="96.8668"/>
      <point x="447.907" y="207.781" type="curve" smooth="yes"/>
      <point x="447.907" y="269.002"/>
      <point x="423.599" y="334.853"/>
      <point x="330" y="370" type="curve"/>
      <point x="355" y="403" type="line"/>
      <point x="451.48" y="372.244"/>
      <point x="492.414" y="287.188"/>
      <point x="492.414" y="208.132" type="curve" smooth="yes"/>
      <point x="492.414" y="68.7225"/>
      <point x="384.57" y="-4.50763"/>
      <point x="273.044" y="-4.50763" type="curve" smooth="yes"/>
      <point x="153.632" y="-4.50763"/>
      <point x="30" y="79.4433"/>
    </contour>
    <contour>
      <point x="686" y="612" type="line" smooth="yes"/>
      <point x="611.669" y="612"/>
      <point x="574.977" y="663.304"/>
      <point x="574.977" y="714.83" type="curve" smooth="yes"/>
      <point x="574.977" y="766.802"/>
      <point x="612.309" y="819"/>
      <point x="686" y="819" type="curve" smooth="yes"/>
      <point x="780" y="819" type="line"/>
      <point x="780" y="779" type="line"/>
      <point x="676" y="779" type="line" smooth="yes"/>
      <point x="634.071" y="779"/>
      <point x="612.881" y="747.025"/>
      <point x="612.881" y="715.163" type="curve" smooth="yes"/>
      <point x="612.881" y="683.526"/>
      <point x="633.774" y="652"/>
      <point x="676" y="652" type="curve" smooth="yes"/>
      <point x="780" y="652" type="line"/>
      <point x="780" y="612" type="line"/>
    </contour>
    <contour>
      <point x="981.46" y="603.56" type="curve" smooth="yes"/>
      <point x="931.54" y="603.56"/>
      <point x="891.22" y="643.88"/>
      <point x="891.22" y="693.8" type="curve" smooth="yes"/>
      <point x="891.22" y="729.745"/>
      <point x="912.125" y="760.713"/>
      <point x="942.467" y="775.235" type="curve"/>
      <point x="924.86" y="778.291"/>
      <point x="907.431" y="779"/>
      <point x="893.5" y="779" type="curve" smooth="yes"/>
      <point x="835" y="779" type="line"/>
      <point x="835" y="819" type="line"/>
      <point x="909.5" y="819" type="line" smooth="yes"/>
      <point x="994.722" y="819"/>
      <point x="1071.67" y="789.785"/>
      <point x="1071.7" y="693.8" type="curve" smooth="yes"/>
      <point x="1071.7" y="643.88"/>
      <point x="1031.38" y="603.56"/>
    </contour>
    <contour>
      <point x="33" y="452" type="line"/>
      <point x="64.0312" y="533.159"/>
      <point x="124.235" y="565.088"/>
      <point x="181.841" y="565.088" type="curve" smooth="yes"/>
      <point x="244.9" y="565.088"/>
      <point x="304.845" y="526.827"/>
      <point x="320" y="473" type="curve"/>
      <point x="289" y="445" type="line"/>
      <point x="276.237" y="490.735"/>
      <point x="229.535" y="521.199"/>
      <point x="181.232" y="521.199" type="curve" smooth="yes"/>
      <point x="138.707" y="521.199"/>
      <point x="94.9414" y="497.588"/>
      <point x="72" y="440" type="curve"/>
    </contour>
    <contour>
      <point x="1025" y="241" type="line" smooth="yes"/>
      <point x="1025" y="411" type="line" smooth="yes"/>
      <point x="1025" y="558.715"/>
      <point x="955.056" y="612"/>
      <point x="835" y="612" type="curve"/>
      <point x="835" y="652" type="line"/>
      <point x="1001.37" y="652"/>
      <point x="1067" y="568.037"/>
      <point x="1067" y="411" type="curve" smooth="yes"/>
      <point x="1067" y="241" type="line" smooth="yes"/>
    </contour>
  </outline>
</glyph>
<glyph name="si_NDhUu" format="1">
  <advance width="1097"/>
  <outline>
    <contour>
      <point x="567" y="-142" type="line"/>
      <point x="593.186" y="-155.703"/>
      <point x="613.851" y="-160.636"/>
      <point x="632.016" y="-160.636" type="curve" smooth="yes"/>
      <point x="678.739" y="-160.636"/>
      <point x="708.931" y="-128"/>
      <point x="774" y="-128" type="curve"/>
      <point x="774" y="-170" type="line"/>
      <point x="708.504" y="-170"/>
      <point x="677.791" y="-200.902"/>
      <point x="630.754" y="-200.902" type="curve" smooth="yes"/>
      <point x="612.82" y="-200.902"/>
      <point x="592.513" y="-196.41"/>
      <point x="567" y="-184" type="curve"/>
    </contour>
    <contour>
      <point x="830" y="-128" type="line"/>
      <point x="859.143" y="-128"/>
      <point x="934.825" y="-130.922"/>
      <point x="1014" y="-161" type="curve"/>
      <point x="1014" y="-205" type="line"/>
      <point x="929.61" y="-171.253"/>
      <point x="858" y="-170"/>
      <point x="830" y="-170" type="curve"/>
    </contour>
    <contour>
      <point x="1014" y="83" type="line"/>
      <point x="1054" y="83" type="line"/>
      <point x="1054" y="-205" type="line"/>
      <point x="1014" y="-205" type="line"/>
    </contour>
    <component base="si_NDha"/>
  </outline>
</glyph>
<glyph name="si_NThI" format="1">
  <advance width="1061"/>
  <outline>
    <contour>
      <point x="709" y="922" type="curve" smooth="yes"/>
      <point x="876" y="922" type="line" smooth="yes"/>
      <point x="982" y="922"/>
      <point x="1025.33" y="853.602"/>
      <point x="1025.33" y="776" type="curve"/>
      <point x="985.333" y="776" type="line"/>
      <point x="985.333" y="854.182"/>
      <point x="928.614" y="881.917"/>
      <point x="875.849" y="882" type="curve" smooth="yes"/>
      <point x="709" y="882" type="line" smooth="yes"/>
      <point x="663.505" y="882"/>
      <point x="640.848" y="850.335"/>
      <point x="640.848" y="818.627" type="curve" smooth="yes"/>
      <point x="640.848" y="786.835"/>
      <point x="663.626" y="755"/>
      <point x="709" y="755" type="curve"/>
      <point x="709" y="715" type="line"/>
      <point x="633.542" y="715"/>
      <point x="595.765" y="766.793"/>
      <point x="595.765" y="818.565" type="curve" smooth="yes"/>
      <point x="595.765" y="870.293"/>
      <point x="633.479" y="922"/>
    </contour>
    <component base="si_NTha"/>
  </outline>
</glyph>
<glyph name="si_NnIi" format="1">
  <advance width="963"/>
  <outline>
    <contour>
      <point x="846" y="586" type="curve" smooth="yes"/>
      <point x="801" y="586"/>
      <point x="765" y="622"/>
      <point x="764" y="666" type="curve" smooth="yes"/>
      <point x="764" y="695"/>
      <point x="777" y="719"/>
      <point x="799" y="734" type="curve"/>
      <point x="708" y="734" type="line" smooth="yes"/>
      <point x="633" y="734"/>
      <point x="628" y="688"/>
      <point x="628" y="650" type="curve"/>
      <point x="588" y="650" type="line"/>
      <point x="588" y="671" type="line" smooth="yes"/>
      <point x="587" y="741"/>
      <point x="643" y="774"/>
      <point x="717" y="774" type="curve" smooth="yes"/>
      <point x="789" y="774" type="line" smooth="yes"/>
      <point x="861" y="774"/>
      <point x="926" y="749"/>
      <point x="926" y="668" type="curve" smooth="yes"/>
      <point x="927" y="623"/>
      <point x="891" y="587"/>
    </contour>
    <component base="si_Nna"/>
  </outline>
</glyph>
<glyph name="si_NnddU" format="1">
  <advance width="728"/>
  <outline>
    <contour>
      <point x="644" y="83" type="line"/>
      <point x="684" y="83" type="line"/>
      <point x="684" y="-205" type="line"/>
      <point x="644" y="-205" type="line"/>
    </contour>
    <contour>
      <point x="466" y="-165" type="line"/>
      <point x="644" y="-165" type="line"/>
      <point x="644" y="-205" type="line"/>
      <point x="466" y="-205" type="line"/>
    </contour>
    <contour>
      <point x="197" y="-165" type="line"/>
      <point x="410" y="-165" type="line"/>
      <point x="410" y="-205" type="line"/>
      <point x="197" y="-205" type="line"/>
    </contour>
    <component base="si_Nndda"/>
  </outline>
</glyph>
<glyph name="si_PU" format="1">
  <advance width="620"/>
  <outline>
    <contour>
      <point x="45" y="-165" type="line"/>
      <point x="282" y="-165" type="line"/>
      <point x="282" y="-205" type="line"/>
      <point x="45" y="-205" type="line"/>
    </contour>
    <contour>
      <point x="338" y="-165" type="line"/>
      <point x="543" y="-165" type="line"/>
      <point x="543" y="-205" type="line"/>
      <point x="338" y="-205" type="line"/>
    </contour>
    <contour>
      <point x="529" y="51" type="line"/>
      <point x="569" y="111" type="line"/>
      <point x="569" y="-205" type="line"/>
      <point x="529" y="-205" type="line"/>
    </contour>
    <component base="si_Pa"/>
  </outline>
</glyph>
<glyph name="si_R.halant" format="1">
  <advance width="515"/>
  <outline>
    <contour>
      <point x="30.001" y="389" type="line"/>
      <point x="30.001" y="819" type="line"/>
      <point x="70.001" y="819" type="line"/>
      <point x="70.001" y="389" type="line"/>
    </contour>
    <component base="si_Ra"/>
  </outline>
</glyph>
<glyph name="si_RI" format="1">
  <advance width="515"/>
  <outline>
    <contour>
      <point x="26.1074" y="607.1" type="line"/>
      <point x="12.8604" y="623.394" type="line"/>
      <point x="-31.9346" y="678.478"/>
      <point x="-18.9258" y="728.548"/>
      <point x="38.4873" y="775.234" type="curve"/>
      <point x="89.8115" y="816.973" type="line"/>
      <point x="147.223" y="863.66"/>
      <point x="201.125" y="868.001"/>
      <point x="245.919" y="812.915" type="curve"/>
      <point x="259.168" y="796.623" type="line"/>
      <point x="227.791" y="771.074" type="line"/>
      <point x="203.814" y="800.559"/>
      <point x="174.442" y="834.724"/>
      <point x="124.011" y="793.714" type="curve"/>
      <point x="56.5127" y="738.825" type="line"/>
      <point x="6.08105" y="697.813"/>
      <point x="33.543" y="662.092"/>
      <point x="57.5166" y="632.61" type="curve"/>
    </contour>
    <component base="si_Ra"/>
  </outline>
</glyph>
<glyph name="si_RIi" format="1">
  <advance width="515"/>
  <outline>
    <contour>
      <point x="25.1074" y="632.1" type="line"/>
      <point x="11.8418" y="648.378" type="line" smooth="yes"/>
      <point x="-33.0166" y="703.41"/>
      <point x="-20.0654" y="753.496"/>
      <point x="37.2949" y="800.249" type="curve" smooth="yes"/>
      <point x="88.5703" y="842.046" type="line" smooth="yes"/>
      <point x="144.07" y="888.229"/>
      <point x="220.92" y="933.33"/>
      <point x="277.298" y="858.612" type="curve" smooth="yes"/>
      <point x="305.861" y="823.934"/>
      <point x="300.922" y="772.853"/>
      <point x="266.243" y="744.289" type="curve" smooth="yes"/>
      <point x="231.563" y="715.726"/>
      <point x="180.482" y="720.665"/>
      <point x="151.919" y="755.345" type="curve" smooth="yes"/>
      <point x="133.829" y="777.308"/>
      <point x="128.941" y="804.878"/>
      <point x="136.771" y="830.112" type="curve"/>
      <point x="55.3623" y="763.86" type="line" smooth="yes"/>
      <point x="4.97754" y="722.791"/>
      <point x="32.4805" y="687.101"/>
      <point x="56.4873" y="657.646" type="curve"/>
    </contour>
    <component base="si_Ra"/>
  </outline>
</glyph>
<glyph name="si_ShU" format="1">
  <advance width="703"/>
  <outline>
    <contour>
      <point x="252" y="271" type="line"/>
      <point x="252" y="360" type="line" smooth="yes"/>
      <point x="252" y="478.007"/>
      <point x="309.062" y="564"/>
      <point x="431" y="564" type="curve"/>
      <point x="431" y="524" type="line"/>
      <point x="324.192" y="524"/>
      <point x="293" y="443"/>
      <point x="293" y="361" type="curve" smooth="yes"/>
      <point x="293" y="311" type="line"/>
      <point x="306" y="311" type="line" smooth="yes"/>
      <point x="408.232" y="311"/>
      <point x="439" y="233"/>
      <point x="439" y="164" type="curve" smooth="yes"/>
      <point x="439" y="145" type="line" smooth="yes"/>
      <point x="439" y="42.873"/>
      <point x="371.866" y="-8"/>
      <point x="272" y="-8" type="curve"/>
      <point x="272" y="32" type="line"/>
      <point x="351.817" y="32"/>
      <point x="399.126" y="66.249"/>
      <point x="399.126" y="152.124" type="curve" smooth="yes"/>
      <point x="399.126" y="199.586"/>
      <point x="391.498" y="271"/>
      <point x="306" y="271" type="curve" smooth="yes"/>
    </contour>
    <contour>
      <point x="216" y="-8" type="line"/>
      <point x="96.7041" y="-8"/>
      <point x="30.4199" y="79.7373"/>
      <point x="30.0791" y="216" type="curve" smooth="yes"/>
      <point x="30.0791" y="340" type="line" smooth="yes"/>
      <point x="30.4199" y="476.263"/>
      <point x="96.7041" y="564"/>
      <point x="216" y="564" type="curve"/>
      <point x="216" y="524" type="line"/>
      <point x="120.888" y="524"/>
      <point x="70" y="457.857"/>
      <point x="70" y="340" type="curve" smooth="yes"/>
      <point x="70" y="216" type="line" smooth="yes"/>
      <point x="70" y="98.1426"/>
      <point x="123.888" y="32"/>
      <point x="216" y="32" type="curve"/>
    </contour>
    <contour>
      <point x="611.19" y="-205.003" type="line" smooth="yes"/>
      <point x="551.445" y="-205.003"/>
      <point x="515.812" y="-159.005"/>
      <point x="504.364" y="-104.229" type="curve" smooth="yes"/>
      <point x="498.949" y="-78.3173"/>
      <point x="498.946" y="-50.4415"/>
      <point x="504.362" y="-24.5415" type="curve" smooth="yes"/>
      <point x="515.796" y="30.1331"/>
      <point x="551.381" y="76.0029"/>
      <point x="611.19" y="76.0029" type="curve" smooth="yes"/>
      <point x="673" y="76" type="line"/>
      <point x="673" y="36" type="line"/>
      <point x="611" y="36" type="line" smooth="yes"/>
      <point x="558.251" y="36"/>
      <point x="531.947" y="-14.25"/>
      <point x="531.983" y="-64.5" type="curve" smooth="yes"/>
      <point x="532.019" y="-114.75"/>
      <point x="558.393" y="-165"/>
      <point x="611" y="-165" type="curve" smooth="yes"/>
      <point x="673" y="-165" type="line"/>
      <point x="673" y="-205" type="line"/>
    </contour>
    <contour>
      <point x="633" y="66" type="line" smooth="yes"/>
      <point x="633" y="340" type="line" smooth="yes"/>
      <point x="633" y="457.857"/>
      <point x="582.112" y="524"/>
      <point x="487" y="524" type="curve"/>
      <point x="487" y="564" type="line"/>
      <point x="606.296" y="564"/>
      <point x="672.58" y="476.263"/>
      <point x="672.921" y="340" type="curve" smooth="yes"/>
      <point x="672.921" y="66" type="line" smooth="yes"/>
    </contour>
    <contour>
      <point x="401.05" y="124" type="line"/>
      <point x="401.05" y="138.36"/>
      <point x="385.019" y="275"/>
      <point x="575.05" y="275" type="curve"/>
      <point x="575.05" y="235" type="line"/>
      <point x="447.597" y="235"/>
      <point x="438.054" y="156.562"/>
      <point x="438" y="124" type="curve"/>
    </contour>
  </outline>
</glyph>
<glyph name="si_TTha" format="1">
  <advance width="1061"/>
  <outline>
    <contour>
      <point x="314" y="-4.34473" type="curve" smooth="yes"/>
      <point x="115.883" y="-4.34473"/>
      <point x="109.999" y="132.096"/>
      <point x="73.2144" y="180.822" type="curve" smooth="yes"/>
      <point x="65.2185" y="191.413"/>
      <point x="55.7625" y="197.86"/>
      <point x="42.5547" y="197.86" type="curve" smooth="yes"/>
      <point x="38.4893" y="197.86"/>
      <point x="34.3115" y="197.262"/>
      <point x="30" y="196" type="curve"/>
      <point x="49.7656" y="234.221" type="line"/>
      <point x="53.7686" y="234.969"/>
      <point x="57.6396" y="235.327"/>
      <point x="61.3896" y="235.327" type="curve" smooth="yes"/>
      <point x="148.853" y="235.327"/>
      <point x="100.451" y="36.1543"/>
      <point x="314" y="36.1543" type="curve" smooth="yes"/>
      <point x="417.317" y="36.1543"/>
      <point x="468.056" y="105.088"/>
      <point x="468.056" y="188.818" type="curve" smooth="yes"/>
      <point x="468.056" y="275.191"/>
      <point x="460.403" y="341.519"/>
      <point x="324.777" y="370.904" type="curve"/>
      <point x="362" y="403" type="line"/>
      <point x="493.94" y="373.184"/>
      <point x="508.384" y="280.072"/>
      <point x="508.384" y="188.966" type="curve" smooth="yes"/>
      <point x="508.384" y="81.1544"/>
      <point x="445.63" y="-4.34473"/>
    </contour>
    <contour>
      <point x="989" y="235" type="line"/>
      <point x="989" y="498" type="line" smooth="yes"/>
      <point x="989" y="643.279"/>
      <point x="941.385" y="715"/>
      <point x="804" y="715" type="curve"/>
      <point x="803.95" y="637" type="line" smooth="yes"/>
      <point x="804" y="536.674"/>
      <point x="871.352" y="504"/>
      <point x="934" y="504" type="curve"/>
      <point x="934" y="464" type="line"/>
      <point x="817" y="464"/>
      <point x="764" y="540.655"/>
      <point x="764" y="637" type="curve" smooth="yes"/>
      <point x="764" y="755" type="line"/>
      <point x="804" y="755" type="line"/>
      <point x="933.702" y="755"/>
      <point x="1031" y="700"/>
      <point x="1031" y="517" type="curve" smooth="yes"/>
      <point x="1031" y="235" type="line"/>
    </contour>
    <contour>
      <point x="30" y="196" type="line"/>
      <point x="30" y="246" type="line"/>
      <point x="320" y="494" type="line"/>
      <point x="384.26" y="543.873"/>
      <point x="460.931" y="568.056"/>
      <point x="532.135" y="568.056" type="curve" smooth="yes"/>
      <point x="631.843" y="568.056"/>
      <point x="720.83" y="520.635"/>
      <point x="750" y="429.931" type="curve"/>
      <point x="710" y="429.931" type="line"/>
      <point x="680.805" y="490.835"/>
      <point x="605.392" y="528.417"/>
      <point x="522.717" y="528.417" type="curve" smooth="yes"/>
      <point x="463.8" y="528.417"/>
      <point x="401.195" y="509.331"/>
      <point x="349" y="466" type="curve"/>
      <point x="69" y="225" type="line"/>
    </contour>
    <contour>
      <point x="750" y="0" type="line"/>
      <point x="600.759" y="0"/>
      <point x="547.375" y="116"/>
      <point x="547.375" y="200" type="curve" smooth="yes"/>
      <point x="547.374" y="270" type="line" smooth="yes"/>
      <point x="547.374" y="349.011"/>
      <point x="584.619" y="454.98"/>
      <point x="720" y="468.55" type="curve" smooth="yes"/>
      <point x="750" y="429.931" type="line"/>
      <point x="638.341" y="429.996"/>
      <point x="588.375" y="357.23"/>
      <point x="588.375" y="270" type="curve" smooth="yes"/>
      <point x="588.375" y="200" type="line" smooth="yes"/>
      <point x="588.375" y="112"/>
      <point x="649.265" y="40.0039"/>
      <point x="750" y="40.0693" type="curve"/>
    </contour>
    <contour>
      <point x="65" y="452" type="line"/>
      <point x="96.0312" y="533.159"/>
      <point x="156.235" y="565.088"/>
      <point x="213.841" y="565.088" type="curve" smooth="yes"/>
      <point x="276.9" y="565.088"/>
      <point x="336.845" y="526.827"/>
      <point x="352" y="473" type="curve"/>
      <point x="321" y="445" type="line"/>
      <point x="308.237" y="490.735"/>
      <point x="261.535" y="521.199"/>
      <point x="213.232" y="521.199" type="curve" smooth="yes"/>
      <point x="170.707" y="521.199"/>
      <point x="126.941" y="497.588"/>
      <point x="104" y="440" type="curve"/>
    </contour>
    <contour>
      <point x="806" y="0" type="curve"/>
      <point x="806" y="40" type="line"/>
      <point x="919.056" y="40"/>
      <point x="989" y="95.2852"/>
      <point x="989" y="241" type="curve" smooth="yes"/>
      <point x="1031" y="241" type="line" smooth="yes"/>
      <point x="1031" y="83.9629"/>
      <point x="965.37" y="0"/>
    </contour>
  </outline>
</glyph>
<glyph name="si_TtTth.halant" format="1">
  <advance width="721"/>
  <outline>
    <contour>
      <point x="649.001" y="518" type="line"/>
      <point x="649.001" y="819" type="line"/>
      <point x="691.001" y="819" type="line"/>
      <point x="691.001" y="518" type="line"/>
    </contour>
    <component base="si_TtTtha"/>
  </outline>
</glyph>
<glyph name="si_TthU" format="1">
  <advance width="580"/>
  <outline>
    <contour>
      <point x="493" y="83" type="line"/>
      <point x="533" y="83" type="line"/>
      <point x="533" y="-205" type="line"/>
      <point x="493" y="-205" type="line"/>
    </contour>
    <contour>
      <point x="315" y="-165" type="line"/>
      <point x="493" y="-165" type="line"/>
      <point x="493" y="-205" type="line"/>
      <point x="315" y="-205" type="line"/>
    </contour>
    <contour>
      <point x="46" y="-165" type="line"/>
      <point x="259" y="-165" type="line"/>
      <point x="259" y="-205" type="line"/>
      <point x="46" y="-205" type="line"/>
    </contour>
    <component base="si_Ttha" xOffset="-13"/>
  </outline>
</glyph>
<glyph name="si_VI" format="1">
  <advance width="549"/>
  <outline>
    <contour>
      <point x="237" y="0" type="line"/>
      <point x="117.896" y="0"/>
      <point x="30" y="85.7334"/>
      <point x="30" y="181" type="curve" smooth="yes"/>
      <point x="30" y="230.761"/>
      <point x="41.2471" y="268.244"/>
      <point x="67" y="296" type="curve" smooth="yes"/>
      <point x="109.613" y="341.929"/>
      <point x="176.439" y="349"/>
      <point x="271" y="349" type="curve"/>
      <point x="270.714" y="407.658"/>
      <point x="221.87" y="438.116"/>
      <point x="174.351" y="438.116" type="curve" smooth="yes"/>
      <point x="139.821" y="438.116"/>
      <point x="105.99" y="422.033"/>
      <point x="92" y="389" type="curve"/>
      <point x="53" y="399" type="line"/>
      <point x="66.7441" y="451.867"/>
      <point x="119.961" y="478.84"/>
      <point x="174.516" y="478.84" type="curve" smooth="yes"/>
      <point x="241.727" y="478.84"/>
      <point x="310.969" y="437.9"/>
      <point x="310.932" y="354" type="curve" smooth="yes"/>
      <point x="311" y="309" type="line"/>
      <point x="262" y="309" type="line" smooth="yes"/>
      <point x="124.373" y="309"/>
      <point x="70" y="285.762"/>
      <point x="70" y="181" type="curve" smooth="yes"/>
      <point x="70" y="111.89"/>
      <point x="129.708" y="40"/>
      <point x="237" y="40" type="curve"/>
    </contour>
    <contour>
      <point x="161" y="612" type="line" smooth="yes"/>
      <point x="86.6699" y="612"/>
      <point x="49.9775" y="663.304"/>
      <point x="49.9775" y="714.83" type="curve" smooth="yes"/>
      <point x="49.9775" y="766.802"/>
      <point x="87.3086" y="819"/>
      <point x="161" y="819" type="curve" smooth="yes"/>
      <point x="244" y="819" type="line"/>
      <point x="244" y="779" type="line"/>
      <point x="151" y="779" type="line" smooth="yes"/>
      <point x="109.071" y="779"/>
      <point x="87.8809" y="747.025"/>
      <point x="87.8809" y="715.163" type="curve" smooth="yes"/>
      <point x="87.8809" y="683.526"/>
      <point x="108.774" y="652"/>
      <point x="151" y="652" type="curve" smooth="yes"/>
      <point x="299.5" y="652" type="line"/>
      <point x="299.5" y="612" type="line"/>
    </contour>
    <contour>
      <point x="293" y="0" type="curve"/>
      <point x="293" y="40" type="line"/>
      <point x="406.056" y="40"/>
      <point x="477" y="95.2852"/>
      <point x="477" y="241" type="curve" smooth="yes"/>
      <point x="477" y="411" type="line" smooth="yes"/>
      <point x="477" y="558.715"/>
      <point x="406.056" y="612"/>
      <point x="293" y="612" type="curve"/>
      <point x="293" y="652" type="line"/>
      <point x="452.37" y="652"/>
      <point x="518" y="568.037"/>
      <point x="518" y="411" type="curve" smooth="yes"/>
      <point x="518" y="241" type="line" smooth="yes"/>
      <point x="518" y="83.9629"/>
      <point x="452.37" y="0"/>
    </contour>
    <contour>
      <point x="478.333" y="673" type="line"/>
      <point x="478.333" y="770"/>
      <point x="420.333" y="779"/>
      <point x="375" y="779" type="curve" smooth="yes"/>
      <point x="299.5" y="779" type="line"/>
      <point x="299.5" y="819" type="line"/>
      <point x="375" y="819" type="line" smooth="yes"/>
      <point x="453.359" y="819"/>
      <point x="518.333" y="776"/>
      <point x="518.333" y="673" type="curve"/>
    </contour>
  </outline>
</glyph>
<glyph name="si_YU" format="1">
  <advance width="630"/>
  <outline>
    <contour>
      <point x="48" y="-165" type="line"/>
      <point x="285" y="-165" type="line"/>
      <point x="285" y="-205" type="line"/>
      <point x="48" y="-205" type="line"/>
    </contour>
    <contour>
      <point x="341" y="-165" type="line"/>
      <point x="558" y="-165" type="line"/>
      <point x="558" y="-205" type="line"/>
      <point x="341" y="-205" type="line"/>
    </contour>
    <contour>
      <point x="544" y="51" type="line"/>
      <point x="584" y="111" type="line"/>
      <point x="584" y="-205" type="line"/>
      <point x="544" y="-205" type="line"/>
    </contour>
    <component base="si_Ya"/>
  </outline>
</glyph>
<glyph name="si_YUu.post" format="1">
  <advance width="498"/>
  <outline>
    <contour>
      <point x="40" y="-143" type="line"/>
      <point x="64.334" y="-164.333"/>
      <point x="105.444" y="-168.777"/>
      <point x="126.741" y="-168.777" type="curve" smooth="yes"/>
      <point x="169.334" y="-168.777"/>
      <point x="201.667" y="-146"/>
      <point x="261" y="-146" type="curve" smooth="yes"/>
      <point x="298" y="-146"/>
      <point x="333.148" y="-158.167"/>
      <point x="352" y="-165" type="curve"/>
      <point x="352" y="-205" type="line"/>
      <point x="330.106" y="-194.639"/>
      <point x="298" y="-182"/>
      <point x="261" y="-182" type="curve" smooth="yes"/>
      <point x="201.667" y="-182"/>
      <point x="169.334" y="-204.777"/>
      <point x="126.741" y="-204.777" type="curve" smooth="yes"/>
      <point x="105.444" y="-204.777"/>
      <point x="64.334" y="-200.333"/>
      <point x="40" y="-179" type="curve"/>
    </contour>
    <contour>
      <point x="408" y="51" type="line"/>
      <point x="449" y="91" type="line"/>
      <point x="449" y="-205" type="line"/>
      <point x="408" y="-205" type="line"/>
    </contour>
    <component base="si_Ya.post"/>
  </outline>
</glyph>
<glyph name="si_Ya.post" format="1">
  <advance width="498"/>
  <outline>
    <contour>
      <point x="126" y="396" type="line"/>
      <point x="147" y="515"/>
      <point x="199.894" y="566"/>
      <point x="283" y="566" type="curve" smooth="yes"/>
      <point x="335.748" y="566"/>
      <point x="397" y="548"/>
      <point x="433" y="473" type="curve"/>
      <point x="395" y="459" type="line"/>
      <point x="384.118" y="480.996"/>
      <point x="362.367" y="526"/>
      <point x="283" y="526" type="curve" smooth="yes"/>
      <point x="180.18" y="526"/>
      <point x="172" y="410.227"/>
      <point x="163" y="376" type="curve"/>
    </contour>
    <contour>
      <point x="125" y="0" type="line"/>
      <point x="135" y="40" type="line"/>
      <point x="328" y="40" type="line" smooth="yes"/>
      <point x="390.374" y="40"/>
      <point x="428" y="93.9902"/>
      <point x="428" y="155" type="curve" smooth="yes"/>
      <point x="428" y="275" type="line" smooth="yes"/>
      <point x="428" y="362.28"/>
      <point x="331.678" y="363"/>
      <point x="298" y="363" type="curve" smooth="yes"/>
      <point x="287.586" y="363"/>
      <point x="165.521" y="363"/>
      <point x="153" y="363" type="curve"/>
      <point x="153" y="403" type="line"/>
      <point x="163.176" y="403"/>
      <point x="288.026" y="403"/>
      <point x="298" y="403" type="curve" smooth="yes"/>
      <point x="379.63" y="403"/>
      <point x="468" y="397.088"/>
      <point x="468" y="240" type="curve" smooth="yes"/>
      <point x="468" y="160" type="line" smooth="yes"/>
      <point x="468" y="75.8418"/>
      <point x="425.048" y="0.0849609"/>
      <point x="336.149" y="0.0849609" type="curve" smooth="yes"/>
      <point x="336.1" y="0.0849609"/>
      <point x="336.05" y="0.0849609"/>
      <point x="336" y="0.0849609" type="curve" smooth="yes"/>
    </contour>
    <contour>
      <point x="30" y="0" type="line"/>
      <point x="108" y="313" type="line" smooth="yes"/>
      <point x="120.478" y="363.072"/>
      <point x="128.507" y="404.314"/>
      <point x="128.507" y="436.638" type="curve" smooth="yes"/>
      <point x="128.507" y="494.71"/>
      <point x="102.593" y="524"/>
      <point x="30" y="524" type="curve"/>
      <point x="30" y="564" type="line"/>
      <point x="136.538" y="564"/>
      <point x="169.43" y="503.453"/>
      <point x="169.43" y="433.751" type="curve" smooth="yes"/>
      <point x="169.43" y="410.55"/>
      <point x="165.785" y="386.335"/>
      <point x="160" y="363" type="curve" smooth="yes"/>
      <point x="70" y="0" type="line"/>
    </contour>
  </outline>
</glyph>
<glyph name="tml_CI" format="1">
  <advance width="778"/>
  <outline>
    <contour>
      <point x="608" y="719" type="line"/>
      <point x="694" y="719"/>
      <point x="698" y="652"/>
      <point x="698" y="590" type="curve" smooth="yes"/>
      <point x="698" y="1" type="line"/>
      <point x="738" y="1" type="line"/>
      <point x="738" y="593" type="line" smooth="yes"/>
      <point x="738" y="695"/>
      <point x="705" y="759"/>
      <point x="608" y="759" type="curve"/>
    </contour>
    <contour>
      <point x="423" y="591" type="curve"/>
      <point x="463" y="591" type="line" smooth="yes"/>
      <point x="463" y="652"/>
      <point x="474" y="719"/>
      <point x="554" y="719" type="curve" smooth="yes"/>
      <point x="554" y="759" type="line" smooth="yes"/>
      <point x="460" y="759"/>
      <point x="423" y="695"/>
    </contour>
    <component base="tml_Ca"/>
  </outline>
</glyph>
<glyph name="tml_CIi.alt" format="1">
  <advance width="731"/>
  <outline>
    <contour>
      <point x="92" y="295" type="curve"/>
      <point x="124" y="326" type="line"/>
      <point x="67" y="543"/>
      <point x="115" y="737"/>
      <point x="248" y="803" type="curve" smooth="yes"/>
      <point x="311" y="834"/>
      <point x="451" y="866"/>
      <point x="568" y="830" type="curve"/>
      <point x="623" y="815"/>
      <point x="666" y="764"/>
      <point x="653" y="716" type="curve" smooth="yes"/>
      <point x="638" y="659"/>
      <point x="593" y="651"/>
      <point x="567" y="658" type="curve" smooth="yes"/>
      <point x="543" y="664"/>
      <point x="514" y="700"/>
      <point x="518" y="715" type="curve" smooth="yes"/>
      <point x="483" y="691" type="line"/>
      <point x="488" y="665"/>
      <point x="514" y="630"/>
      <point x="557" y="618" type="curve" smooth="yes"/>
      <point x="638" y="596"/>
      <point x="697" y="663"/>
      <point x="696" y="734" type="curve" smooth="yes"/>
      <point x="695" y="788"/>
      <point x="661" y="844"/>
      <point x="578" y="869" type="curve"/>
      <point x="466" y="900"/>
      <point x="331" y="891"/>
      <point x="225" y="835" type="curve" smooth="yes"/>
      <point x="66" y="751"/>
      <point x="22" y="521"/>
    </contour>
    <component base="tml_Ca"/>
  </outline>
</glyph>
<glyph name="tml_CUu" format="1">
  <advance width="1101"/>
  <outline>
    <contour>
      <point x="549" y="-208" type="line"/>
      <point x="549" y="-168" type="line"/>
      <point x="230" y="-168" type="line" smooth="yes"/>
      <point x="160" y="-168"/>
      <point x="121" y="-90"/>
      <point x="121" y="29" type="curve" smooth="yes"/>
      <point x="121" y="268" type="line" smooth="yes"/>
      <point x="121" y="370"/>
      <point x="181" y="404"/>
      <point x="238" y="404" type="curve" smooth="yes"/>
      <point x="238" y="444" type="line" smooth="yes"/>
      <point x="171" y="444"/>
      <point x="81" y="402"/>
      <point x="81" y="273" type="curve" smooth="yes"/>
      <point x="81" y="30" type="line" smooth="yes"/>
      <point x="81" y="-107"/>
      <point x="119" y="-208"/>
      <point x="233" y="-208" type="curve" smooth="yes"/>
    </contour>
    <contour>
      <point x="604" y="-208" type="line"/>
      <point x="906" y="-208" type="line" smooth="yes"/>
      <point x="999" y="-208"/>
      <point x="1048" y="-142"/>
      <point x="1048" y="-84" type="curve" smooth="yes"/>
      <point x="1048" y="64" type="line" smooth="yes"/>
      <point x="1048" y="182"/>
      <point x="946" y="209"/>
      <point x="885" y="215" type="curve"/>
      <point x="885" y="175" type="line"/>
      <point x="917" y="175"/>
      <point x="1008" y="159"/>
      <point x="1008" y="60" type="curve" smooth="yes"/>
      <point x="1008" y="-84" type="line" smooth="yes"/>
      <point x="1008" y="-132"/>
      <point x="956" y="-168"/>
      <point x="905" y="-168" type="curve" smooth="yes"/>
      <point x="604" y="-168" type="line"/>
    </contour>
    <contour>
      <point x="206" y="198" type="curve" smooth="yes"/>
      <point x="246" y="198" type="line" smooth="yes"/>
      <point x="246" y="292"/>
      <point x="330" y="331"/>
      <point x="405" y="331" type="curve" smooth="yes"/>
      <point x="912" y="331" type="line"/>
      <point x="912" y="371" type="line"/>
      <point x="412" y="371" type="line" smooth="yes"/>
      <point x="240" y="371"/>
      <point x="206" y="261"/>
    </contour>
    <contour>
      <point x="449" y="-1" type="line"/>
      <point x="586" y="-1"/>
      <point x="629" y="95"/>
      <point x="629" y="191" type="curve" smooth="yes"/>
      <point x="629" y="588" type="line"/>
      <point x="589" y="588" type="line"/>
      <point x="589" y="187" type="line" smooth="yes"/>
      <point x="589" y="98"/>
      <point x="544" y="39"/>
      <point x="449" y="39" type="curve"/>
    </contour>
    <contour>
      <point x="396" y="-1" type="curve"/>
      <point x="396" y="39" type="line"/>
      <point x="337" y="39"/>
      <point x="256" y="56"/>
      <point x="247" y="166" type="curve" smooth="yes"/>
      <point x="246" y="166"/>
      <point x="206" y="166"/>
      <point x="206" y="166" type="curve" smooth="yes"/>
      <point x="206" y="91"/>
      <point x="247" y="0"/>
    </contour>
    <contour>
      <point x="331" y="348" type="line"/>
      <point x="371" y="348" type="line"/>
      <point x="372" y="586" type="line"/>
      <point x="331" y="586" type="line"/>
    </contour>
    <contour>
      <point x="331" y="555" type="line"/>
      <point x="454" y="555" type="line"/>
      <point x="454" y="595" type="line"/>
      <point x="331" y="595" type="line"/>
    </contour>
    <contour>
      <point x="508" y="555" type="line"/>
      <point x="820" y="555" type="line"/>
      <point x="820" y="595" type="line"/>
      <point x="508" y="595" type="line"/>
    </contour>
    <contour>
      <point x="812" y="0" type="line"/>
      <point x="852" y="0" type="line"/>
      <point x="852" y="341" type="line"/>
      <point x="812" y="341" type="line"/>
    </contour>
  </outline>
</glyph>
<glyph name="tml_HI" format="1">
  <advance width="1436"/>
  <outline>
    <contour>
      <point x="1312" y="765" type="curve"/>
      <point x="1312" y="725" type="line"/>
      <point x="1398" y="725"/>
      <point x="1402" y="658"/>
      <point x="1402" y="596" type="curve" smooth="yes"/>
      <point x="1402" y="2" type="line"/>
      <point x="1442" y="2" type="line"/>
      <point x="1442" y="599" type="line" smooth="yes"/>
      <point x="1442" y="701"/>
      <point x="1409" y="765"/>
    </contour>
    <contour>
      <point x="1167" y="580" type="line"/>
      <point x="1167" y="597" type="line"/>
      <point x="1167" y="658"/>
      <point x="1178" y="725"/>
      <point x="1258" y="725" type="curve"/>
      <point x="1258" y="765" type="line"/>
      <point x="1167" y="765"/>
      <point x="1127" y="705"/>
      <point x="1127" y="597" type="curve"/>
    </contour>
    <component base="tml_Ha"/>
  </outline>
</glyph>
<glyph name="tml_HUu" format="1">
  <advance width="1801"/>
  <outline>
    <contour>
      <point x="1127" y="564" type="line"/>
      <point x="1441" y="564" type="line" smooth="yes"/>
      <point x="1538" y="564"/>
      <point x="1570" y="533"/>
      <point x="1570" y="478" type="curve" smooth="yes"/>
      <point x="1570" y="460"/>
      <point x="1551" y="406"/>
      <point x="1496" y="406" type="curve" smooth="yes"/>
      <point x="1437" y="406"/>
      <point x="1420" y="459"/>
      <point x="1420" y="479" type="curve" smooth="yes"/>
      <point x="1380" y="479" type="line"/>
      <point x="1380" y="429"/>
      <point x="1422" y="366"/>
      <point x="1491" y="366" type="curve" smooth="yes"/>
      <point x="1503" y="366" type="line" smooth="yes"/>
      <point x="1558" y="366"/>
      <point x="1610" y="420"/>
      <point x="1610" y="479" type="curve" smooth="yes"/>
      <point x="1610" y="486" type="line" smooth="yes"/>
      <point x="1610" y="553"/>
      <point x="1560" y="604"/>
      <point x="1445" y="604" type="curve" smooth="yes"/>
      <point x="1127" y="604" type="line"/>
    </contour>
    <contour>
      <point x="1377" y="604" type="curve" smooth="yes"/>
      <point x="1417" y="604" type="line"/>
      <point x="1417" y="706"/>
      <point x="1462" y="764"/>
      <point x="1569" y="764" type="curve" smooth="yes"/>
      <point x="1679" y="764"/>
      <point x="1721" y="705"/>
      <point x="1721" y="648" type="curve" smooth="yes"/>
      <point x="1721" y="324" type="line" smooth="yes"/>
      <point x="1721" y="242"/>
      <point x="1669" y="239"/>
      <point x="1623" y="239" type="curve" smooth="yes"/>
      <point x="1564" y="239" type="line" smooth="yes"/>
      <point x="1564" y="199" type="line" smooth="yes"/>
      <point x="1623" y="199" type="line" smooth="yes"/>
      <point x="1724" y="199"/>
      <point x="1761" y="246"/>
      <point x="1761" y="324" type="curve" smooth="yes"/>
      <point x="1761" y="648" type="line" smooth="yes"/>
      <point x="1761" y="753"/>
      <point x="1672" y="804"/>
      <point x="1569" y="804" type="curve" smooth="yes"/>
      <point x="1454" y="804"/>
      <point x="1377" y="746"/>
    </contour>
    <component base="tml_Ha"/>
  </outline>
</glyph>
